<svg width="28" height="28" viewBox="0 0 28 28" fill="none" xmlns="http://www.w3.org/2000/svg">
<path d="M25.2311 2.76888C24.4528 1.99226 23.3984 1.55593 22.2989 1.55554H5.7011C4.60163 1.55554 3.54719 1.9923 2.76975 2.76975C1.9923 3.54719 1.55554 4.60163 1.55554 5.7011V22.2989C1.55554 23.3983 1.9923 24.4528 2.76975 25.2302C3.54719 26.0077 4.60163 26.4444 5.7011 26.4444H22.2989C23.3983 26.4444 24.4528 26.0077 25.2302 25.2302C26.0077 24.4528 26.4444 23.3983 26.4444 22.2989V5.7011C26.444 4.60162 26.0077 3.54716 25.2311 2.76888ZM3.94332 3.94332C4.17375 3.71173 4.44765 3.52793 4.7493 3.40246C5.05094 3.277 5.3744 3.21234 5.7011 3.21221H22.2989C22.9583 3.21426 23.5902 3.47714 24.0565 3.94345C24.5228 4.40977 24.7857 5.04163 24.7878 5.7011V8.18999H3.21221V5.7011C3.21419 5.04161 3.47702 4.40969 3.94332 3.94332ZM24.0567 24.0567C23.8262 24.2882 23.5523 24.472 23.2507 24.5975C22.949 24.723 22.6256 24.7876 22.2989 24.7878H5.7011C5.04163 24.7857 4.40977 24.5228 3.94345 24.0565C3.47714 23.5902 3.21426 22.9583 3.21221 22.2989V9.85443H24.7878V22.2989C24.7858 22.9584 24.5229 23.5903 24.0567 24.0567Z" fill="#4B6F8E"/>
<path d="M21.4666 6.53334C21.6312 6.53334 21.7921 6.48453 21.929 6.39309C22.0659 6.30164 22.1725 6.17167 22.2355 6.0196C22.2985 5.86753 22.315 5.7002 22.2829 5.53876C22.2508 5.37733 22.1715 5.22904 22.0551 5.11265C21.9387 4.99626 21.7904 4.917 21.629 4.88489C21.4676 4.85278 21.3002 4.86926 21.1482 4.93225C20.9961 4.99523 20.8661 5.1019 20.7747 5.23876C20.6832 5.37562 20.6344 5.53652 20.6344 5.70112C20.6344 5.92184 20.7221 6.13352 20.8782 6.28959C21.0342 6.44566 21.2459 6.53334 21.4666 6.53334ZM18.1455 6.53334C18.2611 6.54455 18.3776 6.53147 18.4878 6.49494C18.598 6.45841 18.6993 6.39924 18.7852 6.32124C18.8712 6.24323 18.9398 6.14811 18.9868 6.04198C19.0338 5.93586 19.0581 5.82107 19.0581 5.70501C19.0581 5.58894 19.0338 5.47416 18.9868 5.36804C18.9398 5.26191 18.8712 5.16679 18.7852 5.08878C18.6993 5.01077 18.598 4.95161 18.4878 4.91508C18.3776 4.87855 18.2611 4.86547 18.1455 4.87667C17.9397 4.89664 17.7487 4.99254 17.6097 5.14567C17.4707 5.2988 17.3937 5.4982 17.3937 5.70501C17.3937 5.91182 17.4707 6.11121 17.6097 6.26435C17.7487 6.41748 17.9397 6.51337 18.1455 6.53334ZM6.53331 6.53334H9.85442C10.0603 6.51337 10.2513 6.41748 10.3903 6.26435C10.5293 6.11121 10.6063 5.91182 10.6063 5.70501C10.6063 5.4982 10.5293 5.2988 10.3903 5.14567C10.2513 4.99254 10.0603 4.89664 9.85442 4.87667H6.53331C6.41779 4.86547 6.3012 4.87855 6.19103 4.91508C6.08086 4.95161 5.97955 5.01077 5.89361 5.08878C5.80767 5.16679 5.739 5.26191 5.692 5.36804C5.645 5.47416 5.62073 5.58894 5.62073 5.70501C5.62073 5.82107 5.645 5.93586 5.692 6.04198C5.739 6.14811 5.80767 6.24323 5.89361 6.32124C5.97955 6.39924 6.08086 6.45841 6.19103 6.49494C6.3012 6.53147 6.41779 6.54455 6.53331 6.53334ZM14 12.3433H6.53331C6.42439 12.3423 6.31634 12.3629 6.21542 12.4039C6.11449 12.4448 6.02269 12.5054 5.9453 12.582C5.86792 12.6587 5.8065 12.7499 5.76458 12.8505C5.72266 12.951 5.70108 13.0589 5.70109 13.1678V21.4667C5.70109 21.6874 5.78877 21.8991 5.94484 22.0551C6.10091 22.2112 6.31259 22.2989 6.53331 22.2989H14C14.2207 22.2989 14.4324 22.2112 14.5884 22.0551C14.7445 21.8991 14.8322 21.6874 14.8322 21.4667V13.1678C14.8322 13.0589 14.8106 12.951 14.7687 12.8505C14.7268 12.7499 14.6654 12.6587 14.588 12.582C14.5106 12.5054 14.4188 12.4448 14.3179 12.4039C14.2169 12.3629 14.1089 12.3423 14 12.3433ZM13.1678 20.6345H7.36553V14H13.1678V20.6345ZM21.4666 13.1678H17.3211C17.1004 13.1678 16.8887 13.2555 16.7326 13.4115C16.5765 13.5676 16.4889 13.7793 16.4889 14C16.4889 14.2207 16.5765 14.4324 16.7326 14.5885C16.8887 14.7446 17.1004 14.8322 17.3211 14.8322H21.4666C21.6874 14.8322 21.899 14.7446 22.0551 14.5885C22.2112 14.4324 22.2989 14.2207 22.2989 14C22.2989 13.7793 22.2112 13.5676 22.0551 13.4115C21.899 13.2555 21.6874 13.1678 21.4666 13.1678ZM21.4666 16.4889H17.3211C17.2056 16.4777 17.089 16.4908 16.9788 16.5273C16.8686 16.5638 16.7673 16.623 16.6814 16.701C16.5954 16.779 16.5268 16.8741 16.4798 16.9803C16.4328 17.0864 16.4085 17.2012 16.4085 17.3172C16.4085 17.4333 16.4328 17.5481 16.4798 17.6542C16.5268 17.7603 16.5954 17.8554 16.6814 17.9335C16.7673 18.0115 16.8686 18.0706 16.9788 18.1072C17.089 18.1437 17.2056 18.1568 17.3211 18.1456H21.4666C21.5822 18.1568 21.6988 18.1437 21.8089 18.1072C21.9191 18.0706 22.0204 18.0115 22.1063 17.9335C22.1923 17.8554 22.261 17.7603 22.308 17.6542C22.3549 17.5481 22.3792 17.4333 22.3792 17.3172C22.3792 17.2012 22.3549 17.0864 22.308 16.9803C22.261 16.8741 22.1923 16.779 22.1063 16.701C22.0204 16.623 21.9191 16.5638 21.8089 16.5273C21.6988 16.4908 21.5822 16.4777 21.4666 16.4889ZM21.4666 19.81H17.3211C17.2056 19.7988 17.089 19.8119 16.9788 19.8484C16.8686 19.8849 16.7673 19.9441 16.6814 20.0221C16.5954 20.1001 16.5268 20.1952 16.4798 20.3014C16.4328 20.4075 16.4085 20.5223 16.4085 20.6383C16.4085 20.7544 16.4328 20.8692 16.4798 20.9753C16.5268 21.0814 16.5954 21.1766 16.6814 21.2546C16.7673 21.3326 16.8686 21.3917 16.9788 21.4283C17.089 21.4648 17.2056 21.4779 17.3211 21.4667H21.4666C21.5822 21.4779 21.6988 21.4648 21.8089 21.4283C21.9191 21.3917 22.0204 21.3326 22.1063 21.2546C22.1923 21.1766 22.261 21.0814 22.308 20.9753C22.3549 20.8692 22.3792 20.7544 22.3792 20.6383C22.3792 20.5223 22.3549 20.4075 22.308 20.3014C22.261 20.1952 22.1923 20.1001 22.1063 20.0221C22.0204 19.9441 21.9191 19.8849 21.8089 19.8484C21.6988 19.8119 21.5822 19.7988 21.4666 19.81Z" fill="#4B6F8E"/>
</svg>
