<svg width="28" height="28" viewBox="0 0 28 28" fill="none" xmlns="http://www.w3.org/2000/svg">
<path d="M17.5 26.5417H10.5C4.16498 26.5417 1.45831 23.835 1.45831 17.5V10.5C1.45831 4.16504 4.16498 1.45837 10.5 1.45837H17.5C23.835 1.45837 26.5416 4.16504 26.5416 10.5V17.5C26.5416 23.835 23.835 26.5417 17.5 26.5417ZM10.5 3.20837C5.12165 3.20837 3.20831 5.12171 3.20831 10.5V17.5C3.20831 22.8784 5.12165 24.7917 10.5 24.7917H17.5C22.8783 24.7917 24.7916 22.8784 24.7916 17.5V10.5C24.7916 5.12171 22.8783 3.20837 17.5 3.20837H10.5Z" fill="#4B6F8E"/>
<path d="M14 26.5417C13.5217 26.5417 13.125 26.145 13.125 25.6667V2.33337C13.125 1.85504 13.5217 1.45837 14 1.45837C14.4783 1.45837 14.875 1.85504 14.875 2.33337V25.6667C14.875 26.145 14.4783 26.5417 14 26.5417Z" fill="#4B6F8E"/>
<path d="M14 11.9584H2.33331C1.85498 11.9584 1.45831 11.5617 1.45831 11.0834C1.45831 10.605 1.85498 10.2084 2.33331 10.2084H14C14.4783 10.2084 14.875 10.605 14.875 11.0834C14.875 11.5617 14.4783 11.9584 14 11.9584Z" fill="#4B6F8E"/>
<path d="M25.6667 17.7916H14C13.5217 17.7916 13.125 17.395 13.125 16.9166C13.125 16.4383 13.5217 16.0416 14 16.0416H25.6667C26.145 16.0416 26.5417 16.4383 26.5417 16.9166C26.5417 17.395 26.145 17.7916 25.6667 17.7916Z" fill="#4B6F8E"/>
</svg>
