<svg width="28" height="28" viewBox="0 0 28 28" fill="none" xmlns="http://www.w3.org/2000/svg">
<path d="M24.3017 9.34494L16.66 3.23161C15.1667 2.04161 12.8333 2.02994 11.3517 3.21994L3.71 9.34494C2.61333 10.2199 1.94833 11.9699 2.18166 13.3466L3.65166 22.1433C3.99 24.1149 5.82166 25.6666 7.81666 25.6666H20.1833C22.155 25.6666 24.0217 24.0799 24.36 22.1316L25.83 13.3349C26.04 11.9699 25.375 10.2199 24.3017 9.34494ZM14.875 20.9999C14.875 21.4783 14.4783 21.8749 14 21.8749C13.5217 21.8749 13.125 21.4783 13.125 20.9999V17.4999C13.125 17.0216 13.5217 16.6249 14 16.6249C14.4783 16.6249 14.875 17.0216 14.875 17.4999V20.9999Z" fill="#2475EF"/>
</svg>
