<svg width="28" height="28" viewBox="0 0 28 28" fill="none" xmlns="http://www.w3.org/2000/svg">
<path d="M14 21.875C13.5217 21.875 13.125 21.4783 13.125 21V17.5C13.125 17.0217 13.5217 16.625 14 16.625C14.4783 16.625 14.875 17.0217 14.875 17.5V21C14.875 21.4783 14.4783 21.875 14 21.875Z" fill="#4B6F8E"/>
<path d="M20.5333 26.32H7.46668C5.34335 26.32 3.40668 24.6867 3.05668 22.5983L1.50501 13.3C1.24835 11.8533 1.96002 9.99833 3.11502 9.07666L11.2 2.60166C12.7633 1.34166 15.225 1.35333 16.8 2.61333L24.885 9.07666C26.0283 9.99833 26.7283 11.8533 26.495 13.3L24.9433 22.5867C24.5933 24.6517 22.61 26.32 20.5333 26.32ZM13.9883 3.41833C13.37 3.41833 12.7517 3.605 12.2967 3.96666L4.21168 10.4533C3.55835 10.9783 3.09168 12.1917 3.23168 13.02L4.78335 22.3067C4.99335 23.5317 6.21835 24.57 7.46668 24.57H20.5333C21.7817 24.57 23.0067 23.5317 23.2167 22.295L24.7683 13.0083C24.8967 12.1917 24.43 10.955 23.7883 10.4417L15.7033 3.97833C15.2367 3.605 14.6067 3.41833 13.9883 3.41833Z" fill="#4B6F8E"/>
</svg>
