<svg width="28" height="28" viewBox="0 0 28 28" fill="none" xmlns="http://www.w3.org/2000/svg">
<path fill-rule="evenodd" clip-rule="evenodd" d="M18.5 1.5H9.5C7.37827 1.5 5.34343 2.34286 3.84314 3.84315C2.34285 5.34345 1.5 7.37827 1.5 9.5V18.5C1.5 20.6217 2.34285 22.6566 3.84314 24.1569C5.34343 25.6572 7.37827 26.5 9.5 26.5H18.5C20.6217 26.5 22.6566 25.6572 24.1569 24.1569C25.6572 22.6566 26.5 20.6217 26.5 18.5V9.5C26.5 7.37827 25.6572 5.34345 24.1569 3.84315C22.6566 2.34286 20.6217 1.5 18.5 1.5ZM11.5 17.39L8.88 20.02C8.71391 20.1813 8.4915 20.2715 8.25999 20.2715C8.02849 20.2715 7.80609 20.1813 7.64 20.02L6.77 19.14C6.61341 18.9756 6.52729 18.7564 6.53006 18.5294C6.53283 18.3023 6.62426 18.0854 6.78482 17.9248C6.94538 17.7642 7.16234 17.6728 7.38939 17.6701C7.61644 17.6673 7.83557 17.7534 8 17.91L8.25999 18.16L10.26 16.16C10.3408 16.0786 10.4368 16.0139 10.5425 15.9695C10.6483 15.9252 10.7618 15.9022 10.8765 15.9017C10.9911 15.9013 11.1048 15.9234 11.2109 15.9669C11.3171 16.0103 11.4136 16.0742 11.495 16.155C11.5764 16.2358 11.6411 16.3318 11.6855 16.4376C11.7298 16.5433 11.7528 16.6568 11.7533 16.7715C11.7537 16.8861 11.7316 16.9998 11.6882 17.1059C11.6447 17.2121 11.5808 17.3086 11.5 17.39ZM11.5 9.23L8.88 11.85C8.71468 12.0135 8.49249 12.1067 8.25999 12.11C8.14449 12.1105 8.03006 12.0878 7.92354 12.0431C7.81702 11.9984 7.72059 11.9328 7.64 11.85L6.77 10.98C6.60635 10.8152 6.5145 10.5923 6.5145 10.36C6.5145 10.1277 6.60635 9.90485 6.77 9.74001C6.93315 9.57696 7.15435 9.48537 7.38499 9.48537C7.61564 9.48537 7.83686 9.57696 8 9.74001L8.25999 10L10.26 8C10.4231 7.83696 10.6444 7.74536 10.875 7.74536C11.1056 7.74536 11.3269 7.83696 11.49 8C11.652 8.1631 11.7437 8.3831 11.7456 8.61296C11.7475 8.84282 11.6593 9.06429 11.5 9.23ZM21.13 19.13C20.9647 19.2935 20.7425 19.3867 20.51 19.39H14.39C14.2673 19.4032 14.1431 19.3903 14.0256 19.3523C13.9081 19.3143 13.8 19.2521 13.7081 19.1695C13.6163 19.087 13.5429 18.9861 13.4926 18.8733C13.4423 18.7606 13.4163 18.6385 13.4163 18.515C13.4163 18.3916 13.4423 18.2694 13.4926 18.1567C13.5429 18.0439 13.6163 17.943 13.7081 17.8605C13.8 17.7779 13.9081 17.7157 14.0256 17.6777C14.1431 17.6397 14.2673 17.6269 14.39 17.64H20.5C20.7313 17.6396 20.9537 17.7293 21.12 17.89C21.2826 18.0559 21.3757 18.2777 21.38 18.51C21.3794 18.7411 21.2898 18.9631 21.13 19.13ZM21.13 10.96C21.0498 11.0432 20.9534 11.1092 20.8468 11.1539C20.7402 11.1986 20.6256 11.2211 20.51 11.22H14.39C14.2673 11.2331 14.1431 11.2203 14.0256 11.1823C13.9081 11.1443 13.8 11.0821 13.7081 10.9995C13.6163 10.917 13.5429 10.8161 13.4926 10.7033C13.4423 10.5906 13.4163 10.4685 13.4163 10.345C13.4163 10.2215 13.4423 10.0994 13.4926 9.98668C13.5429 9.87391 13.6163 9.77299 13.7081 9.69046C13.8 9.60793 13.9081 9.54566 14.0256 9.50768C14.1431 9.46969 14.2673 9.45686 14.39 9.47H20.5C20.6156 9.4689 20.7302 9.4914 20.8368 9.5361C20.9434 9.58081 21.0398 9.64678 21.12 9.73C21.2019 9.81009 21.267 9.90576 21.3115 10.0114C21.3559 10.117 21.3788 10.2304 21.3788 10.345C21.3788 10.4596 21.3559 10.573 21.3115 10.6786C21.267 10.7842 21.2019 10.8799 21.12 10.96H21.13Z" fill="#2475EF"/>
</svg>
