<svg width="28" height="28" viewBox="0 0 28 28" fill="none" xmlns="http://www.w3.org/2000/svg">
<path d="M20.5567 11.2233H14.4317C13.9533 11.2233 13.5567 10.8267 13.5567 10.3483C13.5567 9.87 13.9533 9.47333 14.4317 9.47333H20.5567C20.7887 9.47333 21.0113 9.56552 21.1754 9.72961C21.3395 9.89371 21.4317 10.1163 21.4317 10.3483C21.4317 10.5804 21.3395 10.803 21.1754 10.9671C21.0113 11.1311 20.7887 11.2233 20.5567 11.2233ZM8.30665 12.11C8.08499 12.11 7.86332 12.0283 7.68832 11.8533L6.81332 10.9783C6.47499 10.64 6.47499 10.08 6.81332 9.74167C7.15165 9.40333 7.71165 9.40333 8.04999 9.74167L8.30665 9.99833L10.3133 7.99167C10.6517 7.65333 11.2117 7.65333 11.55 7.99167C11.8883 8.33 11.8883 8.89 11.55 9.22833L8.92499 11.8533C8.76105 12.0175 8.53864 12.1098 8.30665 12.11ZM20.5567 19.39H14.4317C13.9533 19.39 13.5567 18.9933 13.5567 18.515C13.5567 18.0367 13.9533 17.64 14.4317 17.64H20.5567C20.7887 17.64 21.0113 17.7322 21.1754 17.8963C21.3395 18.0604 21.4317 18.2829 21.4317 18.515C21.4317 18.7471 21.3395 18.9696 21.1754 19.1337C21.0113 19.2978 20.7887 19.39 20.5567 19.39ZM8.30665 20.2767C8.08499 20.2767 7.86332 20.195 7.68832 20.02L6.81332 19.145C6.47499 18.8067 6.47499 18.2467 6.81332 17.9083C7.15165 17.57 7.71165 17.57 8.04999 17.9083L8.30665 18.165L10.3133 16.1583C10.6517 15.82 11.2117 15.82 11.55 16.1583C11.8883 16.4967 11.8883 17.0567 11.55 17.395L8.92499 20.02C8.76105 20.1841 8.53864 20.2765 8.30665 20.2767Z" fill="#4B6F8E"/>
<path d="M17.5 26.5417H10.5C4.16498 26.5417 1.45831 23.835 1.45831 17.5V10.5C1.45831 4.16504 4.16498 1.45837 10.5 1.45837H17.5C23.835 1.45837 26.5416 4.16504 26.5416 10.5V17.5C26.5416 23.835 23.835 26.5417 17.5 26.5417ZM10.5 3.20837C5.12165 3.20837 3.20831 5.12171 3.20831 10.5V17.5C3.20831 22.8784 5.12165 24.7917 10.5 24.7917H17.5C22.8783 24.7917 24.7916 22.8784 24.7916 17.5V10.5C24.7916 5.12171 22.8783 3.20837 17.5 3.20837H10.5Z" fill="#4B6F8E"/>
</svg>
