<svg width="8" height="8" viewBox="0 0 8 8" fill="none" xmlns="http://www.w3.org/2000/svg">
<path d="M1.23131 7.5C1.04542 7.5 0.859539 7.43154 0.712788 7.28484C0.429071 7.00122 0.429071 6.53179 0.712788 6.24817L6.25018 0.712714C6.53389 0.429095 7.00349 0.429095 7.28721 0.712714C7.57093 0.996333 7.57093 1.46577 7.28721 1.74939L1.74982 7.28484C1.61286 7.43154 1.41719 7.5 1.23131 7.5Z" fill="white"/>
<path d="M6.76869 7.5C6.58281 7.5 6.39693 7.43154 6.25018 7.28484L0.712788 1.74939C0.429071 1.46577 0.429071 0.996333 0.712788 0.712714C0.996506 0.429095 1.46611 0.429095 1.74982 0.712714L7.28721 6.24817C7.57093 6.53179 7.57093 7.00122 7.28721 7.28484C7.14046 7.43154 6.95458 7.5 6.76869 7.5Z" fill="white"/>
</svg>
