<svg width="4" height="10" viewBox="0 0 4 10" fill="none" xmlns="http://www.w3.org/2000/svg">
<path d="M3.17161 9.07557C2.99192 9.0946 2.81154 9.04853 2.65632 8.94396C2.60033 8.87867 2.55797 8.79991 2.53239 8.71351C2.50681 8.62711 2.49866 8.53529 2.50854 8.44483C2.51272 8.29227 2.52876 8.14043 2.55646 7.99108C2.58327 7.81974 2.61791 7.65011 2.6603 7.48286L3.13165 5.64059C3.18026 5.45874 3.21239 5.27173 3.22753 5.08246C3.22753 4.87828 3.25149 4.73759 3.25149 4.65593C3.25643 4.47628 3.22559 4.29768 3.16127 4.13347C3.09694 3.96925 3.00079 3.82367 2.88 3.70758C2.57898 3.44507 2.20412 3.31603 1.82546 3.34458C1.5541 3.34921 1.28485 3.39968 1.02656 3.49432C0.744286 3.59414 0.447354 3.71362 0.135799 3.8528L0 4.45176C0.09186 4.41545 0.203733 4.37462 0.331534 4.32923C0.453457 4.2882 0.579848 4.26682 0.707006 4.26571C0.88538 4.24375 1.06489 4.29352 1.2143 4.40637C1.26451 4.47444 1.30208 4.55335 1.32473 4.63836C1.34739 4.72336 1.35466 4.8127 1.34611 4.90098C1.34567 5.05357 1.33094 5.20567 1.30217 5.35472C1.2742 5.51355 1.23826 5.68142 1.19432 5.85838L0.718986 7.7097C0.680679 7.88178 0.65002 8.05594 0.627127 8.23153C0.608458 8.38184 0.59911 8.53346 0.59915 8.68527C0.598187 8.86608 0.633686 9.04474 0.702923 9.20756C0.772161 9.37037 0.873299 9.51301 0.998583 9.62454C1.30424 9.89115 1.68442 10.0233 2.06908 9.99663C2.33994 10.0029 2.60986 9.95848 2.86798 9.86502C3.09434 9.77728 3.39659 9.65176 3.77474 9.48841L3.90257 8.91667C3.80014 8.96494 3.69465 9.00437 3.587 9.03463C3.45086 9.06993 3.31107 9.08371 3.17161 9.07557ZM3.6709 0.340725C3.4535 0.113927 3.16706 -0.00808798 2.872 0.0004165C2.57707 -0.00713911 2.29093 0.114748 2.0731 0.340725C1.6738 0.731843 1.62921 1.41663 1.97355 1.87026C2.00423 1.91069 2.0375 1.94849 2.0731 1.98334C2.528 2.44555 3.21599 2.44555 3.67086 1.98334C4.07016 1.58836 4.112 0.900495 3.7643 0.446907C3.73537 0.4091 3.70416 0.373621 3.6709 0.340725Z" fill="white"/>
</svg>
