<svg width="40" height="40" viewBox="0 0 40 40" fill="none" xmlns="http://www.w3.org/2000/svg">
<path d="M29.009 19.9199C32.87 19.9199 36 16.7847 36 12.9172C36 9.04979 32.87 5.91461 29.009 5.91461C25.148 5.91461 22.018 9.04979 22.018 12.9172C22.018 16.7847 25.148 19.9199 29.009 19.9199Z" fill="#A2E7C6"/>
<path fill-rule="evenodd" clip-rule="evenodd" d="M32.3205 10.5298C32.5848 10.7518 32.6192 11.146 32.3973 11.4104L28.9669 15.4966C28.8523 15.6332 28.6847 15.7143 28.5064 15.7195C28.3281 15.7247 28.1561 15.6534 28.0337 15.5237L25.8568 13.217C25.6199 12.9659 25.6313 12.5704 25.8823 12.3335C26.1334 12.0965 26.5289 12.108 26.7659 12.359L28.461 14.1552L31.4399 10.6066C31.6619 10.3423 32.0561 10.3079 32.3205 10.5298ZM6.50506 25.083C5.81193 25.083 5.25 25.6449 5.25 26.3381V29.7419H24.0884V26.3381C24.0884 25.6449 23.5264 25.083 22.8333 25.083H6.50506ZM23.9255 30.9919H24.7134C25.0586 30.9919 25.3384 30.7121 25.3384 30.3669V26.3381C25.3384 24.9546 24.2168 23.833 22.8333 23.833H6.50506C5.12157 23.833 4 24.9546 4 26.3381V30.3669C4 30.7121 4.27982 30.9919 4.625 30.9919H5.41287V31.5803C5.41287 32.9638 6.53445 34.0854 7.91794 34.0854H21.4204C22.8039 34.0854 23.9255 32.9639 23.9255 31.5803V30.9919ZM22.6755 30.9919H6.66287V31.5803C6.66287 32.2734 7.2248 32.8354 7.91794 32.8354H21.4204C22.1136 32.8354 22.6755 32.2735 22.6755 31.5803V30.9919ZM7.51931 27.6791C7.51931 27.3339 7.79913 27.0541 8.14431 27.0541H21.1941C21.5392 27.0541 21.8191 27.3339 21.8191 27.6791C21.8191 28.0243 21.5392 28.3041 21.1941 28.3041H8.14431C7.79913 28.3041 7.51931 28.0243 7.51931 27.6791Z" fill="#04002E"/>
<path fill-rule="evenodd" clip-rule="evenodd" d="M14.4512 9.95115C17.1092 9.82868 19.3015 11.9516 19.3015 14.5852C19.3015 15.7766 18.8522 16.8645 18.1148 17.6859C17.3913 18.4918 16.9778 19.5151 16.9778 20.579V20.7403C18.1574 21.0502 19.0275 22.1238 19.0275 23.4006C19.0275 23.4006 19.0275 23.4006 19.0275 23.4006L19.0275 24.458C19.0276 24.6237 18.9617 24.7827 18.8445 24.8999C18.7273 25.0171 18.5683 25.083 18.4025 25.083H10.9358C10.5906 25.083 10.3108 24.8032 10.3108 24.458V23.4006C10.3108 22.1237 11.1809 21.0502 12.3605 20.7403V20.5786C12.3605 19.5183 11.963 18.4968 11.2481 17.7131C10.4429 16.8302 9.97354 15.6331 10.0436 14.3295C10.1707 11.9662 12.0891 10.06 14.4512 9.95115ZM13.6105 20.6503H15.7278V20.579C15.7278 19.1871 16.2688 17.8709 17.1847 16.8508C17.724 16.2501 18.0515 15.4568 18.0515 14.5852C18.0515 12.6592 16.4492 11.1104 14.5087 11.1998C12.7893 11.279 11.3845 12.6733 11.2918 14.3966C11.2404 15.3526 11.583 16.2253 12.1716 16.8707C13.0956 17.8837 13.6105 19.2053 13.6105 20.5786V20.6503ZM13.0611 21.9003C12.2325 21.9003 11.5608 22.572 11.5608 23.4006V23.833H17.7775L17.7775 23.4007C17.7775 22.5721 17.1058 21.9003 16.2772 21.9003H13.0611Z" fill="#04002E"/>
</svg>
