<svg width="32" height="32" viewBox="0 0 32 32" fill="none" xmlns="http://www.w3.org/2000/svg">
<path d="M7.69186 10.5556H23.6706V22.5025H7.69186V10.5556Z" fill="#E2C4FF"/>
<path d="M27.3463 1.81313H26.39V1.25H27.0769C27.4219 1.25 27.7019 0.97 27.7019 0.625C27.7019 0.28 27.4219 0 27.0769 0H25.765C25.42 0 25.14 0.28 25.14 0.625V1.81313H21.9175V1.25H22.6044C22.9494 1.25 23.2294 0.97 23.2294 0.625C23.2294 0.28 22.9494 0 22.6044 0H21.2925C20.9475 0 20.6675 0.28 20.6675 0.625V1.81313H17.445V1.25H18.1319C18.4769 1.25 18.7569 0.97 18.7569 0.625C18.7569 0.28 18.4769 0 18.1319 0H16.82C16.475 0 16.195 0.28 16.195 0.625V1.81313H12.9725V1.25H13.6594C14.0044 1.25 14.2844 0.97 14.2844 0.625C14.2844 0.28 14.0044 0 13.6594 0H12.3475C12.0025 0 11.7225 0.28 11.7225 0.625V1.81313H8.50001V1.25H9.18689C9.53189 1.25 9.81189 0.97 9.81189 0.625C9.81189 0.28 9.53251 0 9.18689 0H7.87501C7.53001 0 7.25001 0.28 7.25001 0.625V1.81313H6.36189C5.23439 1.81313 4.31689 2.73062 4.31689 3.85812V5.92938V27.5387H3.30251C3.00439 27.5387 2.74814 27.7488 2.68939 28.0413C2.64626 28.2563 2.62439 28.4769 2.62439 28.6975C2.62439 29.5931 2.99251 30.4631 3.63439 31.085C4.24626 31.6775 5.04126 32 5.88314 32C5.91501 32 5.94689 32 5.97876 31.9988H19.2944C19.3031 31.9988 19.3119 32 19.3213 32H28.7663C29.1113 32 29.3913 31.72 29.3913 31.375V3.85875C29.3913 2.73125 28.4738 1.81375 27.3456 1.81375L27.3463 1.81313ZM5.56689 3.85875C5.56689 3.42 5.92376 3.06375 6.36189 3.06375H7.25001V3.6225C7.25001 3.9675 7.53001 4.2475 7.87501 4.2475C8.22001 4.2475 8.50001 3.9675 8.50001 3.6225V3.06375H11.7225V3.6225C11.7225 3.9675 12.0025 4.2475 12.3475 4.2475C12.6925 4.2475 12.9725 3.9675 12.9725 3.6225V3.06375H16.195V3.6225C16.195 3.9675 16.475 4.2475 16.82 4.2475C17.165 4.2475 17.445 3.9675 17.445 3.6225V3.06375H20.6675V3.6225C20.6675 3.9675 20.9475 4.2475 21.2925 4.2475C21.6375 4.2475 21.9175 3.9675 21.9175 3.6225V3.06375H25.14V3.6225C25.14 3.9675 25.42 4.2475 25.765 4.2475C26.11 4.2475 26.39 3.9675 26.39 3.6225V3.06375H27.3463C27.785 3.06375 28.1419 3.42063 28.1419 3.85875V5.30562H5.56689V3.85875ZM5.56689 6.55562H25.8063V28.5888C25.8063 29.1281 25.5713 29.655 25.1438 30.0731C24.6925 30.515 24.0969 30.76 23.51 30.7488C22.4381 30.7131 21.5669 29.7938 21.5669 28.6975C21.5669 28.5594 21.5806 28.4212 21.6075 28.2869C21.6444 28.1031 21.5969 27.9125 21.4781 27.7681C21.3594 27.6231 21.1819 27.5394 20.995 27.5394H5.56689V6.55562ZM5.96939 30.7488C5.96251 30.7488 5.95626 30.7488 5.94939 30.7488C5.40939 30.7675 4.89626 30.5662 4.50439 30.1869C4.12064 29.815 3.89939 29.3219 3.87689 28.7887H20.3181C20.3375 29.5063 20.5844 30.1894 21.0238 30.7481H5.96939V30.7488ZM28.1413 30.75H26.2213C26.7613 30.1306 27.0563 29.3738 27.0563 28.5888V6.55562H28.1413V30.75Z" fill="#020288"/>
<path d="M18.2094 13.2506C17.2675 13.2506 16.4519 13.9206 16.2706 14.8444C16.2044 15.1831 16.425 15.5119 16.7631 15.5781C17.1019 15.6444 17.4306 15.4237 17.4969 15.0856C17.5631 14.7469 17.8631 14.5012 18.2094 14.5012C18.6094 14.5012 18.935 14.8269 18.935 15.2269C18.935 15.6269 18.6094 15.9525 18.2094 15.9525C17.8644 15.9525 17.5844 16.2325 17.5844 16.5775C17.5844 16.9225 17.8644 17.2025 18.2094 17.2025C18.6094 17.2025 18.935 17.5281 18.935 17.9281C18.935 18.3281 18.6094 18.6537 18.2094 18.6537C17.8494 18.6537 17.54 18.3856 17.4906 18.0294C17.4863 17.9962 17.4838 17.9619 17.4838 17.9275C17.4838 17.5825 17.2038 17.3025 16.8588 17.3025C16.5138 17.3025 16.2338 17.5825 16.2338 17.9275C16.2338 18.0194 16.24 18.1125 16.2525 18.2025C16.3875 19.1725 17.2288 19.9037 18.2094 19.9037C19.2988 19.9037 20.185 19.0175 20.185 17.9281C20.185 17.4062 19.9813 16.9306 19.6494 16.5775C19.9813 16.2237 20.185 15.7487 20.185 15.2269C20.185 14.1375 19.2988 13.2512 18.2094 13.2512V13.2506Z" fill="#020288"/>
<path d="M13.2694 13.1537C12.0831 13.1537 11.1175 14.1187 11.1175 15.305V17.7462C11.1175 18.9325 12.0825 19.8981 13.2694 19.8981C14.4563 19.8981 15.4213 18.9331 15.4213 17.7462V15.305C15.4213 14.1187 14.4563 13.1537 13.2694 13.1537ZM14.1713 17.7469C14.1713 18.2437 13.7669 18.6487 13.2694 18.6487C12.7719 18.6487 12.3675 18.2444 12.3675 17.7469V15.3056C12.3675 14.8087 12.7719 14.4044 13.2694 14.4044C13.7669 14.4044 14.1713 14.8087 14.1713 15.3056V17.7469Z" fill="#020288"/>
</svg>
