<svg width="32" height="32" viewBox="0 0 32 32" fill="none" xmlns="http://www.w3.org/2000/svg">
<g clip-path="url(#clip0_589_896)">
<path d="M25.061 6.17688V23.8656L19.9505 29.0306H7.55748V32H28V6.17688H25.061Z" fill="#FFBEBC"/>
<path d="M25.061 2.5825H10.3474V1.91625C10.3474 0.86 9.49702 0 8.45118 0C7.40533 0 6.55493 0.859375 6.55493 1.91625V2.5825H4.61848C4.27708 2.5825 4 2.8625 4 3.2075V29.03C4 29.375 4.27708 29.655 4.61848 29.655H19.9505C20.1144 29.655 20.2721 29.5894 20.3878 29.4719L25.4983 24.3075C25.6145 24.19 25.6795 24.0312 25.6795 23.8656V3.2075C25.6795 2.8625 25.4024 2.5825 25.061 2.5825ZM7.7925 1.91625C7.7925 1.54875 8.08813 1.25 8.4518 1.25C8.81546 1.25 9.11109 1.54875 9.11109 1.91625V2.5825H7.7925V1.91625ZM5.23695 3.8325H9.11048V5.79C9.11048 6.1575 8.81484 6.45625 8.45118 6.45625C8.08752 6.45625 7.79188 6.1575 7.79188 5.79C7.79188 5.445 7.51481 5.165 7.17341 5.165C6.83201 5.165 6.55493 5.445 6.55493 5.79C6.55493 6.84625 7.40533 7.70625 8.45118 7.70625C9.49702 7.70625 10.3474 6.84688 10.3474 5.79V3.8325H24.4425V23.2406H19.9505C19.6091 23.2406 19.332 23.5206 19.332 23.8656V28.405H5.23695V3.8325ZM23.568 24.4906L20.569 27.5212V24.4906H23.568Z" fill="#020288"/>
<path d="M18.6728 7.70563H22.5061C22.8475 7.70563 23.1245 7.42563 23.1245 7.08063C23.1245 6.73563 22.8475 6.45563 22.5061 6.45563H18.6728C18.3314 6.45563 18.0543 6.73563 18.0543 7.08063C18.0543 7.42563 18.3314 7.70563 18.6728 7.70563Z" fill="#020288"/>
<path d="M7.17402 10.5031H22.5061C22.8475 10.5031 23.1245 10.2231 23.1245 9.87811C23.1245 9.53311 22.8475 9.25311 22.5061 9.25311H7.17402C6.83262 9.25311 6.55554 9.53311 6.55554 9.87811C6.55554 10.2231 6.83262 10.5031 7.17402 10.5031Z" fill="#020288"/>
<path d="M7.17402 13.3006H22.5061C22.8475 13.3006 23.1245 13.0206 23.1245 12.6756C23.1245 12.3306 22.8475 12.0506 22.5061 12.0506H7.17402C6.83262 12.0506 6.55554 12.3306 6.55554 12.6756C6.55554 13.0206 6.83262 13.3006 7.17402 13.3006Z" fill="#020288"/>
<path d="M7.17402 16.0981H14.84C15.1814 16.0981 15.4585 15.8181 15.4585 15.4731C15.4585 15.1281 15.1814 14.8481 14.84 14.8481H7.17402C6.83262 14.8481 6.55554 15.1281 6.55554 15.4731C6.55554 15.8181 6.83262 16.0981 7.17402 16.0981Z" fill="#020288"/>
<path d="M7.17402 18.8956H22.5061C22.8475 18.8956 23.1245 18.6156 23.1245 18.2706C23.1245 17.9256 22.8475 17.6456 22.5061 17.6456H7.17402C6.83262 17.6456 6.55554 17.9256 6.55554 18.2706C6.55554 18.6156 6.83262 18.8956 7.17402 18.8956Z" fill="#020288"/>
<path d="M7.17402 21.6931H22.5061C22.8475 21.6931 23.1245 21.4131 23.1245 21.0681C23.1245 20.7231 22.8475 20.4431 22.5061 20.4431H7.17402C6.83262 20.4431 6.55554 20.7231 6.55554 21.0681C6.55554 21.4131 6.83262 21.6931 7.17402 21.6931Z" fill="#020288"/>
<path d="M11.0067 23.2406H7.17402C6.83262 23.2406 6.55554 23.5206 6.55554 23.8656C6.55554 24.2106 6.83262 24.4906 7.17402 24.4906H11.0073C11.3487 24.4906 11.6258 24.2106 11.6258 23.8656C11.6258 23.5206 11.3487 23.2406 11.0073 23.2406H11.0067Z" fill="#020288"/>
</g>
<defs>
<clipPath id="clip0_589_896">
<rect width="32" height="32" fill="white"/>
</clipPath>
</defs>
</svg>
