<svg width="32" height="32" viewBox="0 0 32 32" fill="none" xmlns="http://www.w3.org/2000/svg">
<path d="M20.8175 26.9343C23.4781 24.3609 23.4781 20.1887 20.8175 17.6153C18.1569 15.0419 13.8433 15.0419 11.1827 17.6153C8.52212 20.1887 8.52212 24.3609 11.1827 26.9343C13.8433 29.5077 18.1569 29.5077 20.8175 26.9343Z" fill="#FFF59B"/>
<path d="M16.8812 21.6506C16.2806 21.4447 15.6151 21.1965 15.2414 20.9128C15.1174 20.8187 15.0666 20.6142 15.1089 20.3919C15.1526 20.1682 15.3091 19.8969 15.6151 19.8069C16.3257 19.5996 16.846 19.9951 16.8671 20.0128L16.8615 20.0073L17.6976 19.0541C17.6708 19.0323 17.2746 18.7131 16.6457 18.5672V18.2549C16.6457 17.9099 16.3567 17.6303 16 17.6303C15.6433 17.6303 15.3542 17.9099 15.3542 18.2549V18.5781C15.3176 18.5877 15.2795 18.5972 15.2429 18.6081C14.5224 18.8182 13.9852 19.4114 13.84 20.1587C13.706 20.8447 13.9373 21.5102 14.4448 21.8947C14.865 22.2138 15.4459 22.4839 16.4512 22.8275C17.1336 23.0607 17.1195 23.5953 17.0814 23.8149C17.0039 24.2567 16.619 24.7354 15.9563 24.7395C15.3119 24.7436 15.1103 24.7122 14.614 24.3985C14.3151 24.2104 13.9147 24.2908 13.7201 24.5799C13.5241 24.869 13.6087 25.2563 13.9076 25.4445C14.4561 25.7923 14.8551 25.9246 15.3557 25.9696V26.2914C15.3557 26.6364 15.6447 26.916 16.0014 26.916C16.3581 26.916 16.6472 26.6364 16.6472 26.2914V25.8946C17.6045 25.6245 18.2164 24.8172 18.3546 24.0222C18.5379 22.9666 17.9457 22.0134 16.8812 21.6493V21.6506Z" fill="#020288"/>
<path d="M26.7296 17.7285L22.5929 10.6153C23.4586 10.4257 24.1086 9.67705 24.1086 8.78244C24.1086 7.74601 23.2358 6.90185 22.1643 6.90185H19.6574C20.9855 5.86678 21.8372 4.28076 21.8372 2.50654V0.62459C21.8372 0.279565 21.5481 0 21.1914 0C19.7406 0 18.9792 0.368208 18.3067 0.69414C17.6835 0.995525 17.1449 1.256 16 1.256C14.8551 1.256 14.3165 0.995525 13.6933 0.69414C13.0222 0.368208 12.2594 0 10.81 0H10.8016C10.4491 0.0040912 10.1643 0.282293 10.1643 0.62459C10.1643 0.628681 10.1643 0.634136 10.1643 0.638227V2.50654C10.1643 4.28076 11.0159 5.86678 12.344 6.90185H9.83715C8.7656 6.90185 7.89284 7.74464 7.89284 8.78244C7.89284 9.67705 8.54283 10.4257 9.40853 10.6153L5.27177 17.7285C4.4399 19.1591 4 20.7819 4 22.4239C4 27.7042 8.44131 32 13.9006 32H18.1008C23.5601 32 28.0014 27.7042 28.0014 22.4239C28.0014 20.7833 27.5615 19.1591 26.7296 17.7285ZM11.4558 2.50791V1.28191C12.1833 1.36101 12.6232 1.57238 13.1153 1.81104C13.7878 2.13561 14.5492 2.50518 16 2.50518C17.4508 2.50518 18.2122 2.13697 18.8847 1.81104C19.3768 1.57238 19.8167 1.36101 20.5442 1.28191V2.50791C20.5442 4.51396 19.1484 6.20771 17.2464 6.73412L18.4998 4.71306C18.6831 4.41713 18.5844 4.03256 18.2785 3.85527C17.9725 3.67799 17.5749 3.77345 17.3916 4.06938L16 6.31409L14.607 4.06938C14.4237 3.77345 14.0261 3.67799 13.7201 3.85527C13.4142 4.03256 13.3155 4.41713 13.4988 4.71306L14.7522 6.73412C12.8502 6.20908 11.4544 4.51396 11.4544 2.50791H11.4558ZM9.18435 8.78381C9.18435 8.43605 9.47621 8.15376 9.83574 8.15376H15.9873C15.9873 8.15376 15.9944 8.15376 15.9986 8.15376C16.0014 8.15376 16.0071 8.15376 16.0099 8.15376H22.1614C22.521 8.15376 22.8128 8.43605 22.8128 8.78381C22.8128 9.13156 22.521 9.41385 22.1614 9.41385H16.0127C16.0127 9.41385 16.0028 9.41385 15.9972 9.41385C15.993 9.41385 15.9873 9.41385 15.9817 9.41385H9.83715C9.47762 9.41385 9.18576 9.13156 9.18576 8.78381H9.18435ZM18.0994 30.7508H13.8992C9.15333 30.7508 5.29151 27.0156 5.29151 22.4252C5.29151 20.9988 5.6736 19.5873 6.3969 18.3436L10.8622 10.6658H14.8579L13.4988 12.8573C13.3155 13.1532 13.4142 13.5378 13.7201 13.7151C14.0261 13.8924 14.4237 13.7969 14.607 13.501L16 11.2563L17.3916 13.501C17.5129 13.696 17.7272 13.8051 17.9457 13.8051C18.0585 13.8051 18.1741 13.7764 18.2771 13.7164C18.583 13.5391 18.6817 13.1546 18.4984 12.8586L17.1392 10.6671H21.135L25.6003 18.3449C26.3236 19.5887 26.7057 21.0001 26.7057 22.4266C26.7057 27.0169 22.8438 30.7522 18.098 30.7522L18.0994 30.7508Z" fill="#020288"/>
</svg>
