<svg width="32" height="32" viewBox="0 0 32 32" fill="none" xmlns="http://www.w3.org/2000/svg">
<g clip-path="url(#clip0_437_589)">
<path fill-rule="evenodd" clip-rule="evenodd" d="M9.21125 4.59625C6.1725 5.41063 4.42375 9.525 4.94813 14.6281C5.49375 14.0363 6.18063 13.6175 6.94 13.4138C7.69875 13.2106 8.50313 13.2294 9.27188 13.4694C8.22313 8.50688 8.19813 4.8675 9.21125 4.59625Z" fill="#FFBEBC"/>
<path fill-rule="evenodd" clip-rule="evenodd" d="M9.21124 4.59624C10.2244 4.32499 12.0225 7.48874 13.5956 12.3106C14.1412 11.7187 14.8281 11.3 15.5875 11.0962C16.3462 10.8931 17.1506 10.9119 17.9194 11.1519C15.8219 6.47124 12.2506 3.78187 9.21124 4.59624Z" fill="#FFBEBC"/>
<path d="M27.3156 18.86C28.6944 18.86 29.8156 17.7388 29.8156 16.36C29.8156 14.9813 28.6944 13.86 27.3156 13.86C25.9369 13.86 24.8156 14.9813 24.8156 16.36C24.8156 17.7388 25.9369 18.86 27.3156 18.86ZM27.3156 15.11C28.005 15.11 28.5656 15.6706 28.5656 16.36C28.5656 17.0494 28.005 17.61 27.3156 17.61C26.6262 17.61 26.0656 17.0494 26.0656 16.36C26.0656 15.6706 26.6262 15.11 27.3156 15.11Z" fill="#020288"/>
<path d="M27.3156 12.9225C27.6606 12.9225 27.9406 12.6425 27.9406 12.2975V11.6725C27.9406 11.3275 27.6606 11.0475 27.3156 11.0475C26.9706 11.0475 26.6906 11.3275 26.6906 11.6725V12.2975C26.6906 12.6425 26.9706 12.9225 27.3156 12.9225Z" fill="#020288"/>
<path d="M22.715 13.7037C22.5425 14.0025 22.645 14.385 22.9437 14.5575L23.485 14.87C23.5831 14.9269 23.6906 14.9537 23.7969 14.9537C24.0131 14.9537 24.2231 14.8419 24.3387 14.6412C24.5112 14.3425 24.4087 13.96 24.11 13.7875L23.5687 13.475C23.27 13.3025 22.8875 13.405 22.715 13.7037Z" fill="#020288"/>
<path d="M23.485 17.85L22.9437 18.1625C22.645 18.335 22.5425 18.7175 22.715 19.0162C22.8306 19.2169 23.0406 19.3287 23.2569 19.3287C23.3631 19.3287 23.4706 19.3019 23.5687 19.245L24.11 18.9325C24.4087 18.76 24.5112 18.3775 24.3387 18.0787C24.1662 17.78 23.7837 17.6775 23.485 17.85Z" fill="#020288"/>
<path d="M26.6906 20.4225V21.0475C26.6906 21.3925 26.9706 21.6725 27.3156 21.6725C27.6606 21.6725 27.9406 21.3925 27.9406 21.0475V20.4225C27.9406 20.0775 27.6606 19.7975 27.3156 19.7975C26.9706 19.7975 26.6906 20.0775 26.6906 20.4225Z" fill="#020288"/>
<path d="M30.5213 18.9325L31.0625 19.245C31.1606 19.3019 31.2681 19.3287 31.3744 19.3287C31.5906 19.3287 31.8006 19.2169 31.9163 19.0162C32.0888 18.7175 31.9863 18.335 31.6875 18.1625L31.1463 17.85C30.8475 17.6775 30.465 17.78 30.2925 18.0787C30.12 18.3775 30.2225 18.76 30.5213 18.9325Z" fill="#020288"/>
<path d="M30.8344 14.9537C30.9406 14.9537 31.0481 14.9269 31.1463 14.87L31.6875 14.5575C31.9863 14.385 32.0888 14.0025 31.9163 13.7037C31.7438 13.405 31.3613 13.3025 31.0625 13.475L30.5213 13.7875C30.2225 13.96 30.12 14.3425 30.2925 14.6412C30.4081 14.8419 30.6181 14.9537 30.8344 14.9537Z" fill="#020288"/>
<path d="M31.375 28.1725H28.6462C26.4825 26.0556 23.9687 24.3938 21.1681 23.2338C18.9919 22.3319 16.7231 21.7669 14.3994 21.5444L12.0437 12.7525C12.4981 12.7163 12.9612 12.7675 13.4094 12.9075C13.64 12.9794 13.8912 12.9119 14.055 12.7344C14.52 12.23 15.1056 11.8725 15.7487 11.7C16.3919 11.5275 17.0781 11.5444 17.7325 11.7488C17.9631 11.8206 18.2144 11.7531 18.3781 11.5756C18.8425 11.0719 19.4287 10.7138 20.0719 10.5413C20.715 10.3688 21.4012 10.3856 22.0556 10.59C22.3012 10.6669 22.5687 10.585 22.73 10.3838C22.8906 10.1825 22.9119 9.90376 22.7831 9.68064C20.1306 5.08564 14.8025 2.74689 9.6575 3.84689L9.4375 3.02626C9.34812 2.69251 9.00562 2.49501 8.67187 2.58439C8.33875 2.67376 8.14062 3.01626 8.23 3.35001L8.45 4.17126C3.44437 5.79001 -2.78442e-06 10.4794 -2.78442e-06 15.7863C-2.78442e-06 16.0438 0.157497 16.275 0.397497 16.3681C0.471247 16.3969 0.548747 16.4113 0.624997 16.4113C0.796247 16.4113 0.963747 16.3406 1.08437 16.21C1.54937 15.7056 2.135 15.3481 2.77812 15.1756C3.42125 15.0031 4.1075 15.02 4.76187 15.2244C4.9925 15.2963 5.24375 15.2288 5.4075 15.0513C5.8725 14.5469 6.45812 14.1894 7.10125 14.0169C7.74437 13.8444 8.43062 13.8613 9.085 14.0656C9.31562 14.1375 9.56687 14.07 9.73062 13.8925C10.0487 13.5475 10.4244 13.2706 10.8356 13.0756L13.0812 21.4556C12.7637 21.4431 12.445 21.435 12.1256 21.435C7.98375 21.435 3.89875 22.5294 0.311872 24.6006C0.0131222 24.7731 -0.0893778 25.1556 0.0831222 25.4544C0.255622 25.7531 0.638122 25.8556 0.936872 25.6831C4.33375 23.7219 8.20312 22.685 12.1256 22.685C12.5594 22.685 12.9912 22.6988 13.4206 22.7231L13.9719 24.7806C14.0469 25.06 14.2994 25.2444 14.575 25.2444C14.6287 25.2444 14.6831 25.2375 14.7369 25.2231C15.07 25.1338 15.2681 24.7913 15.1787 24.4575L14.7444 22.8375C19.2175 23.3556 23.3912 25.1981 26.8044 28.1725H0.624997C0.279997 28.1725 -2.78442e-06 28.4525 -2.78442e-06 28.7975C-2.78442e-06 29.1425 0.279997 29.4225 0.624997 29.4225H31.375C31.72 29.4225 32 29.1425 32 28.7975C32 28.4525 31.72 28.1725 31.375 28.1725ZM9.085 12.7719C8.31812 12.5969 7.52812 12.6088 6.77812 12.81C6.02812 13.0113 5.3375 13.3956 4.76125 13.9306C3.99437 13.7556 3.20437 13.7675 2.45437 13.9688C2.06187 14.0738 1.68562 14.2294 1.33375 14.4306C1.88 10.0563 5.0325 6.36314 9.37312 5.20001C10.3125 4.94814 11.2619 4.82689 12.2012 4.82689C15.6037 4.82689 18.8656 6.41939 20.95 9.17376C20.545 9.17564 20.1412 9.22939 19.7487 9.33439C18.9987 9.53564 18.3081 9.92001 17.7319 10.455C16.965 10.28 16.175 10.2919 15.425 10.4931C14.675 10.6938 13.9844 11.0788 13.4081 11.6138C12.6419 11.4388 11.8519 11.4506 11.1019 11.6519H11.1012C10.3512 11.8531 9.66125 12.2375 9.085 12.7725V12.7719Z" fill="#020288"/>
</g>
<defs>
<clipPath id="clip0_437_589">
<rect width="32" height="32" fill="white"/>
</clipPath>
</defs>
</svg>
