<svg width="32" height="32" viewBox="0 0 32 32" fill="none" xmlns="http://www.w3.org/2000/svg">
<path fill-rule="evenodd" clip-rule="evenodd" d="M15.6024 1.51031H9.13061C6.40761 1.51031 4.18068 3.77584 4.18068 6.54606V11.5818C4.46412 11.2556 4.88049 11.0483 5.3393 11.0483H6.31368C8.46443 10.6825 8.31211 8.82421 8.59911 7.15887C13.053 11.0483 16.1109 7.91944 18.4175 11.0483H19.3937C19.8526 11.0483 20.2672 11.2555 20.5524 11.5818V6.54606C20.5524 3.77584 18.3237 1.51031 15.6024 1.51031Z" fill="#B2F0FB"/>
<path d="M10.0218 11.9897C9.67668 11.9897 9.3968 12.2751 9.3968 12.6271V13.4093C9.3968 13.7614 9.67668 14.0468 10.0218 14.0468C10.3669 14.0468 10.6468 13.7614 10.6468 13.4093V12.6271C10.6468 12.2751 10.3669 11.9897 10.0218 11.9897ZM14.7113 14.0468C15.0564 14.0468 15.3363 13.7614 15.3363 13.4093V12.6271C15.3363 12.2751 15.0564 11.9897 14.7113 11.9897C14.3662 11.9897 14.0863 12.2751 14.0863 12.6271V13.4093C14.0863 13.7614 14.3661 14.0468 14.7113 14.0468Z" fill="#020288"/>
<path d="M21.4877 23.41C19.7279 22.3463 17.5436 21.8825 15.9486 21.5439C15.7367 21.4988 15.5311 21.4552 15.3363 21.4123V20.2841C17.3539 19.2598 18.7928 17.2266 19.0124 14.8381H19.3938C20.5922 14.8381 21.5672 13.8455 21.5672 12.6254C21.5672 11.4043 20.5922 10.4109 19.3938 10.4109H18.7174C17.49 8.93162 16.0741 8.85035 14.5794 8.76563C12.9857 8.6753 11.1794 8.57292 9.00562 6.67464C8.92187 6.60145 8.82063 6.55217 8.71217 6.5318C8.6037 6.51144 8.49189 6.52071 8.38808 6.55869C8.28427 6.59666 8.19217 6.66198 8.12112 6.74801C8.05007 6.83405 8.00261 6.93772 7.98356 7.04852C7.93612 7.32346 7.90056 7.6 7.86618 7.86748C7.67231 9.37435 7.51037 10.179 6.25662 10.4109H5.33937C4.14093 10.4109 3.166 11.4043 3.166 12.6254C3.166 13.8456 4.141 14.8381 5.33937 14.8381H5.71893C5.93856 17.2273 7.37831 19.261 9.3968 20.285V21.4123C9.20199 21.4552 8.99643 21.4988 8.78443 21.5439C7.18949 21.8825 5.00518 22.3463 3.24543 23.41C1.09194 24.7117 0 26.6487 0 29.1672V31.3625C0 31.7146 0.279875 32 0.624999 32H24.108C24.4532 32 24.733 31.7146 24.733 31.3625V29.1672C24.733 26.6487 23.6412 24.7117 21.4877 23.41ZM19.0426 11.6858H19.3938C19.9029 11.6858 20.3172 12.1073 20.3172 12.6254C20.3172 13.1424 19.9029 13.5631 19.3938 13.5631H19.0426V11.6858ZM5.68875 13.5631H5.33937C4.83025 13.5631 4.416 13.1424 4.416 12.6254C4.416 12.1073 4.83025 11.6858 5.33937 11.6858H5.68875V13.5631ZM6.93874 14.2006V11.5532C8.59137 11.0365 8.89431 9.60212 9.06599 8.3359C11.1856 9.85029 13.0094 9.9535 14.5101 10.0385C15.8877 10.1166 16.9003 10.174 17.7926 11.2694V14.2006C17.7926 17.2439 15.3581 19.7199 12.3657 19.7199C9.37324 19.7199 6.93874 17.2439 6.93874 14.2006ZM14.0968 22.037C14.09 22.0745 14.0865 22.1126 14.0863 22.1507C14.0863 23.114 13.3144 23.8977 12.3657 23.8977C11.4179 23.8977 10.6468 23.114 10.6468 22.1507C10.6467 22.1126 10.6431 22.0745 10.6363 22.037C10.6432 21.999 10.6467 21.9605 10.6468 21.9218V20.7662C11.2076 20.9183 11.7854 20.9951 12.3657 20.9949C12.9604 20.9949 13.5371 20.9149 14.0863 20.7657V21.9218C14.0863 21.961 14.0901 21.9995 14.0968 22.037ZM23.483 30.725H19.6679V28.6031C19.6679 28.251 19.388 27.9656 19.0429 27.9656C18.6978 27.9656 18.4179 28.251 18.4179 28.6031V30.725H6.31512V28.6031C6.31512 28.251 6.03524 27.9656 5.69012 27.9656C5.345 27.9656 5.06512 28.251 5.06512 28.6031V30.725H1.25V29.1672C1.25 27.102 2.11112 25.5776 3.88275 24.5068C5.4635 23.5513 7.44618 23.1303 9.03918 22.792C9.17837 22.7625 9.31462 22.7335 9.44768 22.7048C9.70418 24.1073 10.9146 25.1727 12.3657 25.1727C13.8176 25.1727 15.0287 24.1073 15.2854 22.7048C15.4184 22.7335 15.5547 22.7625 15.6939 22.792C17.2869 23.1303 19.2696 23.5513 20.8504 24.5068C22.622 25.5776 23.4831 27.102 23.4831 29.1672V30.725H23.483ZM25.311 10.4739C24.9659 10.4739 24.686 10.7593 24.686 11.1113V11.115C24.686 11.4671 24.9659 11.7507 25.311 11.7507C25.6562 11.7507 25.936 11.4635 25.936 11.1114C25.936 10.7593 25.6562 10.4739 25.311 10.4739ZM27.4696 5.11161C28.036 4.50352 28.3248 3.70712 28.2827 2.86839C28.2019 1.29229 26.9231 0.0326388 25.3717 0.000637461C25.351 0.000191227 25.3304 0 25.3097 0C23.8293 0 22.5689 1.11017 22.365 2.60091C22.3447 2.74228 22.3347 2.885 22.3351 3.02789C22.3351 3.37997 22.615 3.66536 22.9601 3.66536C23.3052 3.66536 23.5851 3.37997 23.5851 3.02789C23.5851 2.94189 23.5904 2.86342 23.6022 2.78252C23.7221 1.90504 24.4707 1.25672 25.3462 1.27534C26.246 1.29389 26.9876 2.02291 27.0343 2.93431C27.0587 3.41987 26.8915 3.88121 26.5634 4.23342C26.2339 4.58722 25.789 4.78203 25.311 4.78203C24.9659 4.78203 24.686 5.06743 24.686 5.41951V7.91931C24.686 8.27139 24.9659 8.55679 25.311 8.55679C25.6562 8.55679 25.936 8.27139 25.936 7.91931V5.98865C26.517 5.86045 27.0555 5.55618 27.4696 5.11161ZM29.0244 22.6991C28.6793 22.6991 28.3994 22.9845 28.3994 23.3366V23.342C28.3994 23.6941 28.6793 23.9768 29.0244 23.9768C29.3695 23.9768 29.6494 23.6887 29.6494 23.3367C29.6494 22.9847 29.3695 22.6991 29.0244 22.6991ZM31.996 15.0937C31.9152 13.5176 30.6365 12.2579 29.0851 12.2259C27.5759 12.1927 26.285 13.3147 26.0768 14.8367C26.0577 14.9847 26.0485 15.121 26.0485 15.2532C26.0485 15.6052 26.3284 15.8906 26.6735 15.8906C27.0186 15.8906 27.2985 15.6052 27.2985 15.2532C27.2985 15.177 27.3043 15.0951 27.3155 15.0078C27.4355 14.1302 28.1851 13.4813 29.0596 13.5006C29.9594 13.5192 30.7009 14.2482 30.7476 15.1596C30.772 15.6451 30.6048 16.1066 30.2767 16.4587C29.9472 16.8125 29.5024 17.0073 29.0244 17.0073C28.6793 17.0073 28.3994 17.2927 28.3994 17.6448V20.1447C28.3994 20.4967 28.6793 20.7821 29.0244 20.7821C29.3695 20.7821 29.6494 20.4967 29.6494 20.1447V18.2139C30.2304 18.0857 30.7688 17.7814 31.1829 17.3369C31.7493 16.7288 32.038 15.9324 31.996 15.0937Z" fill="#020288"/>
</svg>
