<svg width="32" height="32" viewBox="0 0 32 32" fill="none" xmlns="http://www.w3.org/2000/svg">
<path d="M14.1463 19.3772H6.09439V13.9482H14.1463V19.3772ZM25.9056 19.3772H17.8538V13.9482H25.9056V19.3772ZM29.0319 31H24.2569V28.2135H29.0319V31ZM7.74314 31H2.96814V28.2135H7.74314V31Z" fill="#B2F0FB"/>
<path d="M31.375 24.2613V21.662C31.375 20.5234 30.7194 19.5363 29.7669 19.0577V13.6049C29.7669 11.761 28.27 10.2609 26.43 10.2609H5.57061C3.73061 10.2609 2.23374 11.761 2.23374 13.6049V19.0577C1.28124 19.5363 0.62561 20.5234 0.62561 21.662V24.2613C0.28061 24.2613 0.000610352 24.5419 0.000610352 24.8876V28.2141C0.000610352 28.5598 0.28061 28.8404 0.62561 28.8404H31.375C31.72 28.8404 32 28.5598 32 28.2141V24.8876C32 24.5419 31.72 24.2613 31.375 24.2613ZM3.48311 18.7508V13.6049C3.48311 12.4518 4.41936 11.5136 5.56999 11.5136H26.4294C27.58 11.5136 28.5162 12.4518 28.5162 13.6049V18.7508H3.48311ZM1.87499 21.662C1.87499 20.7482 2.61624 20.0048 3.52749 20.0035H28.4719C29.3837 20.0048 30.125 20.7482 30.125 21.662V24.2607H1.87499V21.662ZM30.75 27.5871H1.24999V25.5133H30.75V27.5871Z" fill="#020288"/>
<path d="M14.6406 8.75774H12.2569C12.0275 8.75774 11.8169 8.63185 11.7075 8.42955C11.5981 8.22724 11.6081 7.98172 11.7331 7.78944L13.4319 5.17701H12.33C11.985 5.17701 11.705 4.89641 11.705 4.55068C11.705 4.20494 11.985 3.92435 12.33 3.92435H14.585C14.8144 3.92435 15.025 4.05024 15.1344 4.25254C15.2437 4.45485 15.2337 4.70037 15.1087 4.89265L13.41 7.50508H14.6406C14.9856 7.50508 15.2656 7.78568 15.2656 8.13141C15.2656 8.47715 14.9856 8.75774 14.6406 8.75774Z" fill="#020288"/>
<path d="M19.7431 7.10986H16.26C16.0275 7.10986 15.8144 6.98083 15.7069 6.77477C15.5994 6.56871 15.6137 6.31943 15.7456 6.12777L18.4125 2.25266H16.3481C16.0031 2.25266 15.7231 1.97207 15.7231 1.62633C15.7231 1.2806 16.0031 1 16.3481 1H19.6025C19.835 1 20.0481 1.12902 20.1556 1.33509C20.2631 1.54115 20.2487 1.79043 20.1169 1.98209L17.45 5.8572H19.7431C20.0881 5.8572 20.3681 6.13779 20.3681 6.48353C20.3681 6.82926 20.0881 7.10986 19.7431 7.10986Z" fill="#020288"/>
</svg>
