<svg width="32" height="32" viewBox="0 0 32 32" fill="none" xmlns="http://www.w3.org/2000/svg">
<path fill-rule="evenodd" clip-rule="evenodd" d="M26.3572 12.5485C26.3572 12.2033 26.637 11.9235 26.9822 11.9235H30.1199C30.4651 11.9235 30.7449 12.2033 30.7449 12.5485V27.6097C30.7449 27.9549 30.4651 28.2347 30.1199 28.2347H26.9822C26.637 28.2347 26.3572 27.9549 26.3572 27.6097V12.5485ZM27.6072 13.1735V26.9847H29.4949V13.1735H27.6072Z" fill="#020288"/>
<path d="M4.39038 6.27295H21.9618V28.8648H4.39038V6.27295Z" fill="#E2C4FF"/>
<path fill-rule="evenodd" clip-rule="evenodd" d="M26.3573 9.72451C26.3573 8.5129 27.3396 7.53064 28.5512 7.53064C29.7628 7.53064 30.745 8.5129 30.745 9.72451V27.6097C30.745 27.6922 30.7287 27.7739 30.697 27.8501L29.1281 31.6154C29.0311 31.8483 28.8035 32 28.5512 32C28.2989 32 28.0713 31.8483 27.9742 31.6154L26.4054 27.8501C26.3736 27.7739 26.3573 27.6922 26.3573 27.6097V9.72451ZM28.5512 8.78064C28.0299 8.78064 27.6073 9.20326 27.6073 9.72451V27.4847L28.5512 29.75L29.495 27.4847V9.72451C29.495 9.20325 29.0724 8.78064 28.5512 8.78064ZM11.9236 10.3471C11.9236 9.30871 12.7654 8.46695 13.8037 8.46695H18.1966C19.235 8.46695 20.0767 9.30871 20.0767 10.3471C20.0767 11.3854 19.235 12.2272 18.1966 12.2272H13.8037C12.7654 12.2272 11.9236 11.3854 11.9236 10.3471ZM13.8037 9.71695C13.4557 9.71695 13.1736 9.99907 13.1736 10.3471C13.1736 10.6951 13.4557 10.9772 13.8037 10.9772H18.1966C18.5446 10.9772 18.8267 10.6951 18.8267 10.3471C18.8267 9.99907 18.5446 9.71695 18.1966 9.71695H13.8037ZM10.45 8.62166C10.7098 8.84896 10.7361 9.24381 10.5088 9.50358L8.31234 12.0138C8.18824 12.1556 8.00677 12.2339 7.81845 12.2268C7.63013 12.2197 7.45506 12.128 7.34199 11.9772L6.40067 10.7221C6.19357 10.446 6.24953 10.0543 6.52567 9.84714C6.80181 9.64003 7.19356 9.69599 7.40067 9.97214L7.87936 10.6104L9.56806 8.68045C9.79537 8.42067 10.1902 8.39435 10.45 8.62166ZM6.27567 14.1124C6.27567 13.7672 6.55549 13.4874 6.90067 13.4874H10.0384C10.3836 13.4874 10.6634 13.7672 10.6634 14.1124V16.6226C10.6634 16.9678 10.3836 17.2476 10.0384 17.2476H6.90067C6.55549 17.2476 6.27567 16.9678 6.27567 16.6226V14.1124ZM7.52567 14.7374V15.9976H9.41342V14.7374H7.52567ZM11.9236 15.3675C11.9236 14.3291 12.7654 13.4874 13.8037 13.4874H18.1966C19.235 13.4874 20.0767 14.3291 20.0767 15.3675C20.0767 16.4059 19.235 17.2476 18.1966 17.2476H13.8037C12.7654 17.2476 11.9236 16.4059 11.9236 15.3675ZM13.8037 14.7374C13.4557 14.7374 13.1736 15.0195 13.1736 15.3675C13.1736 15.7155 13.4557 15.9976 13.8037 15.9976H18.1966C18.5446 15.9976 18.8267 15.7155 18.8267 15.3675C18.8267 15.0195 18.5446 14.7374 18.1966 14.7374H13.8037ZM11.9236 20.3879C11.9236 19.3495 12.7654 18.5078 13.8037 18.5078H18.1966C19.235 18.5078 20.0767 19.3495 20.0767 20.3879C20.0767 21.4263 19.235 22.268 18.1966 22.268H13.8037C12.7654 22.268 11.9236 21.4263 11.9236 20.3879ZM13.8037 19.7578C13.4557 19.7578 13.1736 20.0399 13.1736 20.3879C13.1736 20.7359 13.4557 21.018 13.8037 21.018H18.1966C18.5446 21.018 18.8267 20.7359 18.8267 20.3879C18.8267 20.0399 18.5446 19.7578 18.1966 19.7578H13.8037ZM10.45 18.6625C10.7098 18.8898 10.7361 19.2846 10.5088 19.5444L8.31234 22.0546C8.18824 22.1964 8.00677 22.2747 7.81845 22.2676C7.63013 22.2605 7.45506 22.1688 7.34199 22.018L6.40067 20.763C6.19357 20.4868 6.24953 20.0951 6.52567 19.888C6.80181 19.6808 7.19356 19.7368 7.40067 20.0129L7.87936 20.6512L9.56806 18.7213C9.79537 18.4615 10.1902 18.4352 10.45 18.6625ZM11.9236 25.4083C11.9236 24.37 12.7654 23.5282 13.8037 23.5282H18.1966C19.235 23.5282 20.0767 24.37 20.0767 25.4083C20.0767 26.4467 19.235 27.2885 18.1966 27.2885H13.8037C12.7654 27.2885 11.9236 26.4467 11.9236 25.4083ZM13.8037 24.7782C13.4557 24.7782 13.1736 25.0603 13.1736 25.4083C13.1736 25.7563 13.4557 26.0385 13.8037 26.0385H18.1966C18.5446 26.0385 18.8267 25.7563 18.8267 25.4083C18.8267 25.0603 18.5446 24.7782 18.1966 24.7782H13.8037ZM6.27567 24.1533C6.27567 23.8081 6.55549 23.5283 6.90067 23.5283H10.0384C10.3836 23.5283 10.6634 23.8081 10.6634 24.1533V26.6635C10.6634 27.0086 10.3836 27.2885 10.0384 27.2885H6.90067C6.55549 27.2885 6.27567 27.0086 6.27567 26.6635V24.1533ZM7.52567 24.7783V26.0385H9.41342V24.7783H7.52567Z" fill="#020288"/>
<path fill-rule="evenodd" clip-rule="evenodd" d="M3.76281 4.3877C3.06817 4.3877 2.50513 4.95076 2.50513 5.64532V29.4923C2.50513 30.1868 3.06821 30.7499 3.76281 30.7499H22.5894C23.2839 30.7499 23.847 30.1868 23.847 29.4923V5.64532C23.847 4.95075 23.2839 4.3877 22.5894 4.3877H18.8241C18.4789 4.3877 18.1991 4.10787 18.1991 3.7627C18.1991 3.41752 18.4789 3.1377 18.8241 3.1377H22.5894C23.9743 3.1377 25.097 4.26039 25.097 5.64532V29.4923C25.097 30.8772 23.9743 31.9999 22.5894 31.9999H3.76281C2.37791 31.9999 1.25513 30.8772 1.25513 29.4923V5.64532C1.25513 4.26038 2.37784 3.1377 3.76281 3.1377H7.52813C7.8733 3.1377 8.15313 3.41752 8.15313 3.7627C8.15313 4.10787 7.8733 4.3877 7.52813 4.3877H3.76281Z" fill="#020288"/>
<path fill-rule="evenodd" clip-rule="evenodd" d="M9.41326 0.625C9.41326 0.279822 9.69309 0 10.0383 0H16.3138C16.6589 0 16.9388 0.279822 16.9388 0.625C16.9388 1.31954 17.5019 1.88263 18.1965 1.88263H18.824C19.1692 1.88263 19.449 2.16245 19.449 2.50763V6.27294C19.449 6.61812 19.1692 6.89794 18.824 6.89794H7.52808C7.1829 6.89794 6.90308 6.61812 6.90308 6.27294V2.50763C6.90308 2.16245 7.1829 1.88263 7.52808 1.88263H8.15564C8.85021 1.88263 9.41326 1.31957 9.41326 0.625ZM10.5848 1.25C10.307 2.33253 9.32478 3.13263 8.15564 3.13263H8.15308V5.64794H18.199V3.13263H18.1965C17.0273 3.13263 16.045 2.33254 15.7673 1.25H10.5848Z" fill="#020288"/>
</svg>
