<svg width="32" height="32" viewBox="0 0 32 32" fill="none" xmlns="http://www.w3.org/2000/svg">
<mask id="mask0_3124_96" style="mask-type:luminance" maskUnits="userSpaceOnUse" x="0" y="0" width="32" height="32">
<path d="M32 0H0V32H32V0Z" fill="white"/>
</mask>
<g mask="url(#mask0_3124_96)">
<path d="M23.7 19.44C23.0387 19.44 22.5031 18.9044 22.5031 18.2431C22.5031 17.5819 23.0387 17.0462 23.7 17.0462C24.3612 17.0462 24.8969 17.5819 24.8969 18.2431C24.8969 18.9044 24.3612 19.44 23.7 19.44ZM28.1681 15.0319C26.7669 15.0319 25.6306 13.8956 25.6306 12.4944H18.5762V23.9919H25.6306C25.6306 22.5906 26.7662 21.4544 28.1675 21.4544C28.1844 21.4544 28.2006 21.4544 28.2175 21.4544V15.0306C28.2006 15.0306 28.1844 15.0306 28.1675 15.0306" fill="#FCA4D4"/>
<path d="M29.4231 27.3669H18.5762C18.2312 27.3669 17.9512 27.0869 17.9512 26.7419V9.745C17.9512 9.4 18.2312 9.12 18.5762 9.12H29.4231C30.6194 9.12 31.5925 10.0931 31.5925 11.2894V25.1975C31.5925 26.3937 30.6194 27.3669 29.4231 27.3669ZM19.2012 26.1169H29.4231C29.93 26.1169 30.3425 25.7044 30.3425 25.1975V11.2894C30.3425 10.7825 29.93 10.37 29.4231 10.37H19.2012V26.1175V26.1169Z" fill="#020288"/>
<path d="M15.1625 32H4.44625C2.21938 32 0.407501 30.1881 0.407501 27.9613V4.03875C0.407501 1.81188 2.21938 0 4.44625 0H15.1619C17.3894 0 19.2006 1.81188 19.2006 4.03875V27.9613C19.2006 30.1881 17.3888 32 15.1619 32H15.1625ZM4.44625 1.25C2.90875 1.25 1.6575 2.50125 1.6575 4.03875V27.9613C1.6575 29.4988 2.90875 30.75 4.44625 30.75H15.1619C16.6994 30.75 17.9506 29.4988 17.9506 27.9613V4.03875C17.9506 2.50125 16.6994 1.25 15.1619 1.25H4.44625Z" fill="#020288"/>
<path d="M18.5075 27.3669H1.10125C0.75625 27.3669 0.47625 27.0869 0.47625 26.7419C0.47625 26.3969 0.75625 26.1169 1.10125 26.1169H18.5075C18.8525 26.1169 19.1325 26.3969 19.1325 26.7419C19.1325 27.0869 18.8525 27.3669 18.5075 27.3669Z" fill="#020288"/>
<path d="M9.80437 29.7013C9.64 29.7013 9.47875 29.6344 9.3625 29.5175C9.33375 29.4888 9.3075 29.4569 9.285 29.4231C9.2625 29.3888 9.24312 29.3525 9.2275 29.315C9.21187 29.2775 9.2 29.2381 9.19188 29.1981C9.18375 29.1575 9.17937 29.1169 9.17937 29.0756C9.17937 29.0344 9.18375 28.9938 9.19188 28.9538C9.2 28.9138 9.21187 28.8744 9.2275 28.8369C9.24312 28.7994 9.2625 28.7631 9.285 28.7288C9.3075 28.695 9.33375 28.6625 9.3625 28.6338C9.39125 28.605 9.42313 28.5788 9.4575 28.5563C9.49125 28.5338 9.5275 28.5144 9.56563 28.4988C9.60313 28.4831 9.6425 28.4713 9.6825 28.4631C9.76312 28.4469 9.84625 28.4469 9.92688 28.4631C9.96688 28.4713 10.0056 28.4831 10.0437 28.4988C10.0812 28.5144 10.1175 28.5338 10.1512 28.5563C10.1856 28.5788 10.2175 28.605 10.2463 28.6338C10.275 28.6625 10.3013 28.695 10.3244 28.7288C10.3469 28.7631 10.3663 28.7994 10.3819 28.8369C10.3975 28.8744 10.4094 28.9138 10.4175 28.9538C10.4256 28.9938 10.4294 29.035 10.4294 29.0756C10.4294 29.1163 10.4256 29.1575 10.4175 29.1981C10.4094 29.2381 10.3975 29.2775 10.3819 29.315C10.3663 29.3525 10.3469 29.3888 10.3244 29.4231C10.3013 29.4569 10.275 29.4888 10.2463 29.5175C10.2175 29.5469 10.1856 29.5725 10.1512 29.5956C10.1175 29.6181 10.0812 29.6375 10.0437 29.6531C10.0056 29.6688 9.96688 29.6806 9.92688 29.6888C9.88625 29.6969 9.845 29.7013 9.80437 29.7013Z" fill="#020288"/>
<path d="M13.5144 3.59187H12.9894C12.6444 3.59187 12.3644 3.31187 12.3644 2.96687C12.3644 2.62187 12.6444 2.34187 12.9894 2.34187H13.5144C13.8594 2.34187 14.1394 2.62187 14.1394 2.96687C14.1394 3.31187 13.8594 3.59187 13.5144 3.59187Z" fill="#020288"/>
<path d="M10.3481 3.59187H6.09438C5.74938 3.59187 5.46938 3.31187 5.46938 2.96687C5.46938 2.62187 5.74938 2.34187 6.09438 2.34187H10.3481C10.6931 2.34187 10.9731 2.62187 10.9731 2.96687C10.9731 3.31187 10.6931 3.59187 10.3481 3.59187Z" fill="#020288"/>
<path d="M21.1594 3.01188V6.05688H25.5938V7.54626L30.3069 4.53438L25.5938 1.52251V3.01188H21.1594Z" fill="#FCA4D4"/>
<path d="M9.86875 19.2969C9.08813 19.2969 8.095 19.0444 7.5 18.3069C7.28313 18.0381 7.325 17.645 7.59375 17.4281C7.8625 17.2112 8.25563 17.2537 8.4725 17.5219C8.81188 17.9425 9.53063 18.0844 10.0544 18.0394C10.6019 17.9919 10.9431 17.7469 10.9913 17.3681C11.0381 16.9981 10.7981 16.4975 10.1606 16.2725C9.46313 16.0262 8.9 15.8106 8.65563 15.6956C7.895 15.3375 7.47625 14.6537 7.53438 13.8662C7.59313 13.0706 8.14625 12.3606 8.87813 12.1406C10.2113 11.74 11.2631 12.2081 11.7144 12.85C11.9131 13.1325 11.845 13.5225 11.5625 13.7206C11.28 13.9187 10.89 13.8512 10.6919 13.5687C10.5363 13.3469 10.02 13.1025 9.23813 13.3375C8.99813 13.4094 8.80188 13.6762 8.78063 13.9581C8.76125 14.2237 8.8975 14.4275 9.1875 14.5637C9.34125 14.6362 9.7975 14.8181 10.5763 15.0931C11.6825 15.4837 12.3631 16.4831 12.2313 17.5244C12.1081 18.4944 11.2963 19.185 10.1631 19.2837C10.0694 19.2919 9.97063 19.2962 9.86813 19.2962L9.86875 19.2969Z" fill="#020288"/>
<path d="M9.72188 19.8713C9.37688 19.8713 9.09688 19.5913 9.09688 19.2463V11.9694C9.09688 11.6244 9.37688 11.3444 9.72188 11.3444C10.0669 11.3444 10.3469 11.6244 10.3469 11.9694V19.2463C10.3469 19.5913 10.0669 19.8713 9.72188 19.8713Z" fill="#020288"/>
<path d="M15.4094 23.125H4.19875C3.85375 23.125 3.57375 22.845 3.57375 22.5V8.71562C3.57375 8.37062 3.85375 8.09062 4.19875 8.09062H15.4094C15.7544 8.09062 16.0344 8.37062 16.0344 8.71562V22.5C16.0344 22.845 15.7544 23.125 15.4094 23.125ZM4.82375 21.875H14.7844V9.34062H4.82375V21.875Z" fill="#020288"/>
</g>
</svg>
