<svg width="32" height="32" viewBox="0 0 32 32" fill="none" xmlns="http://www.w3.org/2000/svg">
<path fill-rule="evenodd" clip-rule="evenodd" d="M11 5.625V22.285L14.7844 19.4237C15.1488 19.1488 15.5763 19.0163 16 19.0163C16.4237 19.0163 16.8512 19.1488 17.2156 19.4237L21 22.285V5.625C19.6194 5.625 18.5 4.50563 18.5 3.125H13.5C13.5 4.50563 12.3806 5.625 11 5.625Z" fill="#A4FBC4"/>
<path d="M28.0725 13.7631L26.625 12.6687V3.125C26.625 2.78 26.345 2.5 26 2.5H24.125V0.625C24.125 0.28 23.845 0 23.5 0H8.5C8.155 0 7.875 0.28 7.875 0.625V2.5H6C5.655 2.5 5.375 2.78 5.375 3.125V12.6687L3.9275 13.7631C3.26063 14.2675 2.875 14.7737 2.875 15.8687V29.8994C2.875 31.0575 3.8175 32 4.97563 32H27.0244C28.1825 32 29.125 31.0575 29.125 29.8994V15.8687C29.125 14.7737 28.7394 14.2675 28.0725 13.7638V13.7631ZM27.875 18.7831V26.6987L22.6406 22.7406L27.875 18.7825V18.7831ZM27.3188 14.76C27.7631 15.0963 27.875 15.2612 27.875 15.8681V17.2162L26.625 18.1612V14.2356L27.3188 14.76ZM25.375 3.74938V19.1063L24.125 20.0513V3.75H25.375V3.74938ZM22.875 1.24937V20.9969L21.6044 21.9575L17.5925 18.9244C17.13 18.575 16.58 18.3906 16.0025 18.3906H15.9987C15.4206 18.3906 14.87 18.575 14.4075 18.9244L10.3962 21.9575L9.125 20.9963V1.25H22.875V1.24937ZM4.125 18.7838L9.36 22.7419L4.125 26.7V18.7844V18.7838ZM7.875 3.75V20.0519L6.625 19.1069V3.75H7.875ZM4.68125 14.7606L5.375 14.2362V18.1619L4.125 17.2169V15.8687C4.125 15.2619 4.23687 15.0969 4.68125 14.7606ZM27.0244 30.75H4.97563C4.50688 30.75 4.125 30.3681 4.125 29.8994V28.2663L15.1606 19.9219C15.4044 19.7381 15.6938 19.6406 15.9994 19.6406H16.0013C16.3056 19.6406 16.595 19.7381 16.8387 19.9219L27.875 28.2663V29.8994C27.875 30.3681 27.4931 30.75 27.0244 30.75Z" fill="#020288"/>
<path d="M15.4244 13.1431L16.0981 13.4219C16.4138 13.5525 16.5644 13.9156 16.4338 14.2319C16.3031 14.5475 15.94 14.6981 15.6238 14.5675L15.2869 14.4281C14.9681 14.2962 14.6025 14.4475 14.47 14.7662C14.3381 15.085 14.4894 15.4506 14.8081 15.5831L15.145 15.7225C15.2206 15.7537 15.2975 15.7794 15.375 15.8V16.1425C15.375 16.4875 15.655 16.7675 16 16.7675C16.345 16.7675 16.625 16.4875 16.625 16.1425V15.6987C17.0456 15.51 17.3981 15.1681 17.5881 14.71C17.9825 13.7575 17.5288 12.6612 16.5763 12.2669L15.9025 11.9881C15.5869 11.8575 15.4363 11.4937 15.5669 11.1781C15.6294 11.0262 15.7488 10.9081 15.9031 10.8444C16.0575 10.7806 16.2256 10.78 16.3769 10.8431L16.7138 10.9825C17.0325 11.1144 17.3981 10.9631 17.5306 10.6444C17.6625 10.3256 17.5113 9.95999 17.1925 9.82749L16.8556 9.68811C16.78 9.65686 16.7031 9.63124 16.6256 9.60999V9.26749C16.6256 8.92249 16.3456 8.64249 16.0006 8.64249C15.6556 8.64249 15.3756 8.92249 15.3756 9.26749V9.71124C14.9375 9.90749 14.5963 10.2562 14.4125 10.7C14.0181 11.6525 14.4719 12.7481 15.4244 13.1431Z" fill="#020288"/>
</svg>
