<svg width="32" height="32" viewBox="0 0 32 32" fill="none" xmlns="http://www.w3.org/2000/svg">
<g clip-path="url(#clip0_2873_3657)">
<path d="M16 22.5893C19.6392 22.5893 22.5893 19.6392 22.5893 16C22.5893 12.3608 19.6392 9.41069 16 9.41069C12.3608 9.41069 9.41069 12.3608 9.41069 16C9.41069 19.6392 12.3608 22.5893 16 22.5893Z" fill="#E2C4FF"/>
<path d="M29.8061 13.8061C28.8136 13.8061 27.9732 14.4689 27.7034 15.375H25.7039C25.5629 13.1633 24.6795 11.1505 23.3005 9.58344L24.7169 8.16706C25.5386 8.61394 26.6029 8.49975 27.3137 7.78888C28.1711 6.93163 28.1714 5.54381 27.3137 4.68631C26.4565 3.82894 25.0687 3.82863 24.2112 4.68625C23.5033 5.39406 23.3843 6.45813 23.8329 7.28312L22.4166 8.6995C20.8495 7.3205 18.8367 6.43712 16.625 6.29612V4.29656C17.5311 4.02675 18.1939 3.18638 18.1939 2.19381C18.1939 0.984125 17.2097 0 16 0C14.7903 0 13.8061 0.984125 13.8061 2.19388C13.8061 3.18644 14.4689 4.02675 15.375 4.29663V6.29619C13.1633 6.43719 11.1505 7.32056 9.58344 8.69956L8.16706 7.28319C8.61413 6.46119 8.49956 5.397 7.78888 4.68638C6.93163 3.829 5.54381 3.82869 4.68631 4.68631C3.82894 5.54356 3.82863 6.93138 4.68625 7.78888C5.39406 8.49681 6.45813 8.61575 7.28312 8.16712L8.6995 9.5835C7.3205 11.1506 6.43712 13.1634 6.29612 15.3751H4.29656C4.02675 14.4689 3.18638 13.8062 2.19381 13.8062C0.984125 13.8061 0 14.7903 0 16C0 17.2097 0.984125 18.1939 2.19388 18.1939C3.18644 18.1939 4.02675 17.5311 4.29663 16.625H6.29619C6.43719 18.8367 7.32056 20.8495 8.69956 22.4166L7.28319 23.8329C6.46119 23.3859 5.397 23.5004 4.68638 24.2111C3.829 25.0684 3.82869 26.4562 4.68631 27.3137C5.54356 28.1711 6.93138 28.1714 7.78888 27.3137C8.49819 26.6046 8.615 25.5404 8.16712 24.7169L9.5835 23.3005C11.1506 24.6796 13.1634 25.5629 15.3751 25.7039V27.7034C14.4689 27.9732 13.8062 28.8136 13.8062 29.8061C13.8061 31.0159 14.7903 32 16 32C17.2097 32 18.1939 31.0159 18.1939 29.8061C18.1939 28.8136 17.5311 27.9732 16.625 27.7034V25.7039C18.8367 25.5629 20.8495 24.6795 22.4166 23.3005L23.8329 24.7169C23.3861 25.5386 23.5002 26.6029 24.2111 27.3137C25.0684 28.1711 26.4562 28.1714 27.3137 27.3137C28.1711 26.4565 28.1714 25.0687 27.3137 24.2112C26.6046 23.5019 25.5404 23.3851 24.7169 23.8329L23.3005 22.4166C24.6796 20.8495 25.5629 18.8367 25.7039 16.625H27.7034C27.9732 17.5311 28.8136 18.1939 29.8061 18.1939C31.0159 18.1939 32 17.2097 32 16C32 14.7903 31.0159 13.8061 29.8061 13.8061ZM25.1045 5.57937C25.2774 5.40606 25.5123 5.29375 25.7624 5.29369C26.2723 5.29362 26.7063 5.73163 26.7064 6.23756C26.7064 6.746 26.2679 7.18144 25.7626 7.18144C25.2487 7.18144 24.8187 6.75087 24.8186 6.23769C24.8185 5.99144 24.9299 5.75437 25.1045 5.57937ZM15.0561 2.19388C15.0561 1.67338 15.4796 1.25 16 1.25C16.5204 1.25 16.9439 1.67338 16.9439 2.19388C16.9439 2.71431 16.5204 3.13781 16 3.13781C15.4796 3.13775 15.0561 2.71431 15.0561 2.19388ZM5.58294 6.892C5.40856 6.71813 5.29369 6.48344 5.29369 6.23763C5.29369 5.7225 5.72288 5.29369 6.23756 5.29369C6.74969 5.29369 7.18144 5.72788 7.18144 6.23756C7.18144 6.75219 6.75163 7.18138 6.23769 7.18144C5.99662 7.1815 5.75931 7.06781 5.58294 6.892ZM2.19388 16.9439C1.67338 16.9439 1.25 16.5204 1.25 16C1.25 15.4796 1.67338 15.0561 2.19388 15.0561C2.71431 15.0561 3.13781 15.4795 3.13781 16C3.13775 16.5204 2.71431 16.9439 2.19388 16.9439ZM6.89456 26.4195C6.72025 26.5938 6.48419 26.7063 6.23763 26.7063C5.72531 26.7063 5.29369 26.2733 5.29369 25.7625C5.29369 25.2491 5.72538 24.8186 6.23756 24.8186C6.75231 24.8186 7.18138 25.2483 7.18144 25.7624C7.1815 26.0094 7.06881 26.2453 6.89456 26.4195ZM16.9439 29.8061C16.9439 30.3266 16.5204 30.75 16 30.75C15.4796 30.75 15.0561 30.3266 15.0561 29.8061C15.0561 29.2857 15.4795 28.8622 16 28.8622C16.5204 28.8623 16.9439 29.2857 16.9439 29.8061ZM26.4217 25.1031C26.5949 25.2759 26.7062 25.5113 26.7062 25.7624C26.7062 26.2687 26.2668 26.7062 25.7624 26.7062C25.2537 26.7062 24.8185 26.2688 24.8185 25.7624C24.8185 25.2477 25.2482 24.8186 25.7624 24.8185C26.011 24.8186 26.2476 24.9292 26.4217 25.1031ZM16 24.4745C11.3271 24.4745 7.5255 20.6729 7.5255 16C7.5255 11.3271 11.3271 7.5255 16 7.5255C20.6729 7.5255 24.4745 11.3271 24.4745 16C24.4745 20.6729 20.6729 24.4745 16 24.4745ZM29.8061 16.9439C29.2857 16.9439 28.8622 16.5204 28.8622 16C28.8622 15.4796 29.2856 15.0561 29.8061 15.0561C30.3266 15.0561 30.75 15.4795 30.75 16C30.75 16.5204 30.3266 16.9439 29.8061 16.9439Z" fill="#020288"/>
<path d="M16.8118 15.3772C16.2698 15.1856 15.6706 14.9543 15.3359 14.6918C15.2367 14.614 15.1943 14.4329 15.2305 14.2412C15.2487 14.1446 15.3335 13.8219 15.6621 13.7229C16.3042 13.5296 16.6707 13.8258 16.7376 13.8872L16.7382 13.8878C16.9927 14.121 17.3878 14.1036 17.621 13.8491C17.8543 13.5947 17.8368 13.1991 17.5824 12.9658C17.4524 12.8467 17.1111 12.5768 16.5882 12.4607V12.25C16.5882 11.9048 16.3084 11.625 15.9632 11.625C15.618 11.625 15.3382 11.9048 15.3382 12.25V12.5159C13.8753 12.9354 13.5287 14.8629 14.5645 15.6754C14.949 15.9769 15.4794 16.232 16.3953 16.5557C16.9864 16.7647 16.9737 17.2424 16.9409 17.4381C16.8737 17.8374 16.5378 18.2689 15.9589 18.2728C15.3834 18.2769 15.2044 18.2482 14.7634 17.9597C14.4746 17.7707 14.0872 17.8517 13.8982 18.1405C13.7093 18.4293 13.7902 18.8167 14.0791 19.0057C14.557 19.3183 14.9113 19.4479 15.3383 19.4966V19.75C15.3383 20.0952 15.6181 20.375 15.9633 20.375C16.3084 20.375 16.5882 20.0952 16.5882 19.75V19.4343C17.4767 19.1788 18.0455 18.4069 18.1736 17.6453C18.3431 16.6365 17.7959 15.725 16.8118 15.3772Z" fill="#020288"/>
</g>
<defs>
<clipPath id="clip0_2873_3657">
<rect width="32" height="32" fill="white"/>
</clipPath>
</defs>
</svg>
