<svg width="22" height="22" viewBox="0 0 22 22" fill="none" xmlns="http://www.w3.org/2000/svg">
<path d="M14.8892 8.21077C15.1707 8.21077 15.4527 8.10335 15.667 7.8885L18.7785 4.77701C19.2081 4.34784 19.2081 3.65123 18.7785 3.22154C18.3488 2.79185 17.6516 2.79185 17.223 3.22154L14.1115 6.33303C13.6818 6.76221 13.6818 7.45933 14.1115 7.8885C14.3258 8.10339 14.6077 8.21077 14.8892 8.21077ZM20.9 9.9H16.5C15.8925 9.9 15.4 10.3926 15.4 11C15.4 11.6075 15.8925 12.1 16.5 12.1H20.9C21.5075 12.1 22 11.6075 22 11C22 10.3926 21.5075 9.9 20.9 9.9ZM14.1115 15.667L17.223 18.7785C17.4373 18.9933 17.7193 19.1007 18.0007 19.1007C18.2822 19.1007 18.5636 18.9933 18.7785 18.7785C19.2081 18.3488 19.2081 17.6522 18.7785 17.223L15.667 14.1115C15.2378 13.6818 14.5407 13.6818 14.1115 14.1115C13.6818 14.5406 13.6818 15.2378 14.1115 15.667ZM9.9 20.9C9.9 21.5075 10.3926 22 11 22C11.6075 22 12.1 21.5075 12.1 20.9V16.5C12.1 15.8925 11.6075 15.4 11 15.4C10.3926 15.4 9.9 15.8925 9.9 16.5V20.9ZM4.77705 18.7784L7.88855 15.6669C8.31823 15.2378 8.31823 14.5406 7.88855 14.1115C7.45937 13.6818 6.76225 13.6818 6.33308 14.1115L3.22158 17.2229C2.79189 17.6521 2.79189 18.3487 3.22158 18.7784C3.43643 18.9933 3.71787 19.1007 3.99932 19.1007C4.28076 19.1007 4.56272 18.9933 4.77705 18.7784ZM0 11C0 11.6075 0.492508 12.1 1.1 12.1H5.5C6.10745 12.1 6.6 11.6075 6.6 11C6.6 10.3926 6.10745 9.9 5.5 9.9H1.1C0.492508 9.9 0 10.3926 0 11ZM4.77705 3.22158C4.34844 2.79189 3.65127 2.79189 3.22158 3.22158C2.79189 3.65127 2.79189 4.34788 3.22158 4.77705L6.33308 7.88855C6.54736 8.10339 6.82937 8.21081 7.11081 8.21081C7.39226 8.21081 7.67426 8.10339 7.88855 7.88855C8.31823 7.45937 8.31823 6.76225 7.88855 6.33308L4.77705 3.22158ZM11 6.6C11.6075 6.6 12.1 6.10745 12.1 5.5V1.1C12.1 0.492508 11.6075 0 11 0C10.3926 0 9.9 0.492508 9.9 1.1V5.5C9.9 6.10745 10.3926 6.6 11 6.6Z" fill="#B592FF"/>
</svg>
