<svg width="32" height="32" viewBox="0 0 32 32" fill="none" xmlns="http://www.w3.org/2000/svg">
<g clip-path="url(#clip0_5101_145)">
<path fill-rule="evenodd" clip-rule="evenodd" d="M14.2527 6.37864L16.4623 8.58823L18.009 7.04149C18.6166 6.43383 18.6166 5.43956 18.009 4.8319C17.4014 4.22424 16.407 4.22424 15.7994 4.8319L14.2527 6.37864ZM19.9486 9.26226C19.6874 9.52337 19.4802 9.8334 19.3389 10.1746C19.1976 10.5158 19.1248 10.8816 19.1249 11.2509C20.6782 11.2509 21.9373 12.51 21.9373 14.0633C24.4113 14.0815 25.695 11.0074 23.9259 9.26226C22.8276 8.16394 21.0469 8.16394 19.9486 9.26226ZM8.12537 28.2502H28.8745V31.375H8.12537V28.2502Z" fill="#E2C4FF"/>
<path d="M28.5734 0.906821C27.9849 0.322411 27.2085 0.0014886 26.3892 0.0014886C26.3919 -0.0028237 5.63096 0.00473844 5.62553 0.00155109C3.90242 0.00155109 2.50061 1.40336 2.50061 3.1264V4.37628C2.50061 4.72139 2.78047 5.00125 3.12558 5.00125H7.50038V31.3751C7.50038 31.7203 7.78024 32.0001 8.12535 32.0001H28.8745C29.2196 32.0001 29.4995 31.7203 29.4995 31.3751V3.1264C29.4995 2.28813 29.1706 1.49992 28.5734 0.906821ZM7.50038 3.75131H3.75055V3.1264C3.75055 2.09258 4.59164 1.25149 5.62546 1.25149C6.65929 1.25149 7.50038 2.09258 7.50038 3.1264V3.75131ZM28.2495 30.7502H8.75032V3.1264C8.75104 2.44993 8.53111 1.79168 8.12391 1.25149C8.12566 1.24924 26.3812 1.25318 26.3847 1.25143C26.8761 1.25143 27.3401 1.44373 27.6927 1.79378C28.0518 2.15039 28.2496 2.62368 28.2496 3.1264L28.2495 30.7502Z" fill="#020288"/>
<path d="M13.8108 11.2165C14.3709 11.2165 14.9311 11.0034 15.3575 10.5769L18.451 7.48346C20.4217 5.35819 17.4849 2.4182 15.3575 4.38998L12.264 7.48346C11.4112 8.3363 11.4112 9.72411 12.264 10.5769C12.6904 11.0034 13.2506 11.2165 13.8108 11.2165ZM13.1478 8.3673L16.2413 5.27382C16.4171 5.09801 16.6526 5.00114 16.9041 5.00114C17.734 4.99452 18.1516 6.01778 17.567 6.59957L14.4735 9.69305C14.1277 10.0541 13.4936 10.0543 13.1478 9.69305C12.7868 9.34706 12.7866 8.71328 13.1478 8.3673ZM15.6875 14.0632C15.6875 15.9586 17.2295 17.5006 19.1249 17.5006C21.8668 17.5269 23.527 14.3375 21.9561 12.1159L22.3792 11.6927C22.6233 11.4487 22.6233 11.053 22.3792 10.8089C22.1352 10.5648 21.7394 10.5648 21.4953 10.8089L21.0723 11.232C18.85 9.6608 15.6612 11.3218 15.6875 14.0632ZM19.1249 16.2506C18.1359 16.2506 17.298 15.5908 17.0284 14.6882H19.1249C19.47 14.6882 19.7499 14.4083 19.7499 14.0632C19.7499 13.7181 19.47 13.4382 19.1249 13.4382H17.0284C17.7834 11.0567 21.2587 11.5363 21.3123 14.0633C21.3123 15.2693 20.331 16.2506 19.1249 16.2506ZM18.4999 24.5004H12.2502C11.4238 24.5303 11.4207 25.7192 12.2502 25.7504H18.4999C19.3263 25.7205 19.3294 24.5315 18.4999 24.5004ZM24.7496 21.688H12.2502C11.9051 21.688 11.6252 21.9679 11.6252 22.313C11.6252 22.6581 11.9051 22.938 12.2502 22.938H24.7496C25.5741 22.9091 25.5809 21.7198 24.7496 21.688ZM24.7496 18.8757H12.2502C11.9051 18.8757 11.6252 19.1555 11.6252 19.5007C11.6252 19.8458 11.9051 20.1256 12.2502 20.1256H24.7496C25.5741 20.0967 25.5809 18.9074 24.7496 18.8757Z" fill="#020288"/>
</g>
<defs>
<clipPath id="clip0_5101_145">
<rect width="32" height="32" fill="white"/>
</clipPath>
</defs>
</svg>
