<svg width="32" height="32" viewBox="0 0 32 32" fill="none" xmlns="http://www.w3.org/2000/svg">
<path d="M26.4657 5.02063H25.1972V26.3544C25.1972 27.3944 24.3457 28.2369 23.2945 28.2369H6.17114V29.4919C6.17114 30.8744 7.3082 31.9994 8.70551 31.9994H26.4657C27.863 31.9994 29 30.8744 29 29.4919V7.52813C29 6.14563 27.863 5.02063 26.4657 5.02063Z" fill="#FFD1AF"/>
<path d="M12.9322 11.2913C12.677 11.2913 12.4363 11.1369 12.3409 10.8869L12.1426 10.3669H10.7187L10.5178 10.8888C10.3934 11.2113 10.0289 11.3731 9.70294 11.2506C9.37699 11.1275 9.21338 10.7669 9.33719 10.4444L10.7661 6.73188C10.768 6.72688 10.7699 6.72251 10.7718 6.71813C10.8823 6.45001 11.1432 6.27688 11.4357 6.27688H11.4363C11.7282 6.27688 11.9891 6.44938 12.1002 6.71688C12.1028 6.72251 12.1047 6.72813 12.1072 6.73438L13.5234 10.4469C13.6466 10.77 13.4818 11.1306 13.1552 11.2525C13.0819 11.28 13.0061 11.2931 12.9322 11.2931V11.2913ZM11.2001 9.11626H11.6663L11.4344 8.50813L11.2001 9.11626ZM20.4778 11.2906C20.1291 11.2906 19.8461 11.0106 19.8461 10.6656V6.90001C19.8461 6.55501 20.1291 6.27501 20.4778 6.27501C20.8265 6.27501 21.1095 6.55501 21.1095 6.90001V7.38563L22.0975 6.48688C22.3546 6.25313 22.7538 6.27001 22.9901 6.52376C23.2263 6.77813 23.2093 7.17313 22.9528 7.40688L21.5214 8.70876L23.0993 10.215C23.3501 10.4544 23.3577 10.8506 23.1151 11.0988C22.8732 11.3469 22.4727 11.3544 22.2219 11.1144L21.1101 10.0531V10.665C21.1101 11.01 20.8271 11.29 20.4784 11.29L20.4778 11.2906ZM16.7956 11.2906C16.0995 11.2906 15.4457 11.0125 15.0016 10.5275C14.7673 10.2719 14.7868 9.87626 15.0452 9.64438C15.3036 9.41251 15.7034 9.43188 15.9378 9.68751C16.1399 9.90876 16.4608 10.0406 16.7956 10.0406C17.1071 10.0406 17.2852 9.86126 17.3067 9.74001C17.3313 9.60501 17.1064 9.47188 16.9074 9.39938C16.3124 9.18251 15.7837 8.94938 15.7615 8.93938C15.7312 8.92626 15.7015 8.91001 15.6737 8.89188C15.2208 8.60001 14.9877 8.08813 15.0648 7.55626C15.1463 6.99313 15.56 6.53501 16.1444 6.36126C17.0382 6.09501 17.8708 6.51751 18.2214 6.80938L17.4084 7.76626L17.4134 7.77001C17.409 7.76626 16.9681 7.42126 16.5088 7.55813C16.3977 7.59126 16.3269 7.65563 16.3155 7.73376C16.3099 7.77126 16.3187 7.80188 16.3402 7.82563C16.4943 7.89188 16.9056 8.06626 17.3446 8.22626C18.3951 8.60938 18.656 9.37313 18.5505 9.95938C18.4115 10.7306 17.6731 11.2906 16.7956 11.2906ZM7.21595 11.2906C6.86726 11.2906 6.58426 11.0106 6.58426 10.6656V7.52501H6.16923C5.82054 7.52501 5.53754 7.24501 5.53754 6.90001C5.53754 6.55501 5.82054 6.27501 6.16923 6.27501H8.27089C8.61958 6.27501 8.90259 6.55501 8.90259 6.90001C8.90259 7.24501 8.61958 7.52501 8.27089 7.52501H7.84765V10.6656C7.84765 11.0106 7.56465 11.2906 7.21595 11.2906ZM19.258 3.13251H15.7988C15.4501 3.13251 15.1671 2.85251 15.1671 2.50751C15.1671 2.16251 15.4501 1.88251 15.7988 1.88251H19.258C19.6067 1.88251 19.8897 2.16251 19.8897 2.50751C19.8897 2.85251 19.6067 3.13251 19.258 3.13251ZM13.0307 3.13251H9.57155C9.22285 3.13251 8.93985 2.85251 8.93985 2.50751C8.93985 2.16251 9.22285 1.88251 9.57155 1.88251H13.0307C13.3794 1.88251 13.6624 2.16251 13.6624 2.50751C13.6624 2.85251 13.3794 3.13251 13.0307 3.13251Z" fill="#020288"/>
<path d="M7.43768 21.3319C6.3897 21.3319 5.53754 20.4882 5.53754 19.4519C5.53754 18.4157 6.39033 17.5719 7.43768 17.5719C8.48503 17.5719 9.33782 18.4157 9.33782 19.4519C9.33782 20.4882 8.48503 21.3319 7.43768 21.3319ZM7.43768 18.8219C7.08646 18.8219 6.80093 19.1044 6.80093 19.4519C6.80093 19.7994 7.08646 20.0819 7.43768 20.0819C7.7889 20.0819 8.07443 19.7994 8.07443 19.4519C8.07443 19.1044 7.7889 18.8219 7.43768 18.8219Z" fill="#020288"/>
<path d="M7.43701 26.3512C6.95061 26.3512 6.46357 26.1681 6.09339 25.8012C5.35241 25.0681 5.35241 23.8756 6.09339 23.1425C6.83437 22.4094 8.03965 22.4094 8.78063 23.1425C9.13943 23.4975 9.33716 23.97 9.33716 24.4719C9.33716 24.9744 9.13943 25.4462 8.78063 25.8012C8.42183 26.1562 7.92342 26.3512 7.43701 26.3512ZM6.98661 24.0262C6.73836 24.2719 6.73836 24.6719 6.98661 24.9175C7.23487 25.1631 7.63916 25.1631 7.88741 24.9175C8.13567 24.6719 8.13567 24.2719 7.88741 24.0262C7.63916 23.7806 7.23487 23.7806 6.98661 24.0262Z" fill="#020288"/>
<path d="M16.9516 26.3519H11.243C10.8943 26.3519 10.6113 26.0719 10.6113 25.7269C10.6113 25.3819 10.8943 25.1019 11.243 25.1019H16.9516C17.3003 25.1019 17.5833 25.3819 17.5833 25.7269C17.5833 26.0719 17.3003 26.3519 16.9516 26.3519ZM22.6603 23.8419H11.243C10.8943 23.8419 10.6113 23.5619 10.6113 23.2169C10.6113 22.8719 10.8943 22.5919 11.243 22.5919H22.6596C23.0083 22.5919 23.2913 22.8719 23.2913 23.2169C23.2913 23.5619 23.0083 23.8419 22.6596 23.8419H22.6603ZM16.9516 21.3319H11.243C10.8943 21.3319 10.6113 21.0519 10.6113 20.7069C10.6113 20.3619 10.8943 20.0819 11.243 20.0819H16.9516C17.3003 20.0819 17.5833 20.3619 17.5833 20.7069C17.5833 21.0519 17.3003 21.3319 16.9516 21.3319ZM22.6603 18.8219H11.243C10.8943 18.8219 10.6113 18.5419 10.6113 18.1969C10.6113 17.8519 10.8943 17.5719 11.243 17.5719H22.6596C23.0083 17.5719 23.2913 17.8519 23.2913 18.1969C23.2913 18.5419 23.0083 18.8219 22.6596 18.8219H22.6603ZM7.06622 16.3119C6.89945 16.3119 6.739 16.2469 6.61961 16.1288L5.7226 15.2413C5.47561 14.9969 5.47561 14.6013 5.7226 14.3575C5.96959 14.1138 6.36946 14.1138 6.61582 14.3575L6.96009 14.6981L8.17611 12.8375C8.36562 12.5475 8.75664 12.4644 9.04974 12.6519C9.34285 12.8394 9.42687 13.2263 9.23736 13.5163L7.59747 16.0263C7.49388 16.185 7.32332 16.2888 7.13381 16.3088C7.1117 16.3113 7.08896 16.3125 7.06685 16.3125L7.06622 16.3119ZM16.9523 16.3119H11.2436C10.8949 16.3119 10.6119 16.0319 10.6119 15.6869C10.6119 15.3419 10.8949 15.0619 11.2436 15.0619H16.9523C17.301 15.0619 17.584 15.3419 17.584 15.6869C17.584 16.0319 17.301 16.3119 16.9523 16.3119ZM22.6609 13.8019H11.243C10.8943 13.8019 10.6113 13.5219 10.6113 13.1769C10.6113 12.8319 10.8943 12.5519 11.243 12.5519H22.6596C23.0083 12.5519 23.2913 12.8319 23.2913 13.1769C23.2913 13.5219 23.0083 13.8019 22.6596 13.8019H22.6609Z" fill="#020288"/>
<path d="M23.2945 28.8625H5.53437C4.13705 28.8625 3 27.7375 3 26.355V4.39063C3 3.00751 4.13705 1.88251 5.53437 1.88251H6.80281C7.15151 1.88251 7.43451 2.16251 7.43451 2.50751C7.43451 2.85251 7.15151 3.13251 6.80281 3.13251H5.53437C4.83318 3.13251 4.26339 3.69688 4.26339 4.39001V26.3544C4.26339 27.0481 4.83382 27.6119 5.53437 27.6119H23.2945C23.9957 27.6119 24.5655 27.0475 24.5655 26.3544V4.39063C24.5655 3.69688 23.9951 3.13313 23.2945 3.13313H22.0261C21.6774 3.13313 21.3944 2.85313 21.3944 2.50813C21.3944 2.16313 21.6774 1.88313 22.0261 1.88313H23.2945C24.6918 1.88313 25.8289 3.00813 25.8289 4.39063V26.3544C25.8289 27.7369 24.6918 28.8619 23.2945 28.8619V28.8625Z" fill="#020288"/>
<path d="M8.18689 5.01562C7.07573 5.01562 6.17114 4.12125 6.17114 3.02125V1.99437C6.17114 0.895 7.0751 0 8.18689 0C9.29867 0 10.2026 0.894375 10.2026 1.99437V3.02125C10.2026 4.12063 9.29867 5.01562 8.18689 5.01562ZM14.4142 5.01562C13.303 5.01562 12.3984 4.12125 12.3984 3.02125V1.99437C12.3984 0.895 13.303 0 14.4142 0C15.5253 0 16.4299 0.894375 16.4299 1.99437V3.02125C16.4299 4.12063 15.5259 5.01562 14.4142 5.01562ZM20.6414 5.01562C19.5303 5.01562 18.6257 4.12125 18.6257 3.02125V1.99437C18.6257 0.895 19.5296 0 20.6414 0C21.7532 0 22.6572 0.894375 22.6572 1.99437V3.02125C22.6572 4.12063 21.7532 5.01562 20.6414 5.01562Z" fill="#FFD1AF"/>
</svg>
