<svg width="32" height="32" viewBox="0 0 32 32" fill="none" xmlns="http://www.w3.org/2000/svg">
<path d="M16 29C20.9706 29 25 24.9706 25 20C25 15.0294 20.9706 11 16 11C11.0294 11 7 15.0294 7 20C7 24.9706 11.0294 29 16 29Z" fill="#FFBEBC"/>
<path fill-rule="evenodd" clip-rule="evenodd" d="M0 8.78319C0 8.43801 0.279822 8.15819 0.625 8.15819H31.375C31.7202 8.15819 32 8.43801 32 8.78319V28.8648C32 30.2497 30.8773 31.3724 29.4924 31.3724H2.50763C1.1227 31.3724 0 30.2497 0 28.8648V8.78319ZM1.25 9.40819V28.8648C1.25 29.5594 1.81305 30.1224 2.50763 30.1224H29.4924C30.1869 30.1224 30.75 29.5594 30.75 28.8648V9.40819H1.25Z" fill="#020288"/>
<path fill-rule="evenodd" clip-rule="evenodd" d="M16 14.3284C12.8677 14.3284 10.3284 16.8677 10.3284 20C10.3284 23.1323 12.8677 25.6716 16 25.6716C19.1323 25.6716 21.6716 23.1323 21.6716 20C21.6716 16.8677 19.1323 14.3284 16 14.3284ZM9 20C9 16.134 12.134 13 16 13C19.866 13 23 16.134 23 20C23 23.866 19.866 27 16 27C12.134 27 9 23.866 9 20Z" fill="#020288"/>
<path d="M16 13C16.3668 13 16.6642 13.2974 16.6642 13.6642V14.9981C16.6642 15.3649 16.3668 15.6623 16 15.6623C15.6332 15.6623 15.3358 15.3649 15.3358 14.9981V13.6642C15.3358 13.2974 15.6332 13 16 13Z" fill="#020288"/>
<path d="M11.0503 15.0503C11.3097 14.7909 11.7302 14.7909 11.9896 15.0503L12.9328 15.9934C13.1922 16.2528 13.1922 16.6733 12.9328 16.9327C12.6734 17.1921 12.2529 17.1921 11.9935 16.9328L11.0503 15.9896C10.7909 15.7303 10.7909 15.3097 11.0503 15.0503Z" fill="#020288"/>
<path d="M20.9497 15.0503C21.2091 15.3097 21.2091 15.7302 20.9497 15.9896L20.0066 16.9327C19.7472 17.1921 19.3267 17.1921 19.0673 16.9327C18.8079 16.6733 18.8079 16.2528 19.0673 15.9934L20.0104 15.0503C20.2698 14.7909 20.6903 14.7909 20.9497 15.0503Z" fill="#020288"/>
<path d="M18.0203 17.9797C18.2797 18.2391 18.2797 18.6597 18.0203 18.9191L16.4697 20.4697C16.3451 20.5942 16.1762 20.6642 16 20.6642H14.2327C13.8658 20.6642 13.5685 20.3668 13.5685 20C13.5685 19.6332 13.8658 19.3358 14.2327 19.3358H15.7249L17.0809 17.9797C17.3403 17.7203 17.7609 17.7203 18.0203 17.9797Z" fill="#020288"/>
<path d="M9 20C9 19.6332 9.29738 19.3358 9.66421 19.3358H10.9981C11.3649 19.3358 11.6623 19.6332 11.6623 20C11.6623 20.3668 11.3649 20.6642 10.9981 20.6642H9.66421C9.29738 20.6642 9 20.3668 9 20Z" fill="#020288"/>
<path d="M20.3377 20C20.3377 19.6332 20.6351 19.3358 21.0019 19.3358H22.3358C22.7026 19.3358 23 19.6332 23 20C23 20.3668 22.7026 20.6642 22.3358 20.6642H21.0019C20.6351 20.6642 20.3377 20.3668 20.3377 20Z" fill="#020288"/>
<path d="M12.9328 23.0672C13.1922 23.3266 13.1922 23.7471 12.9328 24.0065L11.9896 24.9497C11.7302 25.2091 11.3097 25.2091 11.0503 24.9497C10.7909 24.6903 10.7909 24.2698 11.0503 24.0104L11.9935 23.0672C12.2529 22.8078 12.6734 22.8078 12.9328 23.0672Z" fill="#020288"/>
<path d="M19.0673 23.0672C19.3267 22.8078 19.7472 22.8078 20.0066 23.0672L20.9497 24.0104C21.2091 24.2698 21.2091 24.6903 20.9497 24.9497C20.6903 25.2091 20.2697 25.2091 20.0104 24.9497L19.0672 24.0065C18.8079 23.7471 18.8079 23.3266 19.0673 23.0672Z" fill="#020288"/>
<path d="M16.6642 25.0019V26.3358C16.6642 26.7026 16.3668 27 16 27C15.6332 27 15.3358 26.7026 15.3358 26.3358V25.0019C15.3358 24.6351 15.6332 24.3377 16 24.3377C16.3668 24.3377 16.6642 24.6351 16.6642 25.0019Z" fill="#020288"/>
<path fill-rule="evenodd" clip-rule="evenodd" d="M0 5.64537C0 4.26045 1.1227 3.13775 2.50763 3.13775H29.4924C30.8773 3.13775 32 4.26045 32 5.64537V8.78312C32 9.1283 31.7202 9.40812 31.375 9.40812H0.625C0.279822 9.40812 0 9.1283 0 8.78312V5.64537ZM2.50763 4.38775C1.81305 4.38775 1.25 4.9508 1.25 5.64537V8.15812H30.75V5.64537C30.75 4.9508 30.1869 4.38775 29.4924 4.38775H2.50763ZM2.824 6.27294C2.824 5.92776 3.10382 5.64794 3.449 5.64794H5.95919C6.30437 5.64794 6.58419 5.92776 6.58419 6.27294C6.58419 6.61811 6.30437 6.89794 5.95919 6.89794H3.449C3.10382 6.89794 2.824 6.61811 2.824 6.27294Z" fill="#020288"/>
<path fill-rule="evenodd" clip-rule="evenodd" d="M5.95919 1.8775C5.61118 1.8775 5.32906 2.15962 5.32906 2.50763V6.27294C5.32906 6.61812 5.04924 6.89794 4.70406 6.89794C4.35888 6.89794 4.07906 6.61812 4.07906 6.27294V2.50763C4.07906 1.46926 4.92082 0.627502 5.95919 0.627502H6.58675C7.62512 0.627502 8.46688 1.46926 8.46688 2.50763V3.76275C8.46688 4.10793 8.18705 4.38775 7.84188 4.38775C7.4967 4.38775 7.21688 4.10793 7.21688 3.76275V2.50763C7.21688 2.15962 6.93476 1.8775 6.58675 1.8775H5.95919ZM12.8623 1.8775C12.5142 1.8775 12.2321 2.15962 12.2321 2.50763V5.64794H12.8623C13.2074 5.64794 13.4873 5.92776 13.4873 6.27294C13.4873 6.61812 13.2074 6.89794 12.8623 6.89794H10.3521C10.0069 6.89794 9.72706 6.61812 9.72706 6.27294C9.72706 5.92776 10.0069 5.64794 10.3521 5.64794H10.9821V2.50763C10.9821 1.46926 11.8239 0.627502 12.8623 0.627502H13.4898C14.5282 0.627502 15.3699 1.46926 15.3699 2.50763V3.76275C15.3699 4.10793 15.0901 4.38775 14.7449 4.38775C14.3998 4.38775 14.1199 4.10793 14.1199 3.76275V2.50763C14.1199 2.15962 13.8378 1.8775 13.4898 1.8775H12.8623ZM19.7653 1.8775C19.4173 1.8775 19.1352 2.15962 19.1352 2.50763V5.64794H19.7653C20.1105 5.64794 20.3903 5.92776 20.3903 6.27294C20.3903 6.61812 20.1105 6.89794 19.7653 6.89794H17.2551C16.9099 6.89794 16.6301 6.61812 16.6301 6.27294C16.6301 5.92776 16.9099 5.64794 17.2551 5.64794H17.8852V2.50763C17.8852 1.46926 18.7269 0.627502 19.7653 0.627502H20.3929C21.4312 0.627502 22.273 1.46926 22.273 2.50763V3.76275C22.273 4.10793 21.9932 4.38775 21.648 4.38775C21.3028 4.38775 21.023 4.10793 21.023 3.76275V2.50763C21.023 2.15962 20.7409 1.8775 20.3929 1.8775H19.7653ZM26.6684 1.8775C26.3204 1.8775 26.0382 2.15962 26.0382 2.50763V5.64794H26.6684C27.0136 5.64794 27.2934 5.92776 27.2934 6.27294C27.2934 6.61812 27.0136 6.89794 26.6684 6.89794H24.1582C23.813 6.89794 23.5332 6.61812 23.5332 6.27294C23.5332 5.92776 23.813 5.64794 24.1582 5.64794H24.7882V2.50763C24.7882 1.46926 25.63 0.627502 26.6684 0.627502H27.2959C28.3343 0.627502 29.1761 1.46926 29.1761 2.50763V3.76275C29.1761 4.10793 28.8962 4.38775 28.5511 4.38775C28.2059 4.38775 27.9261 4.10793 27.9261 3.76275V2.50763C27.9261 2.15962 27.6439 1.8775 27.2959 1.8775H26.6684Z" fill="#020288"/>
</svg>
