<svg width="32" height="32" viewBox="0 0 32 32" fill="none" xmlns="http://www.w3.org/2000/svg">
<g clip-path="url(#clip0_1844_3377)">
<path fill-rule="evenodd" clip-rule="evenodd" d="M5.06255 13.7396V18.2604C6.61585 18.2604 7.87503 19.5196 7.87503 21.0729H24.125C24.125 19.5196 25.3842 18.2604 26.9375 18.2604V13.7396C25.3842 13.7396 24.125 12.4805 24.125 10.9272H7.87503C7.87503 12.4805 6.61585 13.7396 5.06255 13.7396Z" fill="#A4FBC4"/>
<path fill-rule="evenodd" clip-rule="evenodd" d="M1.62506 8.11466C1.62506 7.76948 1.90488 7.48965 2.25006 7.48965H29.75C30.0951 7.48965 30.375 7.76948 30.375 8.11466V23.8853C30.375 24.2305 30.0951 24.5103 29.75 24.5103H2.25006C1.90488 24.5103 1.62506 24.2305 1.62506 23.8853V8.11466ZM2.87506 8.73966V23.2603H29.125V8.73966H2.87506Z" fill="#020288"/>
<path fill-rule="evenodd" clip-rule="evenodd" d="M23.1875 0C23.3709 0 23.545 0.0805632 23.6638 0.220342L27.4138 4.63439C27.5715 4.82002 27.607 5.08038 27.5047 5.30145C27.4024 5.52253 27.1811 5.66405 26.9375 5.66405H25.8437V7.80216C25.8437 8.14734 25.5639 8.42716 25.2187 8.42716C24.8735 8.42716 24.5937 8.14734 24.5937 7.80216V5.03905C24.5937 4.69387 24.8735 4.41404 25.2187 4.41404H25.5864L23.1875 1.59032L20.7886 4.41404H21.1562C21.5014 4.41404 21.7812 4.69387 21.7812 5.03905V7.80216C21.7812 8.14734 21.5014 8.42716 21.1562 8.42716C20.8111 8.42716 20.5312 8.14734 20.5312 7.80216V5.66405H19.4375C19.1939 5.66405 18.9725 5.52253 18.8703 5.30145C18.768 5.08038 18.8035 4.82002 18.9612 4.63439L22.7112 0.220342C22.8299 0.0805632 23.0041 0 23.1875 0ZM16 12.5363C16.3452 12.5363 16.625 12.8161 16.625 13.1613V13.3626C16.6662 13.376 16.7072 13.3911 16.7478 13.4079C16.7478 13.4079 16.7479 13.408 16.7478 13.4079L17.026 13.5231C17.3449 13.6552 17.4963 14.0208 17.3643 14.3397C17.2322 14.6586 16.8666 14.8101 16.5477 14.678L16.2695 14.5628C16.0661 14.4785 15.8273 14.5774 15.743 14.7809C15.6587 14.9844 15.7576 15.2231 15.961 15.3074C15.961 15.3074 15.961 15.3074 15.9611 15.3075L16.5175 15.5378C17.3587 15.8863 17.7603 16.8563 17.412 17.6975C17.2541 18.0789 16.9685 18.3699 16.625 18.5417V18.8387C16.625 19.1839 16.3452 19.4637 16 19.4637C15.6548 19.4637 15.375 19.1839 15.375 18.8387V18.6374C15.3339 18.6241 15.293 18.609 15.2523 18.5922L14.9742 18.477C14.6553 18.3449 14.5038 17.9793 14.6359 17.6604C14.768 17.3415 15.1336 17.19 15.4525 17.3221L15.7306 17.4373C15.9342 17.5216 16.1729 17.4226 16.2571 17.2193C16.3414 17.0157 16.2424 16.7769 16.0391 16.6927L15.761 16.5775L15.9459 16.1309L15.959 16.0991M15.9459 16.1309L15.761 16.5775L15.4828 16.4623L15.4827 16.4623C14.6414 16.1138 14.2397 15.1438 14.5881 14.3026C14.7461 13.9213 15.0316 13.6303 15.375 13.4585V13.1613C15.375 12.8161 15.6548 12.5363 16 12.5363M8.0811 16C8.0811 15.6548 8.36092 15.375 8.7061 15.375H10.5985C10.9437 15.375 11.2235 15.6548 11.2235 16C11.2235 16.3452 10.9437 16.625 10.5985 16.625H8.7061C8.36092 16.625 8.0811 16.3452 8.0811 16ZM20.7765 16C20.7765 15.6548 21.0563 15.375 21.4015 15.375H23.294C23.6392 15.375 23.919 15.6548 23.919 16C23.919 16.3452 23.6392 16.625 23.294 16.625H21.4015C21.0563 16.625 20.7765 16.3452 20.7765 16ZM6.7813 23.5728C7.12648 23.5728 7.4063 23.8527 7.4063 24.1978V26.961C7.4063 27.3061 7.12648 27.586 6.7813 27.586H6.41363L8.81254 30.4097L11.2115 27.586H10.8438C10.4986 27.586 10.2188 27.3061 10.2188 26.961V24.1978C10.2188 23.8527 10.4986 23.5728 10.8438 23.5728C11.189 23.5728 11.4688 23.8527 11.4688 24.1978V26.336H12.5625C12.8061 26.336 13.0275 26.4775 13.1298 26.6986C13.232 26.9196 13.1966 27.18 13.0388 27.3656L9.28886 31.7797C9.17011 31.9194 8.99595 32 8.81254 32C8.62913 32 8.45497 31.9194 8.33622 31.7797L4.58624 27.3656C4.42853 27.18 4.39304 26.9196 4.49531 26.6986C4.59758 26.4775 4.81897 26.336 5.06255 26.336H6.1563V24.1978C6.1563 23.8527 6.43612 23.5728 6.7813 23.5728Z" fill="#020288"/>
</g>
<defs>
<clipPath id="clip0_1844_3377">
<rect width="32" height="32" fill="white"/>
</clipPath>
</defs>
</svg>
