<svg width="32" height="32" viewBox="0 0 32 32" fill="none" xmlns="http://www.w3.org/2000/svg">
<path d="M24.9127 31.375H7.08734C5.74383 31.375 4.65411 30.3344 4.65411 29.05V21.5656H27.3459V29.05C27.3459 30.3337 26.2569 31.375 24.9127 31.375Z" fill="#C4E3FF"/>
<path d="M24.9127 32H7.08732C5.38472 32 4 30.6769 4 29.05V5.35625C4 3.72937 5.38472 2.40625 7.08732 2.40625H13.4994C13.8605 2.40625 14.1535 2.68625 14.1535 3.03125C14.1535 3.37625 13.8605 3.65625 13.4994 3.65625H7.08732C6.10618 3.65625 5.30819 4.41875 5.30819 5.35625V29.05C5.30819 29.9875 6.10618 30.75 7.08732 30.75H24.9127C25.8938 30.75 26.6918 29.9875 26.6918 29.05V5.35625C26.6918 4.41875 25.8938 3.65625 24.9127 3.65625H18.4757C18.1147 3.65625 17.8217 3.37625 17.8217 3.03125C17.8217 2.68625 18.1147 2.40625 18.4757 2.40625H24.9127C26.6153 2.40625 28 3.72937 28 5.35625V29.05C28 30.6769 26.6153 32 24.9127 32Z" fill="#020288"/>
<path d="M15.5677 18.8962H7.87358C7.51252 18.8962 7.21948 18.6162 7.21948 18.2712C7.21948 15.9075 9.23867 13.9838 11.7203 13.9838C14.2019 13.9838 16.2211 15.9069 16.2218 18.2712C16.2218 18.4369 16.1531 18.5963 16.0301 18.7131C15.9072 18.8306 15.741 18.8962 15.5677 18.8962ZM8.5957 17.6462H14.8456C14.5421 16.27 13.2561 15.2338 11.7203 15.2338C10.1845 15.2338 8.89919 16.27 8.5957 17.6462ZM20.8704 6.52938H11.1297C10.7686 6.52938 10.4756 6.24937 10.4756 5.90438C10.4756 5.55938 10.7686 5.27938 11.1297 5.27938H13.7676L12.8067 2.66313C12.5824 2.05312 12.6825 1.37375 13.0743 0.84625C13.4674 0.31625 14.1084 0 14.7893 0H17.2108C17.8917 0 18.5327 0.31625 18.9258 0.84625C19.3169 1.37375 19.417 2.05312 19.1933 2.66313L18.2325 5.27938H20.8704C21.2315 5.27938 21.5245 5.55938 21.5245 5.90438C21.5245 6.24937 21.2315 6.52938 20.8704 6.52938ZM15.1543 5.27938H16.8458L17.959 2.24938C18.0441 2.0175 18.0074 1.76938 17.859 1.56875C17.7085 1.36625 17.4724 1.25 17.2114 1.25H14.79C14.529 1.25 14.2929 1.36625 14.1424 1.56875C13.9939 1.76938 13.9573 2.0175 14.0423 2.24875L15.1556 5.27875L15.1543 5.27938Z" fill="#020288"/>
<path d="M11.7203 15.2337C9.81098 15.2337 8.25751 13.7537 8.25751 11.935C8.25751 10.1162 9.81098 8.63623 11.7203 8.63623C13.6296 8.63623 15.183 10.1162 15.183 11.935C15.183 13.7537 13.6296 15.2337 11.7203 15.2337ZM11.7203 9.88561C10.5324 9.88561 9.56569 10.805 9.56569 11.9344C9.56569 13.0637 10.5324 13.9831 11.7203 13.9831C12.9081 13.9831 13.8749 13.0637 13.8749 11.9344C13.8749 10.805 12.9081 9.88561 11.7203 9.88561Z" fill="#020288"/>
<path d="M21.9404 28.4962H10.0595C9.69843 28.4962 9.4054 28.2162 9.4054 27.8712C9.4054 27.5262 9.69843 27.2462 10.0595 27.2462H21.9404C22.3015 27.2462 22.5945 27.5262 22.5945 27.8712C22.5945 28.2162 22.3015 28.4962 21.9404 28.4962ZM21.9404 25.6944H10.0595C9.69843 25.6944 9.4054 25.4144 9.4054 25.0694C9.4054 24.7244 9.69843 24.4444 10.0595 24.4444H21.9404C22.3015 24.4444 22.5945 24.7244 22.5945 25.0694C22.5945 25.4144 22.3015 25.6944 21.9404 25.6944ZM24.1264 18.8962H18.8623C18.5012 18.8962 18.2082 18.6162 18.2082 18.2712C18.2082 17.9262 18.5012 17.6462 18.8623 17.6462H24.1264C24.4875 17.6462 24.7805 17.9262 24.7805 18.2712C24.7805 18.6162 24.4875 18.8962 24.1264 18.8962ZM24.1264 15.8994H18.8623C18.5012 15.8994 18.2082 15.6194 18.2082 15.2744C18.2082 14.9294 18.5012 14.6494 18.8623 14.6494H24.1264C24.4875 14.6494 24.7805 14.9294 24.7805 15.2744C24.7805 15.6194 24.4875 15.8994 24.1264 15.8994Z" fill="#020288"/>
</svg>
