<svg width="32" height="32" viewBox="0 0 32 32" fill="none" xmlns="http://www.w3.org/2000/svg">
<path d="M17 9H10C9.73478 9 9.48043 8.89464 9.29289 8.70711C9.10536 8.51957 9 8.26522 9 8C9 7.73478 9.10536 7.48043 9.29289 7.29289C9.48043 7.10536 9.73478 7 10 7H17C17.2652 7 17.5196 7.10536 17.7071 7.29289C17.8946 7.48043 18 7.73478 18 8C18 8.26522 17.8946 8.51957 17.7071 8.70711C17.5196 8.89464 17.2652 9 17 9ZM20 14H10C9.73478 14 9.48043 13.8946 9.29289 13.7071C9.10536 13.5196 9 13.2652 9 13C9 12.7348 9.10536 12.4804 9.29289 12.2929C9.48043 12.1054 9.73478 12 10 12H20C20.2652 12 20.5196 12.1054 20.7071 12.2929C20.8946 12.4804 21 12.7348 21 13C21 13.2652 20.8946 13.5196 20.7071 13.7071C20.5196 13.8946 20.2652 14 20 14ZM15.86 18H10C9.73478 18 9.48043 17.8946 9.29289 17.7071C9.10536 17.5196 9 17.2652 9 17C9 16.7348 9.10536 16.4804 9.29289 16.2929C9.48043 16.1054 9.73478 16 10 16H15.86C16.1252 16 16.3796 16.1054 16.5671 16.2929C16.7546 16.4804 16.86 16.7348 16.86 17C16.86 17.2652 16.7546 17.5196 16.5671 17.7071C16.3796 17.8946 16.1252 18 15.86 18ZM13.46 22H10C9.73478 22 9.48043 21.8946 9.29289 21.7071C9.10536 21.5196 9 21.2652 9 21C9 20.7348 9.10536 20.4804 9.29289 20.2929C9.48043 20.1054 9.73478 20 10 20H13.46C13.7252 20 13.9796 20.1054 14.1671 20.2929C14.3546 20.4804 14.46 20.7348 14.46 21C14.46 21.2652 14.3546 21.5196 14.1671 21.7071C13.9796 21.8946 13.7252 22 13.46 22Z" fill="#8CA9C2"/>
<path d="M13.46 28H9C6.243 28 4 25.757 4 23V6C4 3.243 6.243 1 9 1H21C23.757 1 26 3.243 26 6V14.2C26 14.4652 25.8946 14.7196 25.7071 14.9071C25.5196 15.0946 25.2652 15.2 25 15.2C24.7348 15.2 24.4804 15.0946 24.2929 14.9071C24.1054 14.7196 24 14.4652 24 14.2V6C24 4.346 22.654 3 21 3H9C7.346 3 6 4.346 6 6V23C6 24.654 7.346 26 9 26H13.46C13.7252 26 13.9796 26.1054 14.1671 26.2929C14.3546 26.4804 14.46 26.7348 14.46 27C14.46 27.2652 14.3546 27.5196 14.1671 27.7071C13.9796 27.8946 13.7252 28 13.46 28Z" fill="#8CA9C2"/>
<path d="M23 31C19.141 31 16 27.86 16 24C16 20.14 19.141 17 23 17C26.859 17 30 20.14 30 24C30 27.86 26.859 31 23 31ZM23 19C20.243 19 18 21.243 18 24C18 26.757 20.243 29 23 29C25.757 29 28 26.757 28 24C28 21.243 25.757 19 23 19Z" fill="#8CA9C2"/>
<path d="M22.333 26.533C22.2017 26.5332 22.0716 26.5074 21.9503 26.4571C21.8289 26.4068 21.7187 26.333 21.626 26.24L20.293 24.907C20.2002 24.8142 20.1265 24.704 20.0763 24.5827C20.026 24.4614 20.0002 24.3313 20.0002 24.2C20.0002 24.0687 20.026 23.9387 20.0763 23.8174C20.1265 23.6961 20.2002 23.5859 20.293 23.493C20.3858 23.4002 20.4961 23.3265 20.6174 23.2763C20.7387 23.226 20.8687 23.2002 21 23.2002C21.1313 23.2002 21.2613 23.226 21.3826 23.2763C21.5039 23.3265 21.6142 23.4002 21.707 23.493L22.333 24.119L24.293 22.16C24.3858 22.0672 24.4961 21.9935 24.6174 21.9433C24.7387 21.893 24.8687 21.8672 25 21.8672C25.1313 21.8672 25.2613 21.893 25.3826 21.9433C25.5039 21.9935 25.6142 22.0672 25.707 22.16C25.7998 22.2529 25.8735 22.3631 25.9237 22.4844C25.974 22.6057 25.9999 22.7357 25.9999 22.867C25.9999 22.9983 25.974 23.1284 25.9237 23.2497C25.8735 23.371 25.7998 23.4812 25.707 23.574L23.04 26.241C22.9473 26.334 22.8371 26.4078 22.7157 26.4581C22.5944 26.5084 22.4643 26.5332 22.333 26.533Z" fill="#8CA9C2"/>
</svg>
