<svg width="25" height="24" viewBox="0 0 25 24" fill="none" xmlns="http://www.w3.org/2000/svg">
<path d="M12.5 22.75C6.57 22.75 1.75 17.93 1.75 12C1.75 6.07 6.57 1.25 12.5 1.25C18.43 1.25 23.25 6.07 23.25 12C23.25 17.93 18.43 22.75 12.5 22.75ZM12.5 2.75C7.4 2.75 3.25 6.9 3.25 12C3.25 17.1 7.4 21.25 12.5 21.25C17.6 21.25 21.75 17.1 21.75 12C21.75 6.9 17.6 2.75 12.5 2.75Z" fill="#2475EF"/>
<path d="M12.5 15.25C12.09 15.25 11.75 14.91 11.75 14.5V8.5C11.75 8.09 12.09 7.75 12.5 7.75C12.91 7.75 13.25 8.09 13.25 8.5V14.5C13.25 14.91 12.91 15.25 12.5 15.25Z" fill="#2475EF"/>
<path d="M12.5 16.2499C12.31 16.2499 12.12 16.1799 11.97 16.0299L8.97 13.0299C8.68 12.7399 8.68 12.2599 8.97 11.9699C9.26 11.6799 9.74 11.6799 10.03 11.9699L12.5 14.4399L14.97 11.9699C15.26 11.6799 15.74 11.6799 16.03 11.9699C16.32 12.2599 16.32 12.7399 16.03 13.0299L13.03 16.0299C12.88 16.1799 12.69 16.2499 12.5 16.2499Z" fill="#2475EF"/>
</svg>
