<svg width="24" height="24" viewBox="0 0 24 24" fill="none" xmlns="http://www.w3.org/2000/svg">
<path d="M12 22.75C6.07 22.75 1.25 17.93 1.25 12C1.25 6.07 6.07 1.25 12 1.25C17.93 1.25 22.75 6.07 22.75 12C22.75 17.93 17.93 22.75 12 22.75ZM12 2.75C6.9 2.75 2.75 6.9 2.75 12C2.75 17.1 6.9 21.25 12 21.25C17.1 21.25 21.25 17.1 21.25 12C21.25 6.9 17.1 2.75 12 2.75Z" fill="#8CA9C2"/>
<path d="M12 16.25C11.59 16.25 11.25 15.91 11.25 15.5V9.5C11.25 9.09 11.59 8.75 12 8.75C12.41 8.75 12.75 9.09 12.75 9.5V15.5C12.75 15.91 12.41 16.25 12 16.25Z" fill="#8CA9C2"/>
<path d="M14.9999 12.25C14.8099 12.25 14.6199 12.18 14.4699 12.03L11.9999 9.56L9.52994 12.03C9.23994 12.32 8.75994 12.32 8.46994 12.03C8.17994 11.74 8.17994 11.26 8.46994 10.97L11.4699 7.97C11.7599 7.68 12.2399 7.68 12.5299 7.97L15.5299 10.97C15.8199 11.26 15.8199 11.74 15.5299 12.03C15.3799 12.18 15.1899 12.25 14.9999 12.25Z" fill="#8CA9C2"/>
</svg>
