<svg width="12" height="10" viewBox="0 0 12 10" fill="none" xmlns="http://www.w3.org/2000/svg">
<path d="M7.09096 1.06254L7.09096 8.93743C7.09096 9.08978 7.1449 9.22165 7.25287 9.33294C7.36081 9.44416 7.48863 9.5 7.63637 9.5C7.7841 9.5 7.91186 9.44419 8.01995 9.33294L11.8381 5.39548C11.9459 5.28423 12 5.15244 12 5C12 4.84756 11.9459 4.71577 11.8381 4.60443L8.01995 0.666971C7.91198 0.555626 7.7841 0.5 7.63637 0.5C7.48866 0.5 7.36081 0.555626 7.25287 0.666971C7.1449 0.778439 7.09096 0.910224 7.09096 1.06254ZM4.90895 8.93743L4.90895 1.06254C4.90895 0.910101 4.85498 0.778316 4.74713 0.666971C4.63916 0.555626 4.51137 0.5 4.36363 0.5C4.2159 0.5 4.08802 0.555626 3.98011 0.666971L0.162032 4.60443C0.0540608 4.7159 1.73429e-06 4.84768 1.72823e-06 5C1.72217e-06 5.15232 0.0540607 5.28423 0.162032 5.39548L3.98014 9.33294C4.08802 9.44416 4.2159 9.5 4.36366 9.5C4.51137 9.5 4.63916 9.44419 4.74716 9.33294C4.8551 9.22168 4.90895 9.08978 4.90895 8.93743Z" fill="#2475EF"/>
</svg>
