<svg width="26" height="26" viewBox="0 0 26 26" fill="none" xmlns="http://www.w3.org/2000/svg">
    <path d="M13 3C13.552 3 14 2.552 14 2V1C14 0.448 13.552 0 13 0C12.448 0 12 0.448 12 1V2C12 2.552 12.448 3 13 3Z"
        fill="#8CA9C2" />
    <path
        d="M4.27298 11.7276C4.82498 11.7276 5.27298 11.2796 5.27298 10.7276C5.27298 6.66356 8.57298 3.20056 12.629 3.00856C16.69 2.82106 20.3105 5.94856 20.693 9.98906C20.716 10.2306 20.7275 10.4786 20.7275 10.7276C20.7275 11.2796 21.1755 11.7276 21.7275 11.7276C22.2795 11.7276 22.7275 11.2796 22.7275 10.7276C22.7275 10.4156 22.713 10.1036 22.684 9.80056C22.2025 4.71256 17.644 0.770555 12.5345 1.01106C7.42748 1.25256 3.27298 5.61156 3.27298 10.7276C3.27298 11.2801 3.72098 11.7276 4.27298 11.7276Z"
        fill="#8CA9C2" />
    <path
        d="M2.3985 18.548C2.645 18.548 2.8925 18.457 3.086 18.2745C4.476 16.9585 5.2735 15.1055 5.2735 13.191C5.2735 12.639 4.8255 12.191 4.2735 12.191C3.7215 12.191 3.2735 12.639 3.2735 13.191C3.2735 14.5585 2.704 15.8825 1.711 16.822C1.31 17.2015 1.2925 17.8345 1.672 18.236C1.8685 18.443 2.1335 18.548 2.3985 18.548Z"
        fill="#8CA9C2" />
    <path
        d="M23.6025 18.548C23.868 18.548 24.1325 18.4435 24.329 18.2355C24.7085 17.8345 24.691 17.2015 24.29 16.822C23.297 15.8825 22.7275 14.559 22.7275 13.191C22.7275 12.639 22.2795 12.191 21.7275 12.191C21.1755 12.191 20.7275 12.639 20.7275 13.191C20.7275 15.1065 21.525 16.9595 22.915 18.2745C23.109 18.457 23.356 18.548 23.6025 18.548Z"
        fill="#8CA9C2" />
    <path
        d="M13 26C15.71 26 18 23.71 18 21C18 20.448 17.552 20 17 20C16.448 20 16 20.448 16 21C16 22.626 14.626 24 13 24C11.374 24 10 22.626 10 21C10 20.448 9.552 20 9 20C8.448 20 8 20.448 8 21C8 23.71 10.29 26 13 26Z"
        fill="#8CA9C2" />
    <path
        d="M22.228 22C23.4465 22 24.5305 21.255 24.99 20.102C25.45 18.9475 25.1755 17.66 24.2905 16.822C23.8895 16.442 23.257 16.4595 22.8765 16.8605C22.497 17.2615 22.514 17.8945 22.915 18.2745C23.353 18.6895 23.192 19.212 23.132 19.362C23.0725 19.511 22.831 20 22.228 20C21.676 20 21.228 20.448 21.228 21C21.228 21.552 21.6755 22 22.228 22Z"
        fill="#8CA9C2" />
    <path
        d="M3.77298 22.0001C4.32498 22.0001 4.77298 21.5521 4.77298 21.0001C4.77298 20.4481 4.32498 20.0001 3.77298 20.0001C3.16948 20.0001 2.92748 19.5091 2.86748 19.3586C2.80798 19.2091 2.64748 18.6886 3.08548 18.2741C3.48648 17.8941 3.50398 17.2616 3.12448 16.8601C2.74448 16.4591 2.11198 16.4416 1.71048 16.8211C0.82548 17.6591 0.55048 18.9456 1.00948 20.0981C1.46948 21.2536 2.55448 22.0001 3.77298 22.0001Z"
        fill="#8CA9C2" />
    <path
        d="M21.728 14.1905C22.28 14.1905 22.728 13.7425 22.728 13.1905V10.7275C22.728 10.1755 22.28 9.72754 21.728 9.72754C21.176 9.72754 20.728 10.1755 20.728 10.7275V13.1905C20.728 13.7425 21.1755 14.1905 21.728 14.1905Z"
        fill="#8CA9C2" />
    <path
        d="M4.27298 14.1905C4.82498 14.1905 5.27298 13.7425 5.27298 13.1905V10.7275C5.27298 10.1755 4.82498 9.72754 4.27298 9.72754C3.72098 9.72754 3.27298 10.1755 3.27298 10.7275V13.1905C3.27298 13.7425 3.72098 14.1905 4.27298 14.1905Z"
        fill="#8CA9C2" />
    <path
        d="M3.773 22H22.228C22.78 22 23.228 21.552 23.228 21C23.228 20.448 22.78 20 22.228 20H3.7735C3.2215 20 2.7735 20.448 2.7735 21C2.7735 21.552 3.221 22 3.773 22Z"
        fill="#8CA9C2" />
</svg>