<svg width="24" height="24" viewBox="0 0 24 24" fill="none" xmlns="http://www.w3.org/2000/svg">
<path d="M4.82772 22C4.5503 21.999 4.27664 21.939 4.02681 21.8244C3.72057 21.6877 3.46149 21.4711 3.27971 21.2C3.09793 20.9288 3.00093 20.6142 3 20.2927V3.70742C3.00134 3.4811 3.04975 3.25727 3.14246 3.04879C3.23516 2.84032 3.37033 2.65131 3.54019 2.49264C3.71005 2.33397 3.91124 2.20878 4.13221 2.12425C4.35317 2.03972 4.58954 1.99754 4.82772 2.00011H19.2031C19.6788 2.00267 20.1343 2.18337 20.4707 2.503C20.8071 2.82263 20.9973 3.2554 21 3.70742V20.2927C20.9933 20.6016 20.8985 20.9031 20.7257 21.1649C20.5529 21.4267 20.3085 21.639 20.0187 21.7792C19.7288 21.9194 19.4044 21.9822 19.0799 21.961C18.7554 21.9397 18.4431 21.8352 18.1763 21.6585L12.2208 17.4147C12.1771 17.3814 12.1227 17.3633 12.0667 17.3633C12.0108 17.3633 11.9564 17.3814 11.9127 17.4147L5.90588 21.6585C5.59415 21.8789 5.21628 21.9986 4.82772 22ZM4.82772 3.46352C4.75964 3.46352 4.69435 3.48921 4.64621 3.53495C4.59807 3.58069 4.57102 3.64273 4.57102 3.70742V20.2927C4.57066 20.3378 4.58404 20.3821 4.60954 20.4202C4.63505 20.4583 4.67159 20.4885 4.71477 20.5073C4.75408 20.5329 4.80061 20.5466 4.84826 20.5466C4.89591 20.5466 4.94244 20.5329 4.98175 20.5073L10.9886 16.2439C11.3009 16.0252 11.6788 15.9073 12.0667 15.9073C12.4547 15.9073 12.8325 16.0252 13.1449 16.2439L19.1004 20.4878C19.1397 20.5134 19.1862 20.5271 19.2339 20.5271C19.2815 20.5271 19.3281 20.5134 19.3674 20.4878C19.4106 20.469 19.4471 20.4387 19.4726 20.4007C19.4981 20.3626 19.5115 20.3183 19.5111 20.2732V3.70742C19.5119 3.67084 19.504 3.63456 19.488 3.60127C19.472 3.56798 19.4484 3.53853 19.4188 3.51511C19.3892 3.49169 19.3545 3.47489 19.3171 3.46596C19.2798 3.45703 19.2408 3.45619 19.2031 3.46352H4.82772Z" fill="#8CA9C2"/>
</svg>
