<svg width="24" height="24" viewBox="0 0 24 24" fill="none" xmlns="http://www.w3.org/2000/svg">
<path d="M12.5002 22.75H4.08021C2.51021 22.75 1.22021 21.49 1.22021 19.93V5.09C1.22021 3.56 1.79021 2.37 2.83021 1.72C3.88021 1.06 5.24022 1.08 6.65022 1.78L11.0902 3.96C12.3002 4.56 13.2502 6.07 13.2502 7.41V22C13.2502 22.41 12.9102 22.75 12.5002 22.75ZM4.56021 2.75C4.21021 2.75 3.89021 2.83 3.62021 3C3.04021 3.36 2.72021 4.11 2.72021 5.09V19.93C2.72021 20.66 3.33021 21.25 4.08021 21.25H11.7502V7.41C11.7502 6.64 11.1302 5.65 10.4202 5.31L5.98022 3.13C5.47021 2.88 4.99021 2.75 4.56021 2.75Z" fill="#8CA9C2"/>
<path d="M18.81 22.75H12.5C12.09 22.75 11.75 22.41 11.75 22V10.42C11.75 10.19 11.85 9.98002 12.03 9.84002C12.21 9.70002 12.43 9.64002 12.66 9.69002L13.13 9.79002L19.67 11.25C21.66 11.69 22.66 12.86 22.72 14.85C22.73 14.85 22.73 14.95 22.73 15.06V18.84C22.72 21.4 21.37 22.75 18.81 22.75ZM13.25 21.25H18.81C20.57 21.25 21.22 20.6 21.22 18.84V14.98C21.17 13.61 20.65 13 19.34 12.71L13.25 11.35V21.25Z" fill="#8CA9C2"/>
<path d="M8.97 9.75H5.5C5.09 9.75 4.75 9.41 4.75 9C4.75 8.59 5.09 8.25 5.5 8.25H8.97C9.38 8.25 9.72 8.59 9.72 9C9.72 9.41 9.39 9.75 8.97 9.75Z" fill="#8CA9C2"/>
<path d="M8.97 13.75H5.5C5.09 13.75 4.75 13.41 4.75 13C4.75 12.59 5.09 12.25 5.5 12.25H8.97C9.38 12.25 9.72 12.59 9.72 13C9.72 13.41 9.39 13.75 8.97 13.75Z" fill="#8CA9C2"/>
<path d="M15.2202 17.75C13.5702 17.75 12.2202 16.4 12.2202 14.75V10.52C12.2202 10.29 12.3202 10.08 12.5002 9.92998C12.6802 9.77998 12.9102 9.72998 13.1302 9.77998L17.6302 10.79C17.9702 10.87 18.2202 11.17 18.2202 11.52V14.74C18.2202 16.4 16.8802 17.75 15.2202 17.75ZM13.7202 11.46V14.75C13.7202 15.58 14.3902 16.25 15.2202 16.25C16.0502 16.25 16.7202 15.58 16.7202 14.75V12.13L13.7202 11.46Z" fill="#8CA9C2"/>
<path d="M19.7202 17.75C18.0702 17.75 16.7202 16.4 16.7202 14.75V11.53C16.7202 11.3 16.8202 11.09 17.0002 10.95C17.1802 10.81 17.4102 10.75 17.6302 10.8L19.6602 11.25C21.6502 11.69 22.6502 12.86 22.7102 14.85C22.7102 14.87 22.7102 14.89 22.7102 14.91C22.6302 16.5 21.3202 17.75 19.7202 17.75ZM18.2202 12.46V14.75C18.2202 15.58 18.8902 16.25 19.7202 16.25C20.5102 16.25 21.1602 15.64 21.2102 14.86C21.1602 13.6 20.6402 13 19.3402 12.71L18.2202 12.46Z" fill="#8CA9C2"/>
</svg>
