<svg width="28" height="28" viewBox="0 0 28 28" fill="none" xmlns="http://www.w3.org/2000/svg">
<path d="M20.4207 12.6772C20.8473 12.6772 21.1931 12.3314 21.1931 11.9048C21.1931 11.4782 20.8473 11.1324 20.4207 11.1324C19.9941 11.1324 19.6483 11.4782 19.6483 11.9048C19.6483 12.3314 19.9941 12.6772 20.4207 12.6772Z" fill="#8CA9C2"/>
<path d="M26.069 7.4903V12.9445C26.069 13.3648 25.7251 13.7087 25.2952 13.7087C24.8654 13.7087 24.5311 13.3648 24.5311 12.9445V7.4903C24.5311 6.32496 23.5854 5.37931 22.4296 5.37931H20.9873V6.5351C20.9873 6.95539 20.6434 7.29926 20.2231 7.29926C19.8028 7.29926 19.459 6.95539 19.459 6.5351V5.37931H14.7212V6.5351C14.7212 6.95539 14.3773 7.29926 13.9475 7.29926C13.5176 7.29926 13.1833 6.95539 13.1833 6.5351V5.37931H8.49326V6.5351C8.49326 6.95539 8.14939 7.29926 7.7291 7.29926C7.30881 7.29926 6.95539 6.95539 6.95539 6.5351V5.37931H5.57035C4.405 5.37931 3.4689 6.32496 3.4689 7.4903V22.4296C3.4689 23.5854 4.405 24.5311 5.57035 24.5311H12.8967C13.317 24.5311 13.6609 24.875 13.6609 25.3048C13.6609 25.7346 13.317 26.069 12.8967 26.069H5.57035C3.56442 26.069 1.93103 24.4356 1.93103 22.4296V7.4903C1.93103 5.48438 3.56442 3.85098 5.57035 3.85098H6.95539V2.69519C6.95539 2.2749 7.29926 1.93103 7.7291 1.93103C8.15894 1.93103 8.49326 2.2749 8.49326 2.69519V3.85098H13.1833V2.69519C13.1833 2.2749 13.5272 1.93103 13.9475 1.93103C14.3677 1.93103 14.7212 2.2749 14.7212 2.69519V3.85098H19.459V2.69519C19.459 2.2749 19.8028 1.93103 20.2231 1.93103C20.6434 1.93103 20.9873 2.2749 20.9873 2.69519V3.85098H22.4296C24.4356 3.85098 26.069 5.48438 26.069 7.4903Z" fill="#8CA9C2"/>
<path d="M20.6621 15.0042C17.5435 15.0042 15.0042 17.5435 15.0042 20.6621C15.0042 23.7807 17.5435 26.3297 20.6621 26.3297C23.7807 26.3297 26.3297 23.7904 26.3297 20.6621C26.3297 17.5338 23.7904 15.0042 20.6621 15.0042ZM20.6621 24.7752C18.3931 24.7752 16.549 22.931 16.549 20.6621C16.549 18.3931 18.3931 16.549 20.6621 16.549C22.931 16.549 24.7752 18.3931 24.7752 20.6621C24.7752 22.931 22.931 24.7752 20.6621 24.7752Z" fill="#8CA9C2"/>
<path d="M22.8441 20.6621C22.8441 21.0966 22.4965 21.4441 22.0717 21.4441H20.6621C20.2372 21.4441 19.8896 21.0966 19.8896 20.6621V18.6828C19.8896 18.2579 20.2372 17.9007 20.6621 17.9007C21.0869 17.9007 21.4345 18.2579 21.4345 18.6828V19.8897H22.0717C22.4965 19.8897 22.8441 20.2372 22.8441 20.6621Z" fill="#8CA9C2"/>
<path d="M16.211 12.6772C16.6376 12.6772 16.9834 12.3314 16.9834 11.9048C16.9834 11.4782 16.6376 11.1324 16.211 11.1324C15.7844 11.1324 15.4386 11.4782 15.4386 11.9048C15.4386 12.3314 15.7844 12.6772 16.211 12.6772Z" fill="#8CA9C2"/>
<path d="M12.7738 16.1145C12.7738 16.5393 12.4262 16.8869 12.0014 16.8869C11.5766 16.8869 11.229 16.5393 11.229 16.1145C11.229 15.6897 11.5766 15.3421 12.0014 15.3421C12.4262 15.3421 12.7738 15.6897 12.7738 16.1145Z" fill="#8CA9C2"/>
<path d="M8.56416 11.9048C8.56416 12.3297 8.21657 12.6772 7.79174 12.6772C7.36692 12.6772 7.00967 12.3297 7.00967 11.9048C7.00967 11.48 7.35726 11.1324 7.79174 11.1324C8.22623 11.1324 8.56416 11.48 8.56416 11.9048Z" fill="#8CA9C2"/>
<path d="M8.56416 16.1145C8.56416 16.5393 8.21657 16.8869 7.79174 16.8869C7.36692 16.8869 7.00967 16.5393 7.00967 16.1145C7.00967 15.6897 7.35726 15.3421 7.79174 15.3421C8.22623 15.3421 8.56416 15.6897 8.56416 16.1145Z" fill="#8CA9C2"/>
<path d="M8.56416 20.3241C8.56416 20.749 8.21657 21.0966 7.79174 21.0966C7.36692 21.0966 7.00967 20.749 7.00967 20.3241C7.00967 19.8993 7.35726 19.5517 7.79174 19.5517C8.22623 19.5517 8.56416 19.8993 8.56416 20.3241Z" fill="#8CA9C2"/>
<path d="M12.7738 20.3241C12.7738 20.749 12.4262 21.0966 12.0014 21.0966C11.5766 21.0966 11.229 20.749 11.229 20.3241C11.229 19.8993 11.5766 19.5517 12.0014 19.5517C12.4262 19.5517 12.7738 19.8993 12.7738 20.3241Z" fill="#8CA9C2"/>
<path d="M12.7738 11.9048C12.7738 12.3297 12.4262 12.6772 12.0014 12.6772C11.5766 12.6772 11.229 12.3297 11.229 11.9048C11.229 11.48 11.5766 11.1324 12.0014 11.1324C12.4262 11.1324 12.7738 11.48 12.7738 11.9048Z" fill="#8CA9C2"/>
</svg>
