<svg width="26" height="26" viewBox="0 0 26 26" fill="none" xmlns="http://www.w3.org/2000/svg">
<path d="M23.9047 10.1775C24.1794 9.39741 24.3294 8.55904 24.3294 7.68622C24.3294 3.53995 20.9562 0.166687 16.81 0.166687H7.6862C3.53993 0.166687 0.166672 3.53995 0.166672 7.68622C0.166672 9.61518 0.897169 11.3766 2.09558 12.7091C1.8137 13.5086 1.67058 14.3462 1.67058 15.2058C1.67058 19.3797 5.04384 22.7754 9.19011 22.7754H12.7713L17.1432 25.706C17.2694 25.7906 17.4154 25.8334 17.562 25.8334C17.6833 25.8334 17.8049 25.804 17.9159 25.7448C18.1608 25.6141 18.3138 25.3591 18.3138 25.0814V22.7754H19.0385C19.1546 22.7754 19.2647 22.749 19.363 22.702C23.0143 22.1865 25.8333 19.0212 25.8333 15.2058C25.8333 13.3261 25.1518 11.5594 23.9047 10.1775ZM1.67058 7.68622C1.67058 4.3692 4.36919 1.67059 7.6862 1.67059H16.81C20.127 1.67059 22.8255 4.3692 22.8255 7.68622C22.8255 11.0032 20.127 13.7018 16.81 13.7018H13C12.8528 13.7018 12.7089 13.745 12.5861 13.826L9.19011 16.0651V14.4538C9.19011 14.0385 8.85344 13.7018 8.43816 13.7018H7.6862C4.36919 13.7018 1.67058 11.0032 1.67058 7.68622ZM18.3139 21.2715H17.5619C17.1466 21.2715 16.8099 21.6082 16.8099 22.0235V23.6721L13.4187 21.3989C13.2949 21.3158 13.1491 21.2715 13 21.2715H9.19011C5.87309 21.2715 3.17448 18.5504 3.17448 15.2058C3.17448 14.7324 3.22868 14.2677 3.33565 13.8156C4.29489 14.4985 5.42027 14.9624 6.63853 15.1331C6.73639 15.1797 6.84597 15.2058 6.96157 15.2058H7.6862V17.4617C7.6862 17.7383 7.8381 17.9926 8.08168 18.1237C8.32506 18.2548 8.62098 18.2418 8.85208 18.0894L13.2256 15.2058H16.81C19.4934 15.2058 21.8527 13.7925 23.1836 11.6715C23.9279 12.6915 24.3294 13.9154 24.3294 15.2058C24.3294 18.5504 21.6309 21.2715 18.3139 21.2715Z" fill="#8CA9C2"/>
<path d="M7.6862 6.18231C6.85695 6.18231 6.1823 6.85696 6.1823 7.68622C6.1823 8.51547 6.85695 9.19012 7.6862 9.19012C8.51546 9.19012 9.19011 8.51547 9.19011 7.68622C9.19011 6.85696 8.51546 6.18231 7.6862 6.18231Z" fill="#8CA9C2"/>
<path d="M12.248 6.18231C11.4188 6.18231 10.7441 6.85696 10.7441 7.68622C10.7441 8.51547 11.4188 9.19012 12.248 9.19012C13.0773 9.19012 13.752 8.51547 13.752 7.68622C13.752 6.85696 13.0773 6.18231 12.248 6.18231Z" fill="#8CA9C2"/>
<path d="M16.8099 6.18231C15.9807 6.18231 15.306 6.85696 15.306 7.68622C15.306 8.51547 15.9807 9.19012 16.8099 9.19012C17.6392 9.19012 18.3138 8.51547 18.3138 7.68622C18.3138 6.85696 17.6392 6.18231 16.8099 6.18231Z" fill="#8CA9C2"/>
</svg>
