<svg width="23" height="22" viewBox="0 0 23 22" fill="none" xmlns="http://www.w3.org/2000/svg">
    <path
        d="M22.5 11C22.5 4.9 17.6 5.84319e-08 11.5 1.31174e-07C5.4 2.03915e-07 0.499998 4.9 0.499998 11C0.499998 17.1 5.4 22 11.5 22C17.6 22 22.5 17.1 22.5 11ZM2.5 11C2.5 6 6.5 2 11.5 2C16.5 2 20.5 6 20.5 11C20.5 16 16.5 20 11.5 20C6.5 20 2.5 16 2.5 11ZM15.9 14.9C16 14.8 16 14.6 16 14.5L16 8.5C16 7.9 15.6 7.5 15 7.5C14.4 7.5 14 7.9 14 8.5L14 12.1L8.7 6.8C8.3 6.4 7.7 6.4 7.3 6.8C7.1 7 7 7.3 7 7.5C7 7.7 7.1 8 7.3 8.2L12.6 13.5L9 13.5C8.4 13.5 8 13.9 8 14.5C8 15.1 8.4 15.5 9 15.5L15 15.5C15.1 15.5 15.3 15.5 15.4 15.4C15.6 15.3 15.8 15.1 15.9 14.9Z"
        fill="#47B990" />
</svg>