<svg width="24" height="24" viewBox="0 0 24 24" fill="none" xmlns="http://www.w3.org/2000/svg">
<path d="M12 2C6.475 2 2 6.475 2 12C2 17.525 6.475 22 12 22C17.525 22 22 17.525 22 12C22 6.475 17.525 2 12 2ZM15.125 10.6583L11.3167 14.3C11.1833 14.4333 10.9917 14.5 10.8083 14.5C10.625 14.5 10.45 14.4333 10.3 14.3L8.86667 12.9333C8.59167 12.6667 8.59167 12.2333 8.86667 11.9667C9.14167 11.7 9.6 11.7 9.875 11.9667L10.8 12.85L14.1083 9.69167C14.3833 9.425 14.8417 9.425 15.1167 9.69167C15.3917 9.95833 15.3917 10.3917 15.1167 10.6583H15.125Z" fill="#2475EF"/>
</svg>
