<svg width="23" height="22" viewBox="0 0 23 22" fill="none" xmlns="http://www.w3.org/2000/svg">
    <path
        d="M11.5 0C5.4 0 0.5 4.9 0.5 11C0.5 17.1 5.4 22 11.5 22C17.6 22 22.5 17.1 22.5 11C22.5 4.9 17.6 0 11.5 0ZM11.5 20C6.5 20 2.5 16 2.5 11C2.5 6 6.5 2 11.5 2C16.5 2 20.5 6 20.5 11C20.5 16 16.5 20 11.5 20ZM15.4 6.6C15.3 6.5 15.1 6.5 15 6.5H9C8.4 6.5 8 6.9 8 7.5C8 8.1 8.4 8.5 9 8.5H12.6L7.3 13.8C6.9 14.2 6.9 14.8 7.3 15.2C7.5 15.4 7.8 15.5 8 15.5C8.2 15.5 8.5 15.4 8.7 15.2L14 9.9V13.5C14 14.1 14.4 14.5 15 14.5C15.6 14.5 16 14.1 16 13.5V7.5C16 7.4 16 7.2 15.9 7.1C15.8 6.9 15.6 6.7 15.4 6.6Z"
        fill="#FF576B" />
</svg>