<svg width="22" height="22" viewBox="0 0 22 22" fill="none" xmlns="http://www.w3.org/2000/svg">
<path d="M18.7829 3.22001C14.4935 -1.06943 7.51183 -1.06943 3.22239 3.22001C1.14457 5.29864 0 8.06169 0 11.0003C0 13.9388 1.14457 16.7019 3.22239 18.7797C5.36754 20.9249 8.18511 21.997 11.0026 21.997C13.8202 21.997 16.6378 20.9249 18.7829 18.7797C23.0723 14.4903 23.0723 7.51027 18.7829 3.22001ZM17.5778 17.5746C13.9523 21.2001 8.05298 21.2001 4.42746 17.5746C2.67182 15.819 1.7045 13.4838 1.7045 11.0003C1.7045 8.51678 2.67182 6.18157 4.42746 4.42508C8.05298 0.799556 13.9523 0.800416 17.5778 4.42508C21.2025 8.0506 21.2025 13.9499 17.5778 17.5746Z" fill="#F62E46"/>
<path d="M14.6746 13.3559L12.2618 10.9466L14.6746 8.53725C15.007 8.20488 15.007 7.66541 14.6754 7.33214C14.3422 6.99805 13.8027 6.99891 13.4695 7.33128L11.0551 9.74232L8.64064 7.33128C8.30742 6.99891 7.76794 6.99805 7.43471 7.33214C7.10235 7.66536 7.10235 8.20484 7.43557 8.53725L9.84834 10.9466L7.43557 13.3559C7.10235 13.6883 7.10235 14.2277 7.43471 14.561C7.60092 14.728 7.81993 14.8107 8.03813 14.8107C8.25633 14.8107 8.47448 14.7272 8.64069 14.5618L11.0551 12.1508L13.4696 14.5618C13.6358 14.728 13.8539 14.8107 14.0721 14.8107C14.2903 14.8107 14.5093 14.7272 14.6755 14.561C15.0078 14.2277 15.0078 13.6883 14.6746 13.3559Z" fill="#F62E46"/>
</svg>
