<svg width="32" height="33" viewBox="0 0 32 33" fill="none" xmlns="http://www.w3.org/2000/svg">
<g clip-path="url(#clip0_3305_4120)">
<path fill-rule="evenodd" clip-rule="evenodd" d="M15.6414 0.613167C15.8567 0.462278 16.1434 0.462278 16.3587 0.613167L28.1742 8.89317C28.4565 9.09099 28.5253 9.48 28.328 9.76267L26.6124 12.2211C26.5174 12.3572 26.3722 12.45 26.2088 12.4789C26.0493 12.5071 25.8852 12.4723 25.7511 12.382V24.9579C25.7511 25.3031 25.4712 25.5829 25.1261 25.5829C24.7809 25.5829 24.5011 25.3031 24.5011 24.9579V11.5062L16.0001 5.54888L7.49906 11.5062V24.9579C7.49906 25.3031 7.21924 25.5829 6.87406 25.5829C6.52888 25.5829 6.24906 25.3031 6.24906 24.9579V12.382C6.1149 12.4723 5.95081 12.5071 5.79128 12.4789C5.62785 12.45 5.48263 12.3572 5.38764 12.2211L3.67208 9.76267C3.47482 9.47999 3.54366 9.09098 3.82594 8.89317L15.6414 0.613167ZM6.05435 10.9922L15.6414 4.27385C15.8567 4.12296 16.1434 4.12297 16.3587 4.27386L25.9457 10.9922L26.946 9.55886L16.0001 1.88819L5.05412 9.55886L6.05435 10.9922Z" fill="#C3208C"/>
<path d="M16.0001 21.441C19.0699 21.441 21.5584 18.964 21.5584 15.9084C21.5584 12.8529 19.0699 10.3759 16.0001 10.3759C12.9304 10.3759 10.4419 12.8529 10.4419 15.9084C10.4419 18.964 12.9304 21.441 16.0001 21.441Z" fill="#FFBCCC"/>
<path fill-rule="evenodd" clip-rule="evenodd" d="M16.0001 12.506C16.3453 12.506 16.6251 12.7858 16.6251 13.131V15.5644L17.872 16.354C18.1637 16.5387 18.2504 16.9248 18.0657 17.2164C17.881 17.508 17.4949 17.5947 17.2033 17.4101L15.6657 16.4364C15.4848 16.3218 15.3751 16.1225 15.3751 15.9084V13.131C15.3751 12.7858 15.6549 12.506 16.0001 12.506ZM13.236 25.7667C13.5733 25.6932 13.9062 25.9071 13.9797 26.2443L15.07 31.25H16.9302L18.0205 26.2443C18.0939 25.9071 18.4269 25.6932 18.7642 25.7667C19.1014 25.8401 19.3153 26.1731 19.2418 26.5104L18.0444 32.008C17.9818 32.2952 17.7276 32.5 17.4337 32.5H14.5665C14.2725 32.5 14.0183 32.2952 13.9558 32.008L12.7583 26.5104C12.6849 26.1731 12.8987 25.8401 13.236 25.7667Z" fill="#C3208C"/>
<path d="M5.72754 24.3329H26.2727V27.0023H5.72754V24.3329Z" fill="#FFBCCC"/>
</g>
<defs>
<clipPath id="clip0_3305_4120">
<rect width="32" height="32" fill="white" transform="translate(0 0.5)"/>
</clipPath>
</defs>
</svg>
