<svg width="24" height="19" viewBox="0 0 24 19" fill="none" xmlns="http://www.w3.org/2000/svg">
<path d="M20.9778 8.07413C21.1095 7.59188 21.176 7.0936 21.176 6.58642C21.176 3.47317 18.6432 0.940369 15.53 0.940369C13.6968 0.940369 12.018 1.80488 10.9566 3.27413C9.25448 2.46601 7.08952 2.72542 5.61394 4.20099C5.12056 4.6942 4.74306 5.29098 4.5088 5.9481C4.27454 6.60522 4.18938 7.30621 4.25948 8.00031H3.76341C1.6883 8.00031 0 9.6886 0 11.7637C0 13.8351 1.67573 15.5271 3.76341 15.5271H7.50891C7.7678 15.5271 7.97766 15.3173 7.97766 15.0584C7.97766 14.7995 7.7678 14.5896 7.50891 14.5896H3.76341C2.20416 14.5896 0.9375 13.3281 0.9375 11.7637C0.9375 10.2055 2.20519 8.93781 3.76341 8.93781H4.45317C4.67236 9.63948 5.05908 10.2996 5.61389 10.8545C5.79694 11.0375 6.09366 11.0376 6.27684 10.8545C6.45989 10.6714 6.45989 10.3746 6.27684 10.1916C5.23078 9.14551 4.91569 7.60585 5.38988 6.27081C5.98973 4.56774 7.74895 3.49332 9.60122 3.81901C10.0491 3.89818 10.4789 4.05825 10.8694 4.29137C10.8746 4.29446 10.88 4.2969 10.8853 4.29981C11.1469 4.45815 11.3884 4.64755 11.6045 4.8639C11.7876 5.04699 12.0843 5.04699 12.2675 4.86395C12.4505 4.6809 12.4505 4.38409 12.2675 4.20104C12.1094 4.04301 11.9404 3.89628 11.7618 3.76192C12.6493 2.57457 14.0274 1.87787 15.53 1.87787C18.1263 1.87787 20.2385 3.99015 20.2385 6.58642C20.2385 7.17831 20.1301 7.75515 19.9164 8.30096C19.799 8.60077 20.0126 8.92899 20.3364 8.94034C21.8535 8.99377 23.0625 10.2378 23.0625 11.7637C23.0625 13.3219 21.7948 14.5896 20.2366 14.5896H16.4911C16.2322 14.5896 16.0223 14.7995 16.0223 15.0584C16.0223 15.3173 16.2322 15.5271 16.4911 15.5271H20.2366C22.3117 15.5271 24 13.8389 24 11.7637C24 9.93399 22.6964 8.41656 20.9778 8.07413Z" fill="#020288"/>
<path fill-rule="evenodd" clip-rule="evenodd" d="M7 13.865C7 14.5205 7.13012 15.1466 7.36463 15.7177C8.0939 17.4859 9.83376 18.73 11.8656 18.73C13.8962 18.73 15.6361 17.4859 16.3654 15.7177C16.5998 15.1466 16.73 14.5205 16.73 13.865C16.73 11.1786 14.5516 9 11.8656 9C9.17836 8.99996 7 11.1786 7 13.865Z" fill="#FFBEBC"/>
<path d="M11.875 17.2358C11.6466 17.2358 11.4614 17.0518 11.4614 16.8234V16.821C11.4614 16.5926 11.6466 16.4073 11.875 16.4073C12.1034 16.4073 12.2886 16.5926 12.2886 16.821C12.2886 17.0494 12.1034 17.2358 11.875 17.2358ZM11.8656 15.4324C11.6372 15.4324 11.452 15.2472 11.452 15.0188V13.607C11.452 13.3786 11.6372 13.1933 11.8656 13.1933C12.1247 13.1933 12.3658 13.0896 12.5445 12.9012C12.7228 12.7132 12.8134 12.4669 12.7997 12.2077C12.7745 11.7203 12.3723 11.3311 11.8843 11.3213C11.4101 11.3105 11.0035 11.6579 10.9374 12.1264C10.9316 12.1698 10.9287 12.2136 10.9286 12.2574C10.9286 12.4858 10.7434 12.671 10.515 12.671C10.2865 12.671 10.1014 12.4858 10.1014 12.2574C10.1014 12.1777 10.1068 12.0983 10.1178 12.0145C10.2428 11.1281 11.0073 10.4755 11.9009 10.4942C12.8206 10.5126 13.5782 11.2464 13.6258 12.1645C13.6515 12.6522 13.4807 13.1162 13.1446 13.4705C12.9096 13.7183 12.6069 13.8913 12.2792 13.9709V15.0188C12.2792 15.2472 12.094 15.4324 11.8656 15.4324Z" fill="#020288"/>
</svg>
