<svg width="24" height="19" viewBox="0 0 24 19" fill="none" xmlns="http://www.w3.org/2000/svg">
<path d="M20.9778 8.07413C21.1095 7.59188 21.176 7.0936 21.176 6.58642C21.176 3.47317 18.6432 0.940369 15.53 0.940369C13.6968 0.940369 12.018 1.80488 10.9566 3.27413C9.25448 2.46601 7.08952 2.72542 5.61394 4.20099C5.12056 4.6942 4.74306 5.29098 4.5088 5.9481C4.27454 6.60522 4.18938 7.30621 4.25948 8.00031H3.76341C1.6883 8.00031 0 9.6886 0 11.7637C0 13.8351 1.67573 15.5271 3.76341 15.5271H7.50891C7.7678 15.5271 7.97766 15.3173 7.97766 15.0584C7.97766 14.7995 7.7678 14.5896 7.50891 14.5896H3.76341C2.20416 14.5896 0.9375 13.3281 0.9375 11.7637C0.9375 10.2055 2.20519 8.93781 3.76341 8.93781H4.45317C4.67236 9.63948 5.05908 10.2996 5.61389 10.8545C5.79694 11.0375 6.09366 11.0376 6.27684 10.8545C6.45989 10.6714 6.45989 10.3746 6.27684 10.1916C5.23078 9.14551 4.91569 7.60585 5.38988 6.27081C5.98973 4.56774 7.74895 3.49332 9.60122 3.81901C10.0491 3.89818 10.4789 4.05825 10.8694 4.29137C10.8746 4.29446 10.88 4.2969 10.8853 4.29981C11.1469 4.45815 11.3884 4.64755 11.6045 4.8639C11.7876 5.04699 12.0843 5.04699 12.2675 4.86395C12.4505 4.6809 12.4505 4.38409 12.2675 4.20104C12.1094 4.04301 11.9404 3.89628 11.7618 3.76192C12.6493 2.57457 14.0274 1.87787 15.53 1.87787C18.1263 1.87787 20.2385 3.99015 20.2385 6.58642C20.2385 7.17831 20.1301 7.75515 19.9164 8.30096C19.799 8.60077 20.0126 8.92899 20.3364 8.94034C21.8535 8.99377 23.0625 10.2378 23.0625 11.7637C23.0625 13.3219 21.7948 14.5896 20.2366 14.5896H16.4911C16.2322 14.5896 16.0223 14.7995 16.0223 15.0584C16.0223 15.3173 16.2322 15.5271 16.4911 15.5271H20.2366C22.3117 15.5271 24 13.8389 24 11.7637C24 9.93399 22.6964 8.41656 20.9778 8.07413Z" fill="#020288"/>
<path fill-rule="evenodd" clip-rule="evenodd" d="M16.7338 13.8664C16.7338 11.179 14.5548 9 11.8674 9C9.17897 9 7 11.179 7 13.8664C7 14.102 7.01669 14.3336 7.04906 14.5594C7.38476 16.919 9.41453 18.7338 11.8674 18.7338C14.3203 18.7338 16.3491 16.919 16.6847 14.5594C16.7175 14.3299 16.734 14.0983 16.7338 13.8664Z" fill="#FFF59B"/>
<path d="M9.70604 15.2239C10.1575 15.9414 10.9565 16.4184 11.8674 16.4184C13.2758 16.4184 14.4184 15.2759 14.4184 13.8665M14.0277 12.51C13.5763 11.7925 12.7773 11.3154 11.8674 11.3154C10.4579 11.3154 9.31543 12.4579 9.31543 13.8664" stroke="#020288" stroke-width="0.8" stroke-miterlimit="10" stroke-linecap="round" stroke-linejoin="round"/>
<path d="M13.59 14.4877L14.4184 13.8664L15.0387 14.6948M10.1438 13.2461L9.31539 13.8664L8.69507 13.038" stroke="#020288" stroke-miterlimit="10" stroke-linecap="round" stroke-linejoin="round"/>
</svg>
