<svg width="24" height="20" viewBox="0 0 24 20" fill="none" xmlns="http://www.w3.org/2000/svg">
<path d="M20.9778 8.07413C21.1095 7.59188 21.176 7.0936 21.176 6.58642C21.176 3.47317 18.6432 0.940369 15.53 0.940369C13.6968 0.940369 12.018 1.80488 10.9566 3.27413C9.25448 2.46601 7.08952 2.72542 5.61394 4.20099C5.12056 4.6942 4.74306 5.29098 4.5088 5.9481C4.27454 6.60522 4.18938 7.30621 4.25948 8.00031H3.76341C1.6883 8.00031 0 9.6886 0 11.7637C0 13.8351 1.67573 15.5271 3.76341 15.5271H7.50891C7.7678 15.5271 7.97766 15.3173 7.97766 15.0584C7.97766 14.7995 7.7678 14.5896 7.50891 14.5896H3.76341C2.20416 14.5896 0.9375 13.3281 0.9375 11.7637C0.9375 10.2055 2.20519 8.93781 3.76341 8.93781H4.45317C4.67236 9.63948 5.05908 10.2996 5.61389 10.8545C5.79694 11.0375 6.09366 11.0376 6.27684 10.8545C6.45989 10.6714 6.45989 10.3746 6.27684 10.1916C5.23078 9.14551 4.91569 7.60585 5.38988 6.27081C5.98973 4.56774 7.74895 3.49332 9.60122 3.81901C10.0491 3.89818 10.4789 4.05825 10.8694 4.29137C10.8746 4.29446 10.88 4.2969 10.8853 4.29981C11.1469 4.45815 11.3884 4.64755 11.6045 4.8639C11.7876 5.04699 12.0843 5.04699 12.2675 4.86395C12.4505 4.6809 12.4505 4.38409 12.2675 4.20104C12.1094 4.04301 11.9404 3.89628 11.7618 3.76192C12.6493 2.57457 14.0274 1.87787 15.53 1.87787C18.1263 1.87787 20.2385 3.99015 20.2385 6.58642C20.2385 7.17831 20.1301 7.75515 19.9164 8.30096C19.799 8.60077 20.0126 8.92899 20.3364 8.94034C21.8535 8.99377 23.0625 10.2378 23.0625 11.7637C23.0625 13.3219 21.7948 14.5896 20.2366 14.5896H16.4911C16.2322 14.5896 16.0223 14.7995 16.0223 15.0584C16.0223 15.3173 16.2322 15.5271 16.4911 15.5271H20.2366C22.3117 15.5271 24 13.8389 24 11.7637C24 9.93399 22.6964 8.41656 20.9778 8.07413Z" fill="#020288"/>
<path fill-rule="evenodd" clip-rule="evenodd" d="M7 14.865C7 15.5205 7.13012 16.1466 7.36463 16.7177C8.0939 18.4859 9.83376 19.73 11.8656 19.73C13.8962 19.73 15.6361 18.4859 16.3654 16.7177C16.5998 16.1466 16.73 15.5205 16.73 14.865C16.73 12.1786 14.5516 10 11.8656 10C9.17836 9.99996 7 12.1786 7 14.865Z" fill="#A4FCC4"/>
<path d="M13.3028 13.4382L11.281 15.4601L10.2004 14.3795C10.0174 14.1965 9.72073 14.1965 9.53749 14.3795C9.35445 14.5626 9.35445 14.8594 9.53749 15.0425L10.9495 16.4545C11.1325 16.6374 11.4293 16.6376 11.6124 16.4545L13.9657 14.1012C14.1488 13.9182 14.1488 13.6213 13.9657 13.4382C13.8778 13.3503 13.7586 13.3009 13.6343 13.3009C13.51 13.3009 13.3907 13.3503 13.3028 13.4382Z" fill="#020288"/>
<path d="M13.3028 13.4382L11.281 15.4601L10.2004 14.3795C10.0174 14.1965 9.72073 14.1965 9.53749 14.3795C9.35445 14.5626 9.35445 14.8594 9.53749 15.0425L10.9495 16.4545C11.1325 16.6374 11.4293 16.6376 11.6124 16.4545L13.9657 14.1012C14.1488 13.9182 14.1488 13.6213 13.9657 13.4382C13.8778 13.3503 13.7586 13.3009 13.6343 13.3009C13.51 13.3009 13.3907 13.3503 13.3028 13.4382Z" fill="#020288"/>
</svg>
