<svg width="20" height="21" viewBox="0 0 20 21" fill="none" xmlns="http://www.w3.org/2000/svg">
<mask id="mask0_1084_3169" style="mask-type:luminance" maskUnits="userSpaceOnUse" x="0" y="1" width="19" height="19">
<path fill-rule="evenodd" clip-rule="evenodd" d="M0.833496 1.3335H18.7443V19.245H0.833496V1.3335Z" fill="white"/>
</mask>
<g mask="url(#mask0_1084_3169)">
<path fill-rule="evenodd" clip-rule="evenodd" d="M5.09053 16.896C5.57386 16.896 6.02969 17.0793 6.51219 17.2735C9.46803 18.6402 12.9639 18.0185 15.2414 15.7418C18.2464 12.7352 18.2464 7.84433 15.2414 4.83933C13.7864 3.38433 11.8514 2.5835 9.79136 2.5835C7.73053 2.5835 5.79469 3.38516 4.34053 4.84016C2.06219 7.11683 1.44219 10.6127 2.79636 13.5402C2.99136 14.0227 3.17969 14.4927 3.17969 14.981C3.17969 15.4685 3.01219 15.9593 2.86469 16.3927C2.74303 16.7493 2.55886 17.2877 2.67719 17.406C2.79303 17.526 3.33469 17.3368 3.69219 17.2143C4.12136 17.0677 4.60803 16.8993 5.09053 16.896ZM9.77053 19.2452C8.49719 19.2452 7.21553 18.976 6.01636 18.421C5.66303 18.2793 5.33219 18.146 5.09469 18.146C4.82136 18.1477 4.45386 18.2743 4.09886 18.3968C3.37053 18.6468 2.46386 18.9585 1.79303 18.2902C1.12469 17.621 1.43303 16.7168 1.68136 15.9893C1.80386 15.631 1.92969 15.261 1.92969 14.981C1.92969 14.751 1.81886 14.4577 1.64886 14.0352C0.088027 10.6643 0.809694 6.60183 3.45719 3.956C5.14719 2.26516 7.39636 1.3335 9.79053 1.3335C12.1847 1.3335 14.4347 2.26433 16.1247 3.95516C19.618 7.4485 19.618 13.1318 16.1247 16.6252C14.4122 18.3385 12.1064 19.2452 9.77053 19.2452Z" fill="#4B6F8E"/>
</g>
<path fill-rule="evenodd" clip-rule="evenodd" d="M13.0803 11.4692C12.6203 11.4692 12.2437 11.0967 12.2437 10.6358C12.2437 10.175 12.6128 9.80249 13.0728 9.80249H13.0803C13.5403 9.80249 13.9137 10.175 13.9137 10.6358C13.9137 11.0967 13.5403 11.4692 13.0803 11.4692Z" fill="#4B6F8E"/>
<path fill-rule="evenodd" clip-rule="evenodd" d="M9.73999 11.4692C9.27999 11.4692 8.90332 11.0967 8.90332 10.6358C8.90332 10.175 9.27165 9.80249 9.73249 9.80249H9.73999C10.2 9.80249 10.5733 10.175 10.5733 10.6358C10.5733 11.0967 10.2 11.4692 9.73999 11.4692Z" fill="#4B6F8E"/>
<path fill-rule="evenodd" clip-rule="evenodd" d="M6.39868 11.4692C5.93868 11.4692 5.56201 11.0967 5.56201 10.6358C5.56201 10.175 5.93118 9.80249 6.39118 9.80249H6.39868C6.85868 9.80249 7.23201 10.175 7.23201 10.6358C7.23201 11.0967 6.85868 11.4692 6.39868 11.4692Z" fill="#4B6F8E"/>
</svg>
