<svg width="24" height="24" viewBox="0 0 24 24" fill="none" xmlns="http://www.w3.org/2000/svg">
<path fill-rule="evenodd" clip-rule="evenodd" d="M12 -6.10352e-05C12.1268 -6.1661e-05 12.2481 0.0512747 12.3364 0.142241L14.5626 2.43625L17.6375 1.56269C17.7595 1.52805 17.8902 1.54427 18 1.60765C18.1098 1.67103 18.1892 1.77616 18.2202 1.89908L19.0011 4.99886L22.1009 5.77977C22.2238 5.81073 22.3289 5.89016 22.3923 5.99994C22.4557 6.10971 22.4719 6.24048 22.4373 6.36242L21.5637 9.43737L23.8577 11.6635C23.9487 11.7518 24 11.8732 24 11.9999C24 12.1267 23.9487 12.2481 23.8577 12.3363L21.5637 14.5626L22.4373 17.6375C22.4719 17.7594 22.4557 17.8902 22.3923 17.9999C22.3289 18.1097 22.2238 18.1891 22.1009 18.2201L19.0011 19.0011L18.2202 22.1008C18.1892 22.2237 18.1098 22.3289 18 22.3922C17.8902 22.4556 17.7595 22.4718 17.6375 22.4372L14.5626 21.5636L12.3364 23.8576C12.2481 23.9486 12.1268 23.9999 12 23.9999C11.8732 23.9999 11.7519 23.9486 11.6636 23.8576L9.43739 21.5636L6.36248 22.4372C6.24054 22.4718 6.10978 22.4556 6 22.3922C5.89022 22.3289 5.8108 22.2237 5.77983 22.1008L4.99888 19.001L1.89915 18.2201C1.77623 18.1891 1.67109 18.1097 1.60771 17.9999C1.54433 17.8902 1.52811 17.7594 1.56275 17.6375L2.43632 14.5625L0.142305 12.3363C0.0513381 12.2481 6.25855e-07 12.1267 0 11.9999C-6.25843e-07 11.8732 0.0513357 11.7518 0.142302 11.6635L2.43632 9.43733L1.56275 6.36242C1.52811 6.24048 1.54433 6.10972 1.60771 5.99994C1.67109 5.89016 1.77622 5.81074 1.89914 5.77977L4.99892 4.99882L5.77983 1.89908C5.81079 1.77617 5.89022 1.67103 6 1.60765C6.10978 1.54427 6.24054 1.52805 6.36248 1.56269L9.43744 2.43625L11.6636 0.142245C11.7519 0.0512771 11.8732 -6.04093e-05 12 -6.10352e-05ZM12 1.14178L9.91516 3.29015C9.79503 3.41395 9.61661 3.46176 9.45067 3.41462L6.57093 2.59651L5.8396 5.49945C5.79746 5.66673 5.66684 5.79735 5.49957 5.83949L2.59657 6.57086L3.41468 9.45056C3.46182 9.6165 3.41401 9.79492 3.29022 9.91505L1.14184 11.9999L3.29022 14.0848C3.41401 14.2049 3.46182 14.3833 3.41468 14.5493L2.59657 17.429L5.49952 18.1603C5.66679 18.2025 5.79741 18.3331 5.83955 18.5004L6.57092 21.4034L9.45062 20.5853C9.61656 20.5381 9.79498 20.5859 9.91511 20.7097L12 22.8581L14.0848 20.7097C14.205 20.5859 14.3834 20.5381 14.5493 20.5853L17.4291 21.4034L18.1604 18.5004C18.2025 18.3332 18.3332 18.2025 18.5004 18.1604L21.4034 17.429L20.5853 14.5493C20.5382 14.3834 20.586 14.205 20.7098 14.0848L22.8582 11.9999L20.7098 9.9151C20.586 9.79497 20.5382 9.61655 20.5853 9.45061L21.4034 6.57086L18.5005 5.83954C18.3332 5.7974 18.2026 5.66678 18.1605 5.49951L17.4291 2.59651L14.5494 3.41462C14.3834 3.46176 14.205 3.41395 14.0849 3.29016L12 1.14178Z" fill="#04002E"/>
<path fill-rule="evenodd" clip-rule="evenodd" d="M10.5937 12.6168L15.473 7.73749L17.2959 9.56032L10.5937 16.2625L6.7041 12.3728L8.52693 10.55L10.5937 12.6168Z" fill="#52B85C"/>
</svg>
