<svg width="14" height="16" viewBox="0 0 14 16" fill="none" xmlns="http://www.w3.org/2000/svg">
<path fill-rule="evenodd" clip-rule="evenodd" d="M13.4455 2.59438C13.7481 2.59438 14 2.85278 14 3.18157V3.48557C14 3.80637 13.7481 4.07277 13.4455 4.07277H0.555219C0.251891 4.07277 0 3.80637 0 3.48557V3.18157C0 2.85278 0.251891 2.59438 0.555219 2.59438H2.823C3.28366 2.59438 3.68457 2.25758 3.7882 1.78239L3.90696 1.23679C4.09153 0.493596 4.69894 0 5.3941 0H8.6059C9.2935 0 9.90772 0.493596 10.0855 1.19759L10.2126 1.78159C10.3154 2.25758 10.7163 2.59438 11.1778 2.59438H13.4455ZM12.2934 13.7072C12.5301 11.4376 12.9447 6.04567 12.9447 5.99127C12.9598 5.82647 12.9076 5.67047 12.804 5.54487C12.6928 5.42727 12.5521 5.35768 12.397 5.35768H1.60882C1.45299 5.35768 1.30473 5.42727 1.20186 5.54487C1.09747 5.67047 1.04603 5.82647 1.0536 5.99127C1.05499 6.00127 1.06986 6.1912 1.09473 6.50873C1.2052 7.91933 1.51287 11.8481 1.71169 13.7072C1.85239 15.0768 2.72606 15.9376 3.99157 15.9688C4.96812 15.992 5.97417 16 7.00292 16C7.9719 16 8.95602 15.992 9.96282 15.9688C11.2722 15.9456 12.1451 15.1 12.2934 13.7072Z" fill="#FF576B"/>
</svg>
