<svg width="16" height="16" viewBox="0 0 16 16" fill="none" xmlns="http://www.w3.org/2000/svg">
<g clip-path="url(#clip0_2095_806)">
<path d="M8.42659 3.61335L1.56659 10.4733C1.31381 10.7266 1.15405 11.0579 1.11325 11.4133L0.839921 13.8133C0.822103 13.9821 0.840087 14.1527 0.892697 14.3141C0.945307 14.4754 1.03136 14.6239 1.14524 14.7497C1.25912 14.8755 1.39825 14.9759 1.55357 15.0443C1.70888 15.1127 1.87688 15.1476 2.04659 15.1467H2.18659L4.58659 14.8733C4.94066 14.8324 5.2712 14.6753 5.52659 14.4267L12.3866 7.56001L8.42659 3.61335ZM14.7066 3.03335L12.9666 1.29335C12.821 1.14721 12.648 1.03125 12.4576 0.952127C12.2671 0.873005 12.0628 0.832275 11.8566 0.832275C11.6503 0.832275 11.4461 0.873005 11.2556 0.952127C11.0651 1.03125 10.8921 1.14721 10.7466 1.29335L9.13325 2.90668L13.0933 6.86668L14.7066 5.25335C14.8527 5.10779 14.9687 4.9348 15.0478 4.74432C15.1269 4.55384 15.1677 4.34961 15.1677 4.14335C15.1677 3.93708 15.1269 3.73285 15.0478 3.54237C14.9687 3.35189 14.8527 3.1789 14.7066 3.03335Z" fill="#2475EF"/>
</g>
<defs>
<clipPath id="clip0_2095_806">
<rect width="16" height="16" fill="white"/>
</clipPath>
</defs>
</svg>
