<svg width="121" height="80" viewBox="0 0 121 80" fill="none" xmlns="http://www.w3.org/2000/svg">
<g clip-path="url(#clip0_852_1518)">
<path d="M8.74747 64.8841C8.0505 64.4537 7.28788 64.2359 6.4596 64.2359C5.82323 64.2359 5.29798 64.3423 4.86869 64.56C4.44444 64.7727 4.10101 65.0411 3.83838 65.3601C3.57576 65.6792 3.37374 65.9881 3.23737 66.297H3.14141V60.6051H0V75.7463H3.09596V73.9283H3.23737C3.37879 74.2423 3.58586 74.5562 3.85859 74.8651C4.13131 75.174 4.47475 75.4272 4.90404 75.6298C5.32828 75.8324 5.84848 75.9336 6.45455 75.9336C7.31313 75.9336 8.09091 75.7108 8.78788 75.2652C9.48485 74.8196 10.0354 74.1612 10.4394 73.2903C10.8434 72.4193 11.0505 71.3508 11.0505 70.0848C11.0505 68.8188 10.8434 67.6997 10.4242 66.8337C10.005 65.9678 9.44949 65.3196 8.75252 64.8892L8.74747 64.8841ZM7.56566 71.8116C7.38384 72.318 7.11111 72.713 6.75758 72.9965C6.40404 73.2801 5.9697 73.4219 5.4596 73.4219C4.94949 73.4219 4.52525 73.2852 4.17172 73.0067C3.81818 72.7282 3.54545 72.3382 3.35859 71.8369C3.17172 71.3356 3.08081 70.7431 3.08081 70.0696C3.08081 69.3961 3.17172 68.8087 3.35859 68.3073C3.54545 67.8111 3.81313 67.4262 4.16667 67.1528C4.5202 66.8844 4.94949 66.7477 5.4596 66.7477C5.9697 66.7477 6.40909 66.8894 6.76263 67.168C7.11616 67.4465 7.38384 67.8364 7.56566 68.3377C7.74747 68.834 7.83838 69.4113 7.83838 70.0696C7.83838 70.7279 7.74747 71.3153 7.56061 71.8167L7.56566 71.8116Z" fill="#455CD9"/>
<path d="M17.6263 72.7232H17.5101L15.1667 64.3829H11.8636L15.9243 76.0654L15.7424 76.5464C15.6061 76.9009 15.4243 77.1541 15.2071 77.301C14.9899 77.4478 14.7273 77.5187 14.4344 77.5086C14.1364 77.4985 13.803 77.4377 13.4344 77.3212L12.7273 79.6709C12.9546 79.7671 13.2374 79.8431 13.5859 79.9038C13.9344 79.9646 14.303 79.995 14.702 79.995C15.4798 79.995 16.1414 79.8684 16.6919 79.6202C17.2424 79.3721 17.697 79.0176 18.0606 78.5619C18.4243 78.1061 18.7071 77.5744 18.9192 76.9617L23.3232 64.3778H20L17.6313 72.7181L17.6263 72.7232Z" fill="#455CD9"/>
<path d="M39.2525 70.1203H39.1212L32.601 60.6001H29.798V75.7413H32.9899V66.2109H33.101L39.6717 75.7413H42.4293V60.6001H39.2525V70.1203Z" fill="#455CD9"/>
<path d="M53.8283 65.6691C53.3434 65.193 52.7778 64.8335 52.1313 64.5955C51.4848 64.3575 50.7879 64.236 50.0404 64.236C48.9293 64.236 47.9596 64.4841 47.1364 64.9753C46.3131 65.4665 45.6768 66.1552 45.2222 67.0363C44.7677 67.9174 44.5454 68.9454 44.5454 70.1101C44.5454 71.2748 44.7727 72.3433 45.2222 73.2194C45.6768 74.0954 46.3182 74.7689 47.1566 75.2449C47.9949 75.721 48.9949 75.959 50.1616 75.959C51.0959 75.959 51.9192 75.8172 52.6364 75.5285C53.3535 75.2399 53.9343 74.8348 54.3939 74.3132C54.8485 73.7916 55.1515 73.1839 55.298 72.4851L52.3939 72.2927C52.2879 72.5763 52.1313 72.8193 51.9242 73.0168C51.7172 73.2143 51.4697 73.3612 51.1768 73.4625C50.8889 73.5637 50.5656 73.6093 50.2172 73.6093C49.6919 73.6093 49.2374 73.4979 48.8535 73.2751C48.4697 73.0523 48.1717 72.7383 47.9646 72.3281C47.7576 71.9179 47.6515 71.4318 47.6515 70.8697H55.3636V69.9987C55.3636 69.0315 55.2273 68.1858 54.9596 67.4667C54.6919 66.7426 54.3131 66.1451 53.8283 65.664V65.6691ZM47.6616 68.915C47.6818 68.5099 47.7828 68.1352 47.9697 67.7959C48.1768 67.4262 48.4646 67.1376 48.8283 66.9148C49.1919 66.692 49.6161 66.5856 50.0909 66.5856C50.5656 66.5856 50.9495 66.6869 51.298 66.8844C51.6465 67.0819 51.9141 67.3604 52.1111 67.7098C52.3081 68.0592 52.404 68.4593 52.404 68.915H47.6566H47.6616Z" fill="#455CD9"/>
<path d="M63.8232 69.148L61.7727 68.7327C61.2475 68.6213 60.8737 68.4694 60.6566 68.282C60.4394 68.0947 60.3333 67.8668 60.3333 67.5933C60.3333 67.2541 60.5 66.9806 60.8333 66.7781C61.1667 66.5755 61.5808 66.4692 62.0657 66.4692C62.4293 66.4692 62.7424 66.5299 63.005 66.6515C63.2677 66.773 63.4798 66.93 63.6414 67.1325C63.803 67.33 63.9091 67.5528 63.9596 67.801L66.8333 67.6237C66.697 66.5806 66.2121 65.7551 65.3939 65.1475C64.5707 64.5398 63.4444 64.236 62.0151 64.236C61.0455 64.236 60.202 64.3778 59.4798 64.6664C58.7576 64.95 58.202 65.3602 57.8081 65.8868C57.4141 66.4135 57.2121 67.0414 57.2121 67.7706C57.2121 68.6163 57.4798 69.3151 58.0202 69.862C58.5606 70.4089 59.3788 70.7938 60.4848 71.0166L62.4444 71.4065C62.9343 71.5078 63.298 71.6445 63.5354 71.8319C63.7727 72.0192 63.8939 72.2522 63.899 72.5358C63.899 72.875 63.7222 73.1536 63.3889 73.3662C63.0505 73.5789 62.6061 73.6853 62.0556 73.6853C61.505 73.6853 61.0354 73.5637 60.6768 73.3257C60.3182 73.0877 60.0909 72.7383 60 72.2775L56.9091 72.4395C57.0606 73.5232 57.5808 74.379 58.4697 75.0069C59.3586 75.6349 60.5505 75.9488 62.0505 75.9488C63.0354 75.9488 63.904 75.7919 64.6566 75.4779C65.4091 75.1639 66.005 74.7284 66.4394 74.1663C66.8737 73.6042 67.0909 72.951 67.0909 72.2066C67.0909 71.3862 66.8182 70.7279 66.2778 70.2266C65.7374 69.7253 64.9141 69.3607 63.8131 69.1328L63.8232 69.148Z" fill="#455CD9"/>
<path d="M75.4849 69.148L73.4343 68.7327C72.9091 68.6213 72.5354 68.4694 72.3182 68.282C72.101 68.0947 71.995 67.8668 71.995 67.5933C71.995 67.2541 72.1616 66.9806 72.4949 66.7781C72.8283 66.5755 73.2424 66.4692 73.7273 66.4692C74.0909 66.4692 74.404 66.5299 74.6667 66.6515C74.9293 66.773 75.1414 66.93 75.303 67.1325C75.4646 67.33 75.5707 67.5528 75.6212 67.801L78.4949 67.6237C78.3586 66.5806 77.8788 65.7551 77.0556 65.1475C76.2323 64.5398 75.1061 64.236 73.6768 64.236C72.7071 64.236 71.8636 64.3778 71.1414 64.6664C70.4192 64.95 69.8636 65.3602 69.4697 65.8868C69.0758 66.4135 68.8737 67.0414 68.8737 67.7706C68.8737 68.6163 69.1414 69.3151 69.6818 69.862C70.2222 70.4089 71.0404 70.7938 72.1465 71.0166L74.1061 71.4065C74.596 71.5078 74.9596 71.6445 75.197 71.8319C75.4343 72.0192 75.5556 72.2522 75.5606 72.5358C75.5606 72.875 75.3838 73.1536 75.0505 73.3662C74.7121 73.5789 74.2677 73.6853 73.7172 73.6853C73.1667 73.6853 72.697 73.5637 72.3384 73.3257C71.9798 73.0877 71.7525 72.7383 71.6616 72.2775L68.5707 72.4395C68.7222 73.5232 69.2424 74.379 70.1313 75.0069C71.0202 75.6349 72.2121 75.9488 73.7121 75.9488C74.697 75.9488 75.5657 75.7919 76.3182 75.4779C77.0707 75.1639 77.6667 74.7284 78.101 74.1663C78.5354 73.6042 78.7525 72.951 78.7525 72.2066C78.7525 71.3862 78.4798 70.7279 77.9394 70.2266C77.399 69.7253 76.5758 69.3607 75.4747 69.1328L75.4849 69.148Z" fill="#455CD9"/>
<path d="M84.6263 67.087C84.9899 66.8236 85.4141 66.692 85.899 66.692C86.4747 66.692 86.9394 66.8641 87.298 67.2136C87.6566 67.563 87.8737 68.0187 87.9596 68.5859H90.9242C90.8788 67.7098 90.6414 66.9452 90.2071 66.2919C89.7727 65.6387 89.1869 65.1373 88.4444 64.7778C87.702 64.4183 86.8384 64.236 85.8485 64.236C84.702 64.236 83.7121 64.4841 82.8838 64.9804C82.0505 65.4766 81.4141 66.1653 80.9646 67.0414C80.5151 67.9225 80.2879 68.9454 80.2879 70.1051C80.2879 71.2647 80.5101 72.2674 80.9545 73.1536C81.399 74.0347 82.0404 74.7234 82.8737 75.2196C83.7071 75.7159 84.702 75.964 85.8636 75.964C86.8737 75.964 87.7424 75.7817 88.4798 75.4121C89.2172 75.0424 89.798 74.5259 90.2172 73.8726C90.6364 73.2143 90.8737 72.4497 90.9242 71.5837H87.9596C87.899 71.9838 87.7778 72.3231 87.5859 72.6066C87.3939 72.8902 87.1566 73.108 86.8687 73.2548C86.5808 73.4017 86.2576 73.4776 85.899 73.4776C85.4141 73.4776 84.9848 73.346 84.6212 73.0776C84.2576 72.8092 83.9747 72.4243 83.7778 71.9179C83.5808 71.4116 83.4798 70.7938 83.4798 70.0696C83.4798 69.3455 83.5808 68.7479 83.7828 68.2415C83.9848 67.7402 84.2677 67.3553 84.6263 67.092V67.087Z" fill="#455CD9"/>
<path d="M101.091 65.1475C100.641 64.8386 100.126 64.6056 99.5505 64.4588C98.9747 64.3119 98.3687 64.236 97.7424 64.236C96.8384 64.236 96.0404 64.3727 95.3586 64.6461C94.6717 64.9196 94.1162 65.3095 93.6818 65.8159C93.2475 66.3223 92.9596 66.9198 92.8131 67.6085L95.7172 67.8465C95.8232 67.4718 96.0455 67.1579 96.3788 66.9097C96.7121 66.6616 97.1616 66.535 97.7273 66.535C98.2626 66.535 98.6768 66.6616 98.9697 66.9198C99.2626 67.1781 99.4091 67.5376 99.4091 68.0086V68.0542C99.4091 68.2972 99.3182 68.4795 99.1364 68.6011C98.9545 68.7226 98.6616 68.8188 98.2576 68.8796C97.8535 68.9404 97.3232 69.0062 96.6667 69.0771C96.1061 69.1328 95.5707 69.2239 95.0606 69.3556C94.5505 69.4873 94.101 69.6848 93.702 69.9481C93.303 70.2114 92.9899 70.5557 92.7576 70.9811C92.5253 71.4116 92.4091 71.9382 92.4091 72.5712C92.4091 73.3207 92.5707 73.9435 92.899 74.4448C93.2273 74.9462 93.6717 75.3209 94.2374 75.5741C94.803 75.8273 95.4444 75.9539 96.1717 75.9539C96.7323 75.9539 97.2273 75.8779 97.6515 75.726C98.0808 75.5741 98.4444 75.3665 98.7525 75.0981C99.0556 74.8297 99.298 74.5157 99.4848 74.1613H99.5707V75.7362H102.551V68.0744C102.551 67.4009 102.419 66.8186 102.162 66.3324C101.899 65.8463 101.545 65.4513 101.096 65.1373L101.091 65.1475ZM99.4293 71.685C99.4293 72.0851 99.3283 72.4395 99.1263 72.7586C98.9242 73.0725 98.6465 73.3257 98.2929 73.508C97.9394 73.6903 97.5303 73.7865 97.0707 73.7865C96.6111 73.7865 96.1919 73.6751 95.8788 73.4523C95.5657 73.2295 95.4091 72.9003 95.4091 72.475C95.4091 72.1813 95.4848 71.9331 95.6364 71.7306C95.7879 71.5331 96.005 71.371 96.2778 71.2546C96.5505 71.1381 96.8737 71.052 97.2424 70.9963C97.4141 70.971 97.6061 70.9457 97.8182 70.9102C98.0303 70.8798 98.2424 70.8393 98.4545 70.7988C98.6667 70.7583 98.8586 70.7077 99.0253 70.657C99.197 70.6064 99.3283 70.5456 99.4293 70.4849V71.6901V71.685Z" fill="#455CD9"/>
<path d="M108.131 60.6001H104.99V75.7413H108.131V60.6001Z" fill="#455CD9"/>
<path d="M119.46 65.6691C118.975 65.193 118.409 64.8335 117.763 64.5955C117.116 64.3575 116.419 64.236 115.672 64.236C114.561 64.236 113.591 64.4841 112.768 64.9753C111.944 65.4665 111.308 66.1552 110.854 67.0363C110.399 67.9174 110.177 68.9454 110.177 70.1101C110.177 71.2748 110.404 72.3433 110.854 73.2194C111.308 74.0954 111.949 74.7689 112.788 75.2449C113.626 75.721 114.626 75.959 115.793 75.959C116.727 75.959 117.55 75.8172 118.268 75.5285C118.985 75.2399 119.566 74.8348 120.025 74.3132C120.48 73.7916 120.783 73.1839 120.929 72.4851L118.025 72.2927C117.919 72.5763 117.758 72.8193 117.556 73.0168C117.354 73.2143 117.101 73.3612 116.808 73.4625C116.52 73.5637 116.197 73.6093 115.848 73.6093C115.323 73.6093 114.869 73.4979 114.485 73.2751C114.101 73.0523 113.803 72.7383 113.596 72.3281C113.389 71.9179 113.283 71.4318 113.283 70.8697H120.995V69.9987C120.995 69.0315 120.859 68.1858 120.591 67.4667C120.323 66.7426 119.944 66.1451 119.46 65.664V65.6691ZM113.293 68.915C113.313 68.5099 113.414 68.1352 113.601 67.7959C113.808 67.4262 114.096 67.1376 114.46 66.9148C114.823 66.692 115.247 66.5856 115.722 66.5856C116.197 66.5856 116.581 66.6869 116.929 66.8844C117.278 67.0819 117.545 67.3604 117.742 67.7098C117.939 68.0592 118.035 68.4593 118.035 68.915H113.288H113.293Z" fill="#455CD9"/>
<path d="M35.4798 39.3518H11.6667V31.3913H27.7828V19.6936H11.6667V11.6977H35.4798V0H0V51.0495H35.4798V39.3518Z" fill="#455CD9"/>
<path d="M74.5909 24.2714C73.1818 22.8586 71.505 21.7293 69.6111 20.9191C67.7121 20.1089 65.6616 19.6936 63.5151 19.6936H53.6919C53.1313 19.6936 52.6111 19.5924 52.1364 19.3898C51.6566 19.1872 51.2323 18.8986 50.8737 18.5391C50.5151 18.1795 50.2323 17.7491 50.0303 17.2579C49.8283 16.7667 49.7222 16.235 49.7222 15.6729C49.7222 15.1108 49.8232 14.5943 50.0252 14.1132C50.2273 13.6321 50.5151 13.2067 50.8737 12.8472C51.2374 12.4826 51.6515 12.2041 52.1364 11.9965C52.6111 11.7939 53.1364 11.6926 53.6919 11.6926H77.1313V0H53.6919C51.5454 0 49.5 0.420306 47.6111 1.24573C45.7323 2.06608 44.0656 3.2004 42.6566 4.61324C41.2475 6.02608 40.1161 7.69718 39.298 9.58096C38.4747 11.4749 38.0555 13.5258 38.0555 15.6779C38.0555 17.8301 38.4747 19.8911 39.2929 21.7952C40.1111 23.6891 41.2424 25.3652 42.6515 26.7831C44.0606 28.196 45.7273 29.3303 47.606 30.1507C49.4949 30.9761 51.5404 31.3964 53.6869 31.3964H63.5101C64.0656 31.3964 64.5909 31.4977 65.0656 31.7002C65.5454 31.9028 65.9747 32.1914 66.3283 32.551C66.6869 32.9105 66.9697 33.3359 67.1768 33.8169C67.3788 34.2929 67.4798 34.8196 67.4798 35.3766C67.4798 35.9337 67.3788 36.4603 67.1768 36.9363C66.9697 37.4275 66.6919 37.8428 66.3283 38.2074C65.9697 38.5669 65.5454 38.8505 65.0656 39.0581C64.5808 39.2607 64.0757 39.3619 63.5101 39.3619H40.7879V51.0596H63.5101C65.6566 51.0596 67.7071 50.6393 69.6111 49.819C71.5 48.9986 73.1717 47.8643 74.5858 46.4515C76 45.0386 77.1212 43.3624 77.9293 41.4787C78.7374 39.5848 79.1515 37.5339 79.1515 35.3817C79.1515 33.2295 78.7424 31.1786 77.9293 29.2695C77.1212 27.3706 75.9949 25.6944 74.5858 24.2765L74.5909 24.2714Z" fill="#455CD9"/>
<path d="M84.5 26.7781C85.9091 28.1909 87.5758 29.3252 89.4546 30.1456C91.3434 30.971 93.3889 31.3913 95.5354 31.3913H105.359C105.914 31.3913 106.439 31.4926 106.914 31.6952C107.394 31.8977 107.823 32.1864 108.182 32.5459C108.54 32.9054 108.823 33.3308 109.03 33.8119C109.232 34.2879 109.333 34.8145 109.333 35.3716C109.333 35.9286 109.232 36.4552 109.03 36.9313C108.823 37.4225 108.545 37.8377 108.182 38.2023C107.823 38.5618 107.399 38.8454 106.919 39.0531C106.434 39.2556 105.929 39.3569 105.364 39.3569H82.6414V51.0546H105.364C107.51 51.0546 109.561 50.6343 111.46 49.8139C113.348 48.9935 115.02 47.8592 116.434 46.4464C117.848 45.0336 118.97 43.3574 119.778 41.4736C120.586 39.5797 121 37.5288 121 35.3766C121 33.2245 120.591 31.1736 119.778 29.2645C118.97 27.3655 117.843 25.6893 116.434 24.2714C115.025 22.8586 113.348 21.7293 111.455 20.9191C109.556 20.1089 107.505 19.6936 105.364 19.6936H95.5404C94.9798 19.6936 94.4596 19.5924 93.9849 19.3898C93.5051 19.1872 93.0808 18.8986 92.7222 18.5391C92.3636 18.1795 92.0808 17.7491 91.8788 17.2579C91.6768 16.7667 91.5707 16.235 91.5707 15.6729C91.5707 15.1108 91.6717 14.5943 91.8737 14.1132C92.0758 13.6321 92.3636 13.2067 92.7222 12.8472C93.0859 12.4826 93.5 12.2041 93.9849 11.9965C94.4596 11.7939 94.9849 11.6926 95.5404 11.6926H118.98V0H95.5404C93.3939 0 91.3485 0.420306 89.4596 1.24573C87.5808 2.06608 85.9142 3.20041 84.5051 4.61324C83.096 6.02608 81.9647 7.69718 81.1465 9.58096C80.3232 11.4749 79.9041 13.5258 79.9041 15.6779C79.9041 17.8301 80.3232 19.8911 81.1414 21.7952C81.9596 23.6891 83.0909 25.3652 84.5 26.7831V26.7781Z" fill="#455CD9"/>
</g>
<defs>
<clipPath id="clip0_852_1518">
<rect width="121" height="80" fill="white"/>
</clipPath>
</defs>
</svg>
