<svg width="18" height="22" viewBox="0 0 18 22" fill="none" xmlns="http://www.w3.org/2000/svg">
<path d="M8.99992 13.6211C8.64452 13.6211 8.35539 13.332 8.35539 12.9766C8.35524 12.8498 8.39251 12.7258 8.46252 12.6202C8.53252 12.5145 8.63216 12.4318 8.74894 12.3825C9.03756 12.2603 9.38294 12.3646 9.69678 12.6686C9.95245 12.9163 10.3605 12.9099 10.6082 12.6543C10.8559 12.3986 10.8494 11.9906 10.5938 11.7429C10.3028 11.461 9.9793 11.2617 9.64445 11.1493V10.3984C9.64445 10.0425 9.35587 9.75391 8.99992 9.75391C8.64396 9.75391 8.35539 10.0425 8.35539 10.3984V11.1534C8.3186 11.1664 8.28221 11.1804 8.24625 11.1955C7.89612 11.3433 7.5974 11.5911 7.38751 11.908C7.17761 12.2248 7.06589 12.5965 7.06632 12.9766C7.06632 14.0427 7.93373 14.9102 8.99992 14.9102C9.35531 14.9102 9.64445 15.1993 9.64445 15.5547C9.64445 15.8248 9.47408 16.0683 9.22052 16.1607C8.88944 16.2812 8.50406 16.1177 8.16323 15.7119C7.93429 15.4393 7.52777 15.4039 7.25517 15.6328C6.98258 15.8618 6.94721 16.2684 7.17615 16.5409C7.52459 16.9558 7.93017 17.2403 8.35543 17.3834V18.1328C8.35543 18.4888 8.64401 18.7773 8.99996 18.7773C9.35591 18.7773 9.64449 18.4888 9.64449 18.1328V17.3777C9.65025 17.3757 9.65601 17.3739 9.66172 17.3719C10.4224 17.0948 10.9335 16.3645 10.9335 15.5547C10.9335 14.4885 10.0661 13.6211 8.99992 13.6211Z" fill="#8CA9C2"/>
<path d="M14.9692 9.6791C14.2031 8.73666 13.3274 7.98583 12.3661 7.44588C12.5272 7.25508 12.6501 7.03504 12.728 6.79779C13.0428 5.8392 12.583 4.70052 11.4094 4.32957L13.0546 1.46077C13.2622 1.09871 13.0757 0.63757 12.6755 0.521211C11.4859 0.175355 10.2494 0 9 0C7.75064 0 6.51409 0.175355 5.32454 0.521211C4.92381 0.637699 4.73806 1.09914 4.94538 1.46077L6.59061 4.32962C5.42165 4.69868 4.95604 5.83567 5.27216 6.7983C5.35001 7.03541 5.47295 7.25525 5.63422 7.44571C4.67279 7.98566 3.797 8.73658 3.03087 9.6791C1.49942 11.5631 0.621094 13.9396 0.621094 16.1992C0.621094 20.8867 4.36139 22 9 22C13.6419 22 17.3789 20.8848 17.3789 16.1992C17.3789 13.9396 16.5006 11.5631 14.9692 9.6791ZM6.48616 1.55624C7.31225 1.37826 8.15495 1.2887 9 1.28906C9.84505 1.2887 10.6877 1.37826 11.5138 1.55624L10.0945 4.03133C9.36836 3.92985 8.63168 3.92986 7.90559 4.03137L6.48616 1.55624ZM6.90725 5.58147C8.01649 5.21761 9.17699 5.14864 10.3052 5.37419L10.3093 5.37496C10.574 5.42811 10.8353 5.49697 11.0918 5.58117C11.4296 5.6925 11.6142 6.05786 11.5035 6.39504C11.465 6.51287 11.3933 6.61706 11.297 6.69506C11.2007 6.77306 11.0838 6.82154 10.9606 6.83465C10.3179 6.63343 9.66245 6.53125 9 6.53125C8.33888 6.53125 7.68468 6.633 7.04329 6.83341C6.78947 6.80728 6.57648 6.6379 6.49668 6.39564C6.38578 6.05786 6.57038 5.69246 6.90725 5.58147ZM9 20.7195C3.96423 20.7195 1.91016 19.4038 1.91016 16.1992C1.91016 14.2595 2.70306 12.1261 4.03109 10.4922C5.43166 8.76919 7.1963 7.82031 9 7.82031C10.9854 7.82031 12.722 8.95821 13.9689 10.4922C15.2969 12.1261 16.0898 14.2595 16.0898 16.1992C16.0898 19.4038 14.0358 20.7195 9 20.7195Z" fill="#8CA9C2"/>
</svg>
