<svg width="20" height="18" viewBox="0 0 20 18" fill="none" xmlns="http://www.w3.org/2000/svg">
<path fill-rule="evenodd" clip-rule="evenodd" d="M7.7608 11.6173C7.5688 11.6173 7.3768 11.5443 7.2308 11.3973C6.4928 10.6603 6.0858 9.68025 6.0858 8.63825C6.0858 6.47825 7.8418 4.72125 9.9998 4.72125C11.0378 4.72125 12.0458 5.14025 12.7648 5.87125C13.0548 6.16725 13.0518 6.64125 12.7558 6.93125C12.4608 7.22325 11.9868 7.21825 11.6958 6.92425C11.2568 6.47725 10.6388 6.22125 9.9998 6.22125C8.6688 6.22125 7.5858 7.30525 7.5858 8.63825C7.5858 9.27925 7.8368 9.88325 8.2908 10.3373C8.5838 10.6303 8.5838 11.1043 8.2918 11.3973C8.1448 11.5443 7.9528 11.6173 7.7608 11.6173Z" fill="#8CA9C2"/>
<path fill-rule="evenodd" clip-rule="evenodd" d="M10.5674 12.4912C10.2124 12.4912 9.8964 12.2372 9.8304 11.8752C9.7564 11.4682 10.0264 11.0772 10.4344 11.0032C11.4144 10.8252 12.1904 10.0472 12.3664 9.06624C12.4404 8.65924 12.8304 8.39124 13.2374 8.46124C13.6454 8.53424 13.9164 8.92424 13.8434 9.33224C13.5564 10.9252 12.2944 12.1892 10.7024 12.4792C10.6574 12.4872 10.6114 12.4912 10.5674 12.4912Z" fill="#8CA9C2"/>
<mask id="mask0_861_1083" style="mask-type:luminance" maskUnits="userSpaceOnUse" x="0" y="0" width="17" height="15">
<path fill-rule="evenodd" clip-rule="evenodd" d="M0 0.624512H16.0862V14.7226H0V0.624512Z" fill="white"/>
</mask>
<g mask="url(#mask0_861_1083)">
<path fill-rule="evenodd" clip-rule="evenodd" d="M4.65439 14.7226C4.49239 14.7226 4.32939 14.6696 4.19139 14.5626C2.50039 13.2346 1.07139 11.2876 0.0613932 8.93364C-0.0206068 8.74364 -0.0206068 8.52964 0.0613932 8.34064C1.08239 5.97664 2.52039 4.01964 4.22039 2.68264C7.68639 -0.0603611 12.3004 -0.0693612 15.8014 2.70264C16.1264 2.95964 16.1814 3.43164 15.9244 3.75664C15.6664 4.07964 15.1964 4.13664 14.8704 3.87864C11.9044 1.53064 8.08339 1.53864 5.14939 3.86064C3.71339 4.99064 2.48039 6.63664 1.57039 8.63864C2.47139 10.6286 3.69339 12.2646 5.11839 13.3826C5.44439 13.6386 5.50039 14.1106 5.24439 14.4356C5.09639 14.6236 4.87639 14.7226 4.65439 14.7226Z" fill="#8CA9C2"/>
</g>
<mask id="mask1_861_1083" style="mask-type:luminance" maskUnits="userSpaceOnUse" x="6" y="4" width="14" height="13">
<path fill-rule="evenodd" clip-rule="evenodd" d="M6.71747 4.74121H20V16.6894H6.71747V4.74121Z" fill="white"/>
</mask>
<g mask="url(#mask1_861_1083)">
<path fill-rule="evenodd" clip-rule="evenodd" d="M10.0001 16.6894C9.0631 16.6894 8.1311 16.5374 7.2311 16.2384C6.8381 16.1074 6.6251 15.6824 6.7561 15.2894C6.8871 14.8954 7.3101 14.6864 7.7051 14.8144C8.4521 15.0634 9.2241 15.1894 10.0001 15.1894C13.4281 15.1894 16.5611 12.7474 18.4301 8.63642C17.9741 7.63742 17.4431 6.73242 16.8491 5.94242C16.6001 5.61142 16.6661 5.14042 16.9971 4.89142C17.3271 4.64242 17.7981 4.71042 18.0471 5.04042C18.7711 6.00142 19.4071 7.11242 19.9381 8.33842C20.0211 8.52842 20.0211 8.74442 19.9381 8.93342C17.8421 13.7904 14.1271 16.6894 10.0001 16.6894Z" fill="#8CA9C2"/>
</g>
<mask id="mask2_861_1083" style="mask-type:luminance" maskUnits="userSpaceOnUse" x="1" y="0" width="18" height="18">
<path fill-rule="evenodd" clip-rule="evenodd" d="M1.36356 0.000427246H18.6371V17.2734H1.36356V0.000427246Z" fill="white"/>
</mask>
<g mask="url(#mask2_861_1083)">
<path fill-rule="evenodd" clip-rule="evenodd" d="M2.11331 17.2734C1.92131 17.2734 1.72931 17.2004 1.58331 17.0534C1.29031 16.7604 1.29031 16.2864 1.58331 15.9934L17.3573 0.219445C17.6503 -0.0735552 18.1243 -0.0735552 18.4173 0.219445C18.7103 0.512445 18.7103 0.987445 18.4173 1.28044L2.64331 17.0534C2.49731 17.2004 2.30531 17.2734 2.11331 17.2734Z" fill="#8CA9C2"/>
</g>
</svg>
