<svg width="20" height="17" viewBox="0 0 20 17" fill="none" xmlns="http://www.w3.org/2000/svg">
<path fill-rule="evenodd" clip-rule="evenodd" d="M9.99959 5.6413C8.66959 5.6413 7.58859 6.7233 7.58859 8.0533C7.58859 9.3823 8.66959 10.4633 9.99959 10.4633C11.3296 10.4633 12.4116 9.3823 12.4116 8.0533C12.4116 6.7233 11.3296 5.6413 9.99959 5.6413ZM9.99959 11.9633C7.84259 11.9633 6.08859 10.2093 6.08859 8.0533C6.08859 5.8963 7.84259 4.1413 9.99959 4.1413C12.1566 4.1413 13.9116 5.8963 13.9116 8.0533C13.9116 10.2093 12.1566 11.9633 9.99959 11.9633Z" fill="#2490EF"/>
<mask id="mask0_861_707" style="mask-type:luminance" maskUnits="userSpaceOnUse" x="0" y="0" width="20" height="17">
<path fill-rule="evenodd" clip-rule="evenodd" d="M0.000152588 0.000183105H20V16.1052H0.000152588V0.000183105Z" fill="white"/>
</mask>
<g mask="url(#mask0_861_707)">
<path fill-rule="evenodd" clip-rule="evenodd" d="M1.5699 8.05251C3.4299 12.1615 6.5629 14.6045 9.9999 14.6055C13.4369 14.6045 16.5699 12.1615 18.4299 8.05251C16.5699 3.94451 13.4369 1.50151 9.9999 1.50051C6.5639 1.50151 3.4299 3.94451 1.5699 8.05251ZM10.0019 16.1055H9.9979H9.9969C5.8609 16.1025 2.1469 13.2035 0.0609026 8.34851C-0.0200974 8.15951 -0.0200974 7.94551 0.0609026 7.75651C2.1469 2.90251 5.8619 0.00350586 9.9969 0.000505859C9.9989 -0.000494141 9.9989 -0.000494141 9.9999 0.000505859C10.0019 -0.000494141 10.0019 -0.000494141 10.0029 0.000505859C14.1389 0.00350586 17.8529 2.90251 19.9389 7.75651C20.0209 7.94551 20.0209 8.15951 19.9389 8.34851C17.8539 13.2035 14.1389 16.1025 10.0029 16.1055H10.0019Z" fill="#2490EF"/>
</g>
</svg>
