<svg width="24" height="24" viewBox="0 0 24 24" fill="none" xmlns="http://www.w3.org/2000/svg">
<path fill-rule="evenodd" clip-rule="evenodd" d="M2.69231 8.61539V6.35897C2.69186 5.87734 2.7864 5.40034 2.97051 4.95528C3.15462 4.51021 3.42469 4.10583 3.76526 3.76526C4.10583 3.42469 4.51021 3.15462 4.95528 2.97051C5.40034 2.7864 5.87734 2.69186 6.35897 2.69231H8.61539C8.8398 2.69231 9.05502 2.60316 9.21371 2.44448C9.37239 2.28579 9.46154 2.07057 9.46154 1.84615C9.46154 1.62174 9.37239 1.40652 9.21371 1.24783C9.05502 1.08915 8.8398 1 8.61539 1H6.35897C4.93769 1 3.57461 1.5646 2.56961 2.56961C1.5646 3.57461 1 4.93769 1 6.35897V8.61539C1 8.8398 1.08915 9.05502 1.24783 9.21371C1.40652 9.37239 1.62174 9.46154 1.84615 9.46154C2.07057 9.46154 2.28579 9.37239 2.44448 9.21371C2.60316 9.05502 2.69231 8.8398 2.69231 8.61539ZM15.3846 2.69231H17.641C18.1227 2.69186 18.5997 2.7864 19.0447 2.97051C19.4898 3.15462 19.8942 3.42469 20.2347 3.76526C20.5753 4.10583 20.8454 4.51021 21.0295 4.95528C21.2136 5.40034 21.3081 5.87734 21.3077 6.35897V8.61539C21.3077 8.8398 21.3968 9.05502 21.5555 9.21371C21.7142 9.37239 21.9294 9.46154 22.1538 9.46154C22.3783 9.46154 22.5935 9.37239 22.7522 9.21371C22.9109 9.05502 23 8.8398 23 8.61539V6.35897C23 4.93769 22.4354 3.57461 21.4304 2.56961C20.4254 1.5646 19.0623 1 17.641 1H15.3846C15.1602 1 14.945 1.08915 14.7863 1.24783C14.6276 1.40652 14.5385 1.62174 14.5385 1.84615C14.5385 2.07057 14.6276 2.28579 14.7863 2.44448C14.945 2.60316 15.1602 2.69231 15.3846 2.69231ZM1 15.3846V17.641C1 19.0623 1.5646 20.4254 2.56961 21.4304C3.57461 22.4354 4.93769 23 6.35897 23H8.61539C8.8398 23 9.05502 22.9109 9.21371 22.7522C9.37239 22.5935 9.46154 22.3783 9.46154 22.1538C9.46154 21.9294 9.37239 21.7142 9.21371 21.5555C9.05502 21.3968 8.8398 21.3077 8.61539 21.3077H6.35897C5.87734 21.3081 5.40034 21.2136 4.95528 21.0295C4.51021 20.8454 4.10583 20.5753 3.76526 20.2347C3.42469 19.8942 3.15462 19.4898 2.97051 19.0447C2.7864 18.5997 2.69186 18.1227 2.69231 17.641V15.3846C2.69231 15.1602 2.60316 14.945 2.44448 14.7863C2.28579 14.6276 2.07057 14.5385 1.84615 14.5385C1.62174 14.5385 1.40652 14.6276 1.24783 14.7863C1.08915 14.945 1 15.1602 1 15.3846ZM15.3846 23H17.641C19.0623 23 20.4254 22.4354 21.4304 21.4304C22.4354 20.4254 23 19.0623 23 17.641V15.3846C23 15.1602 22.9109 14.945 22.7522 14.7863C22.5935 14.6276 22.3783 14.5385 22.1538 14.5385C21.9294 14.5385 21.7142 14.6276 21.5555 14.7863C21.3968 14.945 21.3077 15.1602 21.3077 15.3846V17.641C21.3081 18.1227 21.2136 18.5997 21.0295 19.0447C20.8454 19.4898 20.5753 19.8942 20.2347 20.2347C19.8942 20.5753 19.4898 20.8454 19.0447 21.0295C18.5997 21.2136 18.1227 21.3081 17.641 21.3077H15.3846C15.1602 21.3077 14.945 21.3968 14.7863 21.5555C14.6276 21.7142 14.5385 21.9294 14.5385 22.1538C14.5385 22.3783 14.6276 22.5935 14.7863 22.7522C14.945 22.9109 15.1602 23 15.3846 23ZM15.1026 8.05128V9.17949C15.1026 9.4039 15.1917 9.61912 15.3504 9.77781C15.5091 9.93649 15.7243 10.0256 15.9487 10.0256C16.1731 10.0256 16.3884 9.93649 16.547 9.77781C16.7057 9.61912 16.7949 9.4039 16.7949 9.17949V8.05128C16.7949 7.82687 16.7057 7.61165 16.547 7.45296C16.3884 7.29428 16.1731 7.20513 15.9487 7.20513C15.7243 7.20513 15.5091 7.29428 15.3504 7.45296C15.1917 7.61165 15.1026 7.82687 15.1026 8.05128ZM7.20513 8.05128V9.17949C7.20513 9.4039 7.29428 9.61912 7.45296 9.77781C7.61165 9.93649 7.82687 10.0256 8.05128 10.0256C8.2757 10.0256 8.49092 9.93649 8.6496 9.77781C8.80829 9.61912 8.89744 9.4039 8.89744 9.17949V8.05128C8.89744 7.82687 8.80829 7.61165 8.6496 7.45296C8.49092 7.29428 8.2757 7.20513 8.05128 7.20513C7.82687 7.20513 7.61165 7.29428 7.45296 7.45296C7.29428 7.61165 7.20513 7.82687 7.20513 8.05128ZM11.7179 12.6047V9.74359C11.7179 9.51918 11.8071 9.30395 11.9658 9.14527C12.1245 8.98658 12.3397 8.89744 12.5641 8.89744C12.7885 8.89744 13.0037 8.98658 13.1624 9.14527C13.3211 9.30395 13.4103 9.51918 13.4103 9.74359V13.1282C13.4103 13.2854 13.3664 13.4395 13.2837 13.5733C13.201 13.707 13.0827 13.815 12.9421 13.8852L11.8138 14.4493C11.7143 14.5 11.6058 14.5304 11.4944 14.5389C11.3831 14.5474 11.2711 14.5338 11.1651 14.4989C11.059 14.4639 10.9609 14.4083 10.8765 14.3352C10.792 14.2622 10.7228 14.1731 10.673 14.0732C10.6231 13.9733 10.5935 13.8645 10.5858 13.7531C10.5782 13.6417 10.5927 13.5299 10.6285 13.4241C10.6643 13.3183 10.7207 13.2206 10.7944 13.1367C10.8681 13.0529 10.9577 12.9844 11.0579 12.9353L11.7179 12.6047ZM15.3508 15.3508C15.5112 15.2013 15.7233 15.1199 15.9425 15.1238C16.1617 15.1277 16.3709 15.2165 16.5259 15.3715C16.681 15.5265 16.7698 15.7357 16.7736 15.9549C16.7775 16.1741 16.6961 16.3863 16.5467 16.5467C16.3932 16.7001 16.5467 16.5478 16.5455 16.5489C15.34 17.7544 13.7049 18.4317 12 18.4317C10.2951 18.4317 8.66003 17.7544 7.45446 16.5489L7.45333 16.5467C7.30387 16.3863 7.2225 16.1741 7.22637 15.9549C7.23023 15.7357 7.31904 15.5265 7.47407 15.3715C7.6291 15.2165 7.83825 15.1277 8.05746 15.1238C8.27667 15.1199 8.48883 15.2013 8.64923 15.3508C8.80267 15.5042 8.65036 15.3508 8.65149 15.3519C9.53966 16.2398 10.7441 16.7386 12 16.7386C13.2559 16.7386 14.4603 16.2398 15.3485 15.3519L15.3508 15.3508Z" fill="#52B85C"/>
</svg>
