<svg width="28" height="28" viewBox="0 0 28 28" fill="none" xmlns="http://www.w3.org/2000/svg">
<path d="M12.7514 26.5417C12.1914 26.5417 11.6314 26.4017 11.1181 26.1217C10.0798 25.5384 9.4614 24.5 9.4614 23.3217V17.0801C9.4614 16.4851 9.07638 15.61 8.71471 15.155L4.28139 10.5C3.54639 9.76504 2.97473 8.48169 2.97473 7.53669V4.83005C2.97473 2.95172 4.39809 1.48169 6.20642 1.48169H21.7697C23.5547 1.48169 25.0014 2.92838 25.0014 4.71338V7.30338C25.0014 8.52838 24.2664 9.94002 23.5664 10.6284C23.2281 10.9667 22.6681 10.9667 22.3298 10.6284C21.9914 10.29 21.9914 9.73002 22.3298 9.39169C22.7614 8.96002 23.2514 7.99171 23.2514 7.30338V4.71338C23.2514 3.89671 22.5864 3.23169 21.7697 3.23169H6.20642C5.37809 3.23169 4.72473 3.93172 4.72473 4.83005V7.53669C4.72473 7.96836 5.07473 8.82005 5.52973 9.27505L10.0214 14C10.6164 14.735 11.1997 15.9717 11.1997 17.0801V23.3217C11.1997 24.0917 11.7247 24.465 11.9581 24.5934C12.4597 24.8734 13.0548 24.8617 13.5214 24.5817L15.1547 23.5317C15.5631 23.2751 16.0998 23.3917 16.3681 23.8C16.6248 24.2084 16.5081 24.745 16.1114 25.0134L14.4664 26.075C13.9414 26.3784 13.3464 26.5417 12.7514 26.5417Z" fill="#4B6F8E"/>
<path d="M15.9718 22.0383C15.5285 22.0383 15.1085 21.875 14.8052 21.5716C14.4435 21.21 14.2802 20.685 14.3618 20.1366L14.5835 18.5616C14.6418 18.1533 14.8868 17.675 15.1785 17.3833L19.3085 13.2533C19.8685 12.6933 20.4168 12.4016 21.0118 12.3433C21.7352 12.2733 22.4585 12.5766 23.1352 13.2533C23.8118 13.9299 24.1151 14.6416 24.0451 15.3766C23.9868 15.96 23.6835 16.52 23.1352 17.08L19.0051 21.21C18.7135 21.5016 18.2235 21.7466 17.8152 21.805L16.2401 22.0266C16.1468 22.0383 16.0652 22.0383 15.9718 22.0383ZM21.2102 14.07C21.1985 14.07 21.1869 14.07 21.1752 14.07C21.0119 14.0816 20.7901 14.2216 20.5451 14.4783L16.4152 18.6083C16.3802 18.6433 16.3218 18.76 16.3218 18.8066L16.1118 20.265L17.5702 20.055C17.6168 20.0433 17.7335 19.985 17.7685 19.95L21.8985 15.82C22.1435 15.575 22.2952 15.3533 22.3068 15.1899C22.3302 14.9566 22.0968 14.6766 21.8985 14.4783C21.7118 14.2916 21.4435 14.07 21.2102 14.07Z" fill="#4B6F8E"/>
<path d="M21.9214 17.92C21.8397 17.92 21.7581 17.9083 21.6881 17.885C20.1481 17.4533 18.9231 16.2283 18.4914 14.6883C18.3631 14.2216 18.6314 13.7433 19.0981 13.6033C19.5647 13.475 20.0431 13.7433 20.1714 14.21C20.4397 15.1666 21.1981 15.925 22.1547 16.1933C22.6214 16.3217 22.8898 16.8117 22.7614 17.2783C22.6564 17.675 22.3064 17.92 21.9214 17.92Z" fill="#4B6F8E"/>
</svg>
