<svg width="38" height="38" viewBox="0 0 38 38" fill="none" xmlns="http://www.w3.org/2000/svg">
<path d="M2.80027 24.6071C2.52357 24.6956 2.25242 24.6735 1.98679 24.5406C1.73223 24.4078 1.56068 24.1809 1.47214 23.86C1.15118 22.6979 0.940892 21.58 0.841283 20.5065C0.752741 19.4218 0.741673 18.4036 0.80808 17.4518C0.841283 17.1419 0.957494 16.8984 1.15671 16.7213C1.35593 16.5442 1.62156 16.4668 1.95359 16.4889C2.21921 16.511 2.43503 16.6162 2.60105 16.8043C2.77813 16.9925 2.86114 17.247 2.85007 17.568C2.8058 18.7301 2.839 19.7649 2.94968 20.6725C3.06036 21.569 3.22084 22.4433 3.43113 23.2955C3.5086 23.5944 3.48647 23.8711 3.36472 24.1256C3.25404 24.3691 3.06589 24.5296 2.80027 24.6071ZM2.0366 14.5465C1.77097 14.4469 1.57175 14.2477 1.43894 13.9489C1.31719 13.65 1.33933 13.2793 1.50535 12.8365C2.26902 10.8112 3.24851 9.03479 4.44382 7.50745C5.63913 5.9801 7.006 4.70178 8.54441 3.67249C10.0828 2.64319 11.743 1.87398 13.5249 1.36487C15.3068 0.855754 17.1606 0.601196 19.0864 0.601196C20.6802 0.601196 22.1411 0.761678 23.4692 1.08264C24.8084 1.39254 26.1144 1.94592 27.3872 2.7428C27.6417 2.89775 27.8244 3.0859 27.935 3.30725C28.0457 3.51754 28.0346 3.77209 27.9018 4.07092C27.7579 4.36975 27.5366 4.53023 27.2378 4.55237C26.9389 4.5745 26.629 4.49703 26.3081 4.31995C25.312 3.77763 24.2274 3.36259 23.0542 3.07483C21.881 2.78707 20.5584 2.64319 19.0864 2.64319C16.8839 2.64319 14.7589 3.0693 12.7114 3.92151C10.6639 4.76265 8.83217 6.01331 7.21628 7.67346C5.61147 9.32255 4.36635 11.3756 3.48093 13.8326C3.35919 14.1647 3.15443 14.3916 2.86667 14.5133C2.58998 14.6351 2.31329 14.6461 2.0366 14.5465ZM36.9331 20.7223C36.6453 20.7223 36.4129 20.6227 36.2358 20.4235C36.0587 20.2132 35.9481 19.9586 35.9038 19.6598C35.6382 16.6826 34.9575 14.1536 33.8618 12.0729C32.7661 9.99215 31.3826 8.16044 29.7114 6.57776C29.4568 6.34534 29.324 6.09631 29.313 5.83069C29.3019 5.554 29.3849 5.31604 29.562 5.11682C29.728 4.9176 29.9494 4.80139 30.226 4.76819C30.5138 4.73499 30.7794 4.83459 31.0229 5.06702C32.3178 6.21806 33.4302 7.47978 34.3598 8.85217C35.2895 10.2246 36.0477 11.7906 36.6343 13.5504C37.2208 15.3102 37.6359 17.33 37.8794 19.61C37.9015 19.9199 37.8185 20.1855 37.6303 20.4069C37.4533 20.6171 37.2208 20.7223 36.9331 20.7223ZM4.64304 29.4381C4.49916 29.2278 4.44382 28.9843 4.47703 28.7076C4.5213 28.4309 4.64857 28.1985 4.85886 28.0104C5.23516 27.6673 5.52292 27.2467 5.72214 26.7487C5.93243 26.2506 6.03757 25.7138 6.03757 25.1383C6.0265 24.5628 5.93243 23.9651 5.75535 23.3453C5.58933 22.7145 5.41778 22.0338 5.2407 21.3033C5.07468 20.5618 4.99167 19.7317 4.99167 18.8131C4.99167 16.8984 5.35691 15.0944 6.08738 13.401C6.81785 11.7076 7.82501 10.219 9.10886 8.93518C10.4038 7.65133 11.8979 6.64417 13.5913 5.9137C15.2846 5.17216 17.0887 4.80139 19.0034 4.80139C21.2833 4.80139 23.3419 5.23303 25.1792 6.09631C27.0275 6.95959 28.6046 8.18811 29.9106 9.78186C31.2277 11.3756 32.2404 13.2737 32.9487 15.4762C33.657 17.6787 34.0112 20.1246 34.0112 22.8141C34.0112 24.8505 33.8618 26.5992 33.563 28.0602C33.2641 29.5101 32.9542 30.6722 32.6333 31.5465C32.5226 31.8343 32.3178 32.028 32.019 32.1276C31.7313 32.2272 31.4601 32.2216 31.2055 32.111C30.9731 31.9892 30.8071 31.7955 30.7075 31.5299C30.619 31.2643 30.63 30.9876 30.7407 30.6998C31.0506 29.9694 31.3328 28.9456 31.5874 27.6285C31.8419 26.3115 31.9692 24.7122 31.9692 22.8307C31.9692 19.6432 31.4324 16.8486 30.3589 14.4469C29.2964 12.0452 27.7912 10.1748 25.8432 8.83557C23.9064 7.49638 21.6264 6.82678 19.0034 6.82678C17.3654 6.82678 15.8214 7.14221 14.3716 7.77307C12.9328 8.40393 11.66 9.27275 10.5532 10.3795C9.45749 11.4863 8.59421 12.7591 7.96335 14.1979C7.34356 15.6367 7.03367 17.1751 7.03367 18.8131C7.03367 19.7649 7.11667 20.5673 7.28269 21.2203C7.4487 21.8733 7.61472 22.5042 7.78074 23.1129C7.94675 23.7106 8.02976 24.3912 8.02976 25.1549C8.02976 26.0293 7.87481 26.8649 7.56492 27.6617C7.25502 28.4476 6.79571 29.095 6.18699 29.6041C5.9435 29.8255 5.6668 29.914 5.35691 29.8698C5.05808 29.8255 4.82012 29.6816 4.64304 29.4381ZM8.71042 32.5758C8.38946 32.7529 8.09617 32.7916 7.83054 32.692C7.56492 32.6035 7.37676 32.4375 7.26609 32.194C7.16648 31.9837 7.14988 31.7457 7.21628 31.4801C7.29376 31.2255 7.48744 30.9876 7.79734 30.7662C8.39499 30.3567 8.89304 29.8808 9.29148 29.3385C9.68992 28.7962 9.99981 28.1709 10.2212 27.4625C10.3208 27.1637 10.4923 26.9479 10.7358 26.8151C10.9793 26.6823 11.2283 26.6601 11.4829 26.7487C11.7706 26.8483 11.9699 27.0253 12.0805 27.2799C12.1912 27.5345 12.2078 27.7946 12.1303 28.0602C11.9754 28.6357 11.7042 29.2334 11.3169 29.8531C10.9406 30.4619 10.52 31.0153 10.0552 31.5133C9.59031 32.0114 9.14206 32.3655 8.71042 32.5758ZM12.2964 23.2955C12.396 23.5944 12.396 23.8766 12.2964 24.1422C12.2078 24.4078 12.0252 24.596 11.7485 24.7067C11.4275 24.8284 11.1343 24.8339 10.8686 24.7233C10.6141 24.6015 10.4259 24.3857 10.3042 24.0758C10.0275 23.3896 9.76739 22.6149 9.5239 21.7516C9.29148 20.8883 9.17527 19.9365 9.17527 18.8961C9.17527 17.5127 9.42982 16.2233 9.93894 15.028C10.4481 13.8216 11.1564 12.7701 12.0639 11.8737C12.9715 10.9661 14.0229 10.2578 15.2182 9.74866C16.4135 9.23954 17.7029 8.98499 19.0864 8.98499C19.9275 8.98499 20.7355 9.09013 21.5102 9.30042C22.296 9.5107 22.9656 9.77633 23.519 10.0973C23.8289 10.2744 24.0226 10.5068 24.1001 10.7946C24.1775 11.0712 24.1443 11.3369 24.0005 11.5914C23.9009 11.8017 23.7348 11.9401 23.5024 12.0065C23.27 12.0729 23.0154 12.0397 22.7387 11.9069C22.2518 11.6855 21.8423 11.514 21.5102 11.3922C21.1782 11.2594 20.8296 11.1709 20.4643 11.1266C20.1102 11.0712 19.6509 11.0436 19.0864 11.0436C17.6255 11.0436 16.3029 11.3922 15.1186 12.0895C13.9344 12.7867 12.9881 13.733 12.2798 14.9283C11.5825 16.1126 11.2339 17.4352 11.2339 18.8961C11.2339 19.8369 11.3556 20.667 11.5991 21.3864C11.8537 22.0947 12.0861 22.7311 12.2964 23.2955ZM25.4448 14.2145C25.2456 13.9046 25.1736 13.6002 25.229 13.3014C25.2843 13.0026 25.4503 12.7812 25.727 12.6373C25.9816 12.5045 26.2472 12.4824 26.5239 12.5709C26.8117 12.6595 27.0496 12.8476 27.2378 13.1354C27.7247 13.9433 28.1619 14.8287 28.5493 15.7916C28.9477 16.7545 29.2576 17.8779 29.479 19.1617C29.7114 20.4345 29.8276 21.9287 29.8276 23.6442C29.8276 25.9684 29.5177 28.1764 28.8979 30.2682C28.2781 32.36 27.4536 34.1031 26.4243 35.4977C26.2361 35.7412 25.9871 35.874 25.6772 35.8961C25.3673 35.9183 25.1017 35.8242 24.8803 35.6139C24.6701 35.4257 24.5704 35.1878 24.5815 34.9C24.5926 34.6233 24.6756 34.3798 24.8305 34.1696C25.7492 33.0406 26.4741 31.541 27.0053 29.6705C27.5477 27.8001 27.8188 25.8134 27.8188 23.7106C27.8188 21.7295 27.6196 19.9476 27.2212 18.3649C26.8227 16.7822 26.2306 15.3987 25.4448 14.2145ZM12.2466 34.8004C12.0031 34.9996 11.7319 35.0882 11.4331 35.066C11.1453 35.0439 10.9074 34.9 10.7192 34.6344C10.5643 34.402 10.5089 34.153 10.5532 33.8873C10.5975 33.6328 10.7358 33.4003 10.9682 33.1901C12.1082 32.2714 12.977 31.1093 13.5747 29.7037C14.1834 28.2871 14.4822 26.7487 14.4712 25.0885C14.4601 24.3138 14.366 23.5446 14.1889 22.7809C14.0229 22.0172 13.8569 21.2757 13.6909 20.5563C13.5249 19.8369 13.4419 19.1562 13.4419 18.5143C13.4419 17.4628 13.6854 16.5387 14.1723 15.7418C14.6704 14.9449 15.34 14.3252 16.1811 13.8824C17.0333 13.4397 17.9907 13.2184 19.0532 13.2184C20.6027 13.2184 21.8423 13.6611 22.7719 14.5465C23.7016 15.4209 24.3768 16.6272 24.7973 18.1656C25.2179 19.693 25.4282 21.4362 25.4282 23.3951C25.4393 25.2988 25.229 27.125 24.7973 28.8737C24.3657 30.6113 23.7791 32.1718 23.0376 33.5553C22.3071 34.9388 21.4992 36.0345 20.6137 36.8424C20.3703 37.0638 20.0936 37.1523 19.7837 37.108C19.4848 37.0748 19.2524 36.9365 19.0864 36.693C18.9425 36.4606 18.8872 36.2171 18.9204 35.9625C18.9647 35.708 19.0975 35.4921 19.3188 35.3151C20.16 34.5846 20.907 33.6217 21.56 32.4264C22.213 31.2421 22.7166 29.8919 23.0708 28.3756C23.4249 26.8593 23.5744 25.2434 23.519 23.528C23.4747 21.9785 23.3032 20.5784 23.0044 19.3278C22.7166 18.0771 22.2518 17.0865 21.6098 16.3561C20.979 15.6256 20.1268 15.2604 19.0532 15.2604C17.9686 15.2604 17.0942 15.5758 16.4302 16.2067C15.7772 16.8265 15.4507 17.6565 15.4507 18.6969C15.4507 19.2281 15.5337 19.7981 15.6997 20.4069C15.8768 21.0156 16.0538 21.7018 16.2309 22.4655C16.408 23.2181 16.5021 24.0924 16.5132 25.0885C16.5242 27.0475 16.159 28.8792 15.4175 30.5836C14.687 32.277 13.63 33.6826 12.2466 34.8004ZM16.1811 36.1451C15.9266 36.3333 15.6443 36.4052 15.3344 36.361C15.0356 36.3278 14.8143 36.1839 14.6704 35.9293C14.5154 35.6969 14.4656 35.4423 14.521 35.1656C14.5763 34.9 14.7147 34.6787 14.936 34.5016C15.5005 34.0478 16.0317 33.4834 16.5298 32.8082C17.0278 32.1331 17.476 31.2809 17.8745 30.2516C17.9741 29.997 18.1401 29.8089 18.3725 29.6871C18.616 29.5543 18.8927 29.5433 19.2026 29.6539C19.4904 29.7425 19.6675 29.9251 19.7339 30.2018C19.8113 30.4674 19.8169 30.7164 19.7505 30.9489C19.4184 32.0114 18.9038 33.0185 18.2065 33.9703C17.5203 34.9332 16.8452 35.6582 16.1811 36.1451ZM20.7632 26.8483C20.7078 27.1692 20.5584 27.4127 20.3149 27.5787C20.0714 27.7448 19.8058 27.8001 19.518 27.7448C19.2081 27.6894 18.9868 27.5511 18.854 27.3297C18.7322 27.0973 18.699 26.8427 18.7544 26.566C18.8872 25.8577 18.9536 25.1328 18.9536 24.3912C18.9647 23.6386 18.9093 22.8694 18.7876 22.0836C18.6769 21.2978 18.4943 20.5009 18.2397 19.693C18.1512 19.3831 18.1678 19.1119 18.2895 18.8795C18.4223 18.636 18.6271 18.47 18.9038 18.3815C19.1805 18.2929 19.4406 18.3206 19.6841 18.4645C19.9275 18.5973 20.1046 18.8297 20.2153 19.1617C20.492 20.0029 20.6912 20.8717 20.813 21.7682C20.9458 22.6536 21.0066 23.5335 20.9956 24.4078C20.9956 25.2711 20.9181 26.0846 20.7632 26.8483Z" fill="#939598"/>
</svg>
