<svg width="40" height="40" viewBox="0 0 40 40" fill="none" xmlns="http://www.w3.org/2000/svg">
<g clip-path="url(#clip0_1584_2873)">
<path d="M20 40C31.0457 40 40 31.0457 40 20C40 8.9543 31.0457 0 20 0C8.9543 0 0 8.9543 0 20C0 31.0457 8.9543 40 20 40Z" fill="#8CA9C2"/>
<path d="M24.7855 28.9999H15.2145C14.6271 28.9999 14.0639 28.7583 13.6486 28.3282C13.2333 27.8982 13 27.3148 13 26.7066V25.1599C13.0007 23.7205 13.5533 22.3402 14.5364 21.3225C15.5195 20.3049 16.8526 19.7333 18.2426 19.7333H21.7574C23.1477 19.7333 24.4811 20.3052 25.4643 21.3233C26.4474 22.3413 26.9998 23.7221 27 25.1619V26.7086C26.9995 27.3165 26.766 27.8993 26.3507 28.3289C25.9355 28.7586 25.3725 28.9999 24.7855 28.9999Z" fill="white"/>
<path d="M19.9999 18.724C22.0595 18.724 23.7291 16.9949 23.7291 14.862C23.7291 12.7291 22.0595 11 19.9999 11C17.9404 11 16.2708 12.7291 16.2708 14.862C16.2708 16.9949 17.9404 18.724 19.9999 18.724Z" fill="white"/>
</g>
<defs>
<clipPath id="clip0_1584_2873">
<rect width="40" height="40" fill="white"/>
</clipPath>
</defs>
</svg>
