<svg width="20" height="18" viewBox="0 0 20 18" fill="none" xmlns="http://www.w3.org/2000/svg">
<path d="M1 15.5H19C19.6 15.5 20 15.9 20 16.5C20 17.1 19.6 17.5 19 17.5H1C0.4 17.5 0 17.1 0 16.5C0 15.9 0.4 15.5 1 15.5Z" fill="#8CA9C2"/>
<path d="M1 10.5H15C15.6 10.5 16 10.9 16 11.5C16 12.1 15.6 12.5 15 12.5H1C0.4 12.5 0 12.1 0 11.5C0 10.9 0.4 10.5 1 10.5Z" fill="#8CA9C2"/>
<path d="M1 5.5H19C19.6 5.5 20 5.9 20 6.5C20 7.1 19.6 7.5 19 7.5H1C0.4 7.5 0 7.1 0 6.5C0 5.9 0.4 5.5 1 5.5Z" fill="#8CA9C2"/>
<path d="M1 0.499878H15C15.6 0.499878 16 0.899878 16 1.49988C16 2.09988 15.6 2.49988 15 2.49988H1C0.4 2.49988 0 2.09988 0 1.49988C0 0.899878 0.4 0.499878 1 0.499878Z" fill="#8CA9C2"/>
</svg>
