<svg width="28" height="28" viewBox="0 0 28 28" fill="none" xmlns="http://www.w3.org/2000/svg">
<path d="M22.909 26.8334H5.07396C4.03759 26.8289 3.04508 26.4186 2.31306 25.6919C1.58103 24.9652 1.16892 23.9811 1.16667 22.9546V9.84437C1.17095 9.14939 1.36366 8.46833 1.72463 7.87238C2.08561 7.27644 2.6016 6.78751 3.21864 6.45672L12.119 1.63779C12.6923 1.32869 13.3345 1.16675 13.9872 1.16675C14.6398 1.16675 15.2821 1.32869 15.8553 1.63779L24.7814 6.43131C25.3984 6.7621 25.9144 7.25103 26.2754 7.84697C26.6364 8.44292 26.8291 9.12399 26.8333 9.81896V22.9546C26.8311 23.9841 26.4166 24.9707 25.6809 25.6978C24.9452 26.425 23.9483 26.8334 22.909 26.8334ZM13.9915 2.85734C13.6243 2.85681 13.2628 2.94705 12.9398 3.11989L4.01377 7.92188C3.66756 8.11181 3.3793 8.39051 3.17923 8.72876C2.97916 9.067 2.87465 9.45234 2.87664 9.84437V22.9546C2.87664 23.5341 3.10905 24.0898 3.52273 24.4996C3.9364 24.9094 4.49747 25.1396 5.08251 25.1396H22.909C23.4925 25.1374 24.0514 24.9062 24.4632 24.4966C24.875 24.0871 25.1063 23.5326 25.1063 22.9546V9.84437C25.1066 9.45064 24.9995 9.06414 24.7963 8.72573C24.5931 8.38732 24.3014 8.10958 23.952 7.92188L15.0431 3.12836C14.7208 2.95257 14.3593 2.8594 13.9915 2.85734Z" fill="#2490EF"/>
<path d="M13.9921 23.1155C12.802 23.1157 11.6488 22.7061 10.7301 21.9568C9.81141 21.2074 9.1843 20.165 8.9562 19.008C8.9376 18.8866 8.94587 18.7627 8.98042 18.6448C9.01498 18.5269 9.075 18.4178 9.15633 18.3252C9.23765 18.2325 9.33834 18.1585 9.45142 18.1082C9.56449 18.058 9.68725 18.0326 9.81118 18.034C10.0149 18.0311 10.2129 18.1003 10.3697 18.2292C10.5264 18.358 10.6316 18.5381 10.6662 18.737C10.8272 19.4983 11.2478 20.1815 11.8573 20.6719C12.4669 21.1623 13.2282 21.4299 14.0134 21.4299C14.7987 21.4299 15.56 21.1623 16.1696 20.6719C16.7791 20.1815 17.1997 19.4983 17.3607 18.737C17.3953 18.5381 17.5005 18.358 17.6572 18.2292C17.814 18.1003 18.012 18.0311 18.2157 18.034C18.3396 18.0326 18.4624 18.058 18.5755 18.1082C18.6885 18.1585 18.7892 18.2325 18.8706 18.3252C18.9519 18.4178 19.0119 18.5269 19.0465 18.6448C19.081 18.7627 19.0893 18.8866 19.0707 19.008C18.8412 20.1721 18.2078 21.2201 17.2803 21.9703C16.3527 22.7205 15.1895 23.1256 13.9921 23.1155Z" fill="#2490EF"/>
</svg>
