<svg width="21" height="20" viewBox="0 0 21 20" fill="none" xmlns="http://www.w3.org/2000/svg">
<path d="M15.1556 0C18.5588 0 20.8269 2.42887 20.8269 5.91408V14.0849C20.8269 17.5703 18.5587 20 15.1556 20H6.48824C3.08669 20 0.82692 17.5722 0.82692 14.0849V5.91408C0.82692 2.43059 3.09328 0 6.48824 0H15.1556ZM15.1556 1.50383H6.48824C3.94758 1.50383 2.32993 3.2387 2.32993 5.91408V14.0849C2.32993 16.7647 3.94161 18.4962 6.48824 18.4962H15.1556C17.7048 18.4962 19.3239 16.7618 19.3239 14.0849V5.91408C19.3239 3.23744 17.7051 1.50383 15.1556 1.50383ZM15.8678 10.1835L15.9981 10.3086L18.0783 12.4561C18.3671 12.7543 18.3597 13.2303 18.0617 13.5193C17.7907 13.7821 17.3729 13.7998 17.0821 13.5768L16.999 13.5027L14.9189 11.3553C14.5566 10.9814 13.9674 10.9779 13.5997 11.3269L13.5189 11.4137L11.2858 14.1312C10.4959 15.0939 9.0747 15.1971 8.15517 14.3903L8.03299 14.2747L7.14178 13.3648C6.90768 13.1217 6.53435 13.0987 6.27438 13.2949L6.19226 13.3684L4.6602 14.9855C4.37467 15.2869 3.89901 15.2996 3.59779 15.0139C3.32396 14.7542 3.28856 14.3373 3.49891 14.0372L3.56939 13.9509L5.10113 12.3341C5.90752 11.4819 7.23544 11.4365 8.09444 12.1967L8.21965 12.3167L9.10636 13.222C9.36556 13.4865 9.781 13.4933 10.0489 13.2553L10.1245 13.1766L12.3578 10.4589C13.2451 9.37824 14.8428 9.26886 15.8678 10.1835ZM7.39956 4.64124C8.78455 4.64124 9.90858 5.76589 9.90858 7.15164C9.90858 8.53738 8.78455 9.66204 7.39956 9.66204C6.01464 9.66204 4.89155 8.53744 4.89155 7.15164C4.89155 5.76583 6.01464 4.64124 7.39956 4.64124ZM7.39956 6.14507C6.84499 6.14507 6.39455 6.59611 6.39455 7.15164C6.39455 7.70716 6.84499 8.1582 7.39956 8.1582C7.95446 8.1582 8.40558 7.70684 8.40558 7.15164C8.40558 6.59643 7.95446 6.14507 7.39956 6.14507Z" fill="#8CA9C2"/>
</svg>
