<svg width="24" height="20" viewBox="0 0 24 20" fill="none" xmlns="http://www.w3.org/2000/svg">
<path d="M17.6 0.877075L16.6057 1.87143L18.3885 3.65423H12.3516V5.06048H18.3885L16.6057 6.84328L17.6 7.83764L21.0803 4.35736L17.6 0.877075Z" fill="#2490EF"/>
<path d="M9.53906 3.65424H10.9453V5.06049H9.53906V3.65424Z" fill="#2490EF"/>
<path d="M6.72656 3.65424H8.13281V5.06049H6.72656V3.65424Z" fill="#2490EF"/>
<path d="M3.91406 3.65424H5.32031V5.06049H3.91406V3.65424Z" fill="#2490EF"/>
<path d="M19.0781 9.27924H12L11.0625 14.2011L12 19.123H19.0781C21.792 19.123 24 16.915 24 14.2011C24 11.4872 21.792 9.27924 19.0781 9.27924Z" fill="#04002E"/>
<path d="M4.92188 9.27924C2.20795 9.27924 0 11.4872 0 14.2011C0 16.915 2.20795 19.123 4.92188 19.123H12V9.27924H4.92188Z" fill="#04002E"/>
<path d="M19.0781 10.6855H12L11.0625 14.2011L12 17.7167H19.0781C21.0166 17.7167 22.5938 16.1396 22.5938 14.2011C22.5938 12.2626 21.0166 10.6855 19.0781 10.6855Z" fill="white"/>
<path d="M4.92188 10.6855C2.98336 10.6855 1.40625 12.2626 1.40625 14.2011C1.40625 16.1396 2.98336 17.7167 4.92188 17.7167H12V10.6855H4.92188Z" fill="white"/>
<path d="M15.5156 12.0917H12L11.0625 14.2011L12 16.3105H15.5156V12.0917Z" fill="#2490EF"/>
<path d="M4.92188 12.0917C3.75877 12.0917 2.8125 13.038 2.8125 14.2011C2.8125 15.3642 3.75877 16.3105 4.92188 16.3105H12V12.0917H4.92188Z" fill="#2490EF"/>
</svg>
