<svg width="24" height="24" viewBox="0 0 24 24" fill="none" xmlns="http://www.w3.org/2000/svg">
<path d="M21.0014 19.9998C20.515 19.9975 20.0286 19.9909 19.5422 19.9961C19.4115 19.9975 19.349 19.9632 19.3024 19.8369C19.0428 19.1382 18.7689 18.4452 18.506 17.7479C18.4646 17.638 18.4175 17.5878 18.2849 17.5887C17.0948 17.5948 15.9047 17.5944 14.7147 17.5892C14.5863 17.5887 14.5335 17.6305 14.4907 17.7446C14.2268 18.4475 13.9519 19.1467 13.6885 19.85C13.6472 19.9599 13.5957 19.9984 13.4751 19.9965C13.0358 19.989 12.596 19.9937 12.1562 19.9932C12.1115 19.9932 12.0663 19.9876 12 19.9834C12.123 19.6599 12.2398 19.35 12.3586 19.041C13.4438 16.2149 14.5306 13.3896 15.6115 10.5621C15.6601 10.4348 15.7154 10.3841 15.8595 10.3879C16.2873 10.3982 16.7156 10.3973 17.1433 10.3884C17.2774 10.3855 17.3351 10.4301 17.3817 10.5513C18.5511 13.6089 19.7249 16.6647 20.8991 19.7209C20.9265 19.7927 21.0014 19.9768 21.0014 19.9998ZM15.1727 15.9796C16.0657 15.9796 16.9299 15.9796 17.8234 15.9796C17.3841 14.834 16.9516 13.7056 16.5185 12.5769C16.505 12.5769 16.4911 12.5769 16.4777 12.5769C16.0451 13.7056 15.612 14.834 15.1727 15.9796Z" fill="#455CD9"/>
<path d="M16.0763 5.59221C16.0763 6.13452 16.0763 6.65289 16.0763 7.19521C15.9994 7.19521 15.9316 7.19521 15.8634 7.19521C15.2006 7.19521 14.5383 7.19944 13.8755 7.19192C13.7356 7.19052 13.6722 7.22761 13.6279 7.3619C13.1881 8.70713 12.5499 9.95751 11.7116 11.1074C11.4232 11.5032 11.0993 11.8746 10.7912 12.2568C10.7412 12.3188 10.6879 12.3784 10.6504 12.4226C10.9628 12.7391 11.2598 13.0471 11.5645 13.3476C11.9111 13.6894 12.2653 14.0237 12.6119 14.3655C12.6493 14.4026 12.6888 14.4792 12.6739 14.5191C12.485 15.0337 12.2869 15.545 12.0827 16.0784C11.2252 15.2417 10.3855 14.4214 9.53095 13.5875C8.16256 14.9243 6.80427 16.2512 5.45367 17.5706C5.06868 17.1945 4.69234 16.8269 4.30013 16.4432C5.6714 15.1191 7.05325 13.7847 8.41827 12.4667C7.96791 11.8737 7.50937 11.3023 7.08737 10.706C6.66825 10.1139 6.32075 9.47811 6.0141 8.79305C6.42553 8.79305 6.81869 8.82169 7.20513 8.7846C7.55071 8.75126 7.71845 8.87992 7.8713 9.1715C8.29859 9.98474 8.86046 10.7121 9.47471 11.4004C9.4901 11.4173 9.49827 11.4408 9.52182 11.483C10.6946 10.204 11.5516 8.78601 12.1293 7.18347C9.07434 7.18347 6.0439 7.18347 3 7.18347C3 6.65665 3 6.13875 3 5.59925C4.89709 5.59925 6.79803 5.59925 8.71963 5.59925C8.71963 5.05458 8.71963 4.53105 8.71963 4C9.27044 4 9.80107 4 10.3552 4C10.3552 4.53293 10.3552 5.05646 10.3552 5.59221C12.2716 5.59221 14.1634 5.59221 16.0763 5.59221Z" fill="#455CD9"/>
</svg>
