<svg width="30" height="30" viewBox="0 0 30 30" fill="none" xmlns="http://www.w3.org/2000/svg">
<g clip-path="url(#clip0_2838_1835)">
<path d="M15 4.45703C20.8227 4.45703 25.543 9.1774 25.543 15C25.543 20.8227 20.8227 25.543 15 25.543C9.17731 25.543 4.45699 20.8227 4.45699 15C4.45699 9.17734 9.17731 4.45703 15 4.45703Z" fill="#2475EF"/>
<path d="M27.8687 7.41159C27.622 6.99382 27.0831 6.8553 26.6654 7.10186C26.2477 7.3486 26.1089 7.88731 26.3557 8.30515C29.4111 13.4789 28.5737 20.0641 24.3192 24.3191C20.0881 28.5496 13.5072 29.428 8.30508 26.3558C7.35288 25.7934 6.47004 25.1082 5.68108 24.3193C5.12532 23.7633 4.18084 24.1661 4.18114 24.9407V27.3003C4.18114 27.7855 4.57448 28.1789 5.05975 28.1789C5.54502 28.1789 5.93836 27.7856 5.93836 27.3003V26.8736C6.40918 27.2344 6.90113 27.5667 7.41159 27.8688C13.2442 31.3133 20.7132 30.4095 25.5617 25.5617C30.3832 20.7394 31.3319 13.2758 27.8687 7.41159Z" fill="#2475EF"/>
<path d="M5.6809 5.68105C10.8124 0.550346 19.1468 0.508862 24.319 5.68087C24.8679 6.2299 25.8193 5.84517 25.8189 5.05943V2.69986C25.8189 2.21464 25.4256 1.82124 24.9403 1.82124C24.455 1.82124 24.0617 2.21458 24.0617 2.69986V3.1266C18.1041 -1.43083 9.71959 -0.841959 4.43836 4.43845C-0.383201 9.26066 -1.33195 16.7242 2.13129 22.5885C2.37809 23.0063 2.9168 23.1449 3.33457 22.8982C3.75235 22.6515 3.8911 22.1128 3.6443 21.695C0.588928 16.5212 1.42635 9.93607 5.6809 5.68105Z" fill="#2475EF"/>
<path d="M21.0105 19.5258C20.7628 19.5258 20.5165 19.4215 20.3427 19.2186C19.0038 17.6543 17.0565 16.7572 15 16.7572C12.9435 16.7572 10.9962 17.6543 9.6573 19.2186C9.34189 19.5872 8.7873 19.6304 8.41851 19.3147C8.04984 18.9992 8.00683 18.4446 8.32236 18.0759C9.99545 16.1211 12.4294 15 14.9999 15C17.5705 15 20.0044 16.1212 21.6775 18.0759C21.993 18.4446 21.95 18.9992 21.5814 19.3147C21.4225 19.4511 21.22 19.5261 21.0105 19.5258Z" fill="white" fill-opacity="0.7"/>
<path d="M15 16.7572C12.5777 16.7572 10.6071 14.7865 10.6071 12.3642C10.6071 9.94188 12.5777 7.97131 15 7.97131C17.4223 7.97131 19.393 9.94194 19.393 12.3643C19.393 14.7866 17.4223 16.7572 15 16.7572Z" fill="white"/>
</g>
<defs>
<clipPath id="clip0_2838_1835">
<rect width="30" height="30" fill="white"/>
</clipPath>
</defs>
</svg>
