<svg width="24" height="24" viewBox="0 0 24 24" fill="none" xmlns="http://www.w3.org/2000/svg">
<path fill-rule="evenodd" clip-rule="evenodd" d="M14.4167 0.389137C13.6545 0.136198 12.8428 0 12 0C9.54299 0 7.34314 1.16417 5.87451 2.98987L9.65453 6.31698L14.4167 0.389137Z" fill="#1A73E8"/>
<path fill-rule="evenodd" clip-rule="evenodd" d="M5.87452 2.98987C4.70643 4.44589 4 6.32347 4 8.37292C4 9.94893 4.30054 11.2233 4.79318 12.3681L9.65453 6.32023L5.87452 2.98987Z" fill="#EA4335"/>
<path fill-rule="evenodd" clip-rule="evenodd" d="M11.9998 5.17227C13.6915 5.17227 15.061 6.60559 15.061 8.37616C15.061 9.16417 14.7883 9.88731 14.339 10.4418C14.339 10.4418 16.7558 7.43251 19.1012 4.51723C18.1314 2.56506 16.4521 1.06688 14.4196 0.39238L9.6543 6.32023C10.2151 5.61654 11.0579 5.17227 12.0029 5.17227H11.9998Z" fill="#4285F4"/>
<path fill-rule="evenodd" clip-rule="evenodd" d="M11.9998 11.5736C10.3081 11.5736 8.93859 10.1403 8.93859 8.36968C8.93859 7.58817 9.20815 6.87151 9.65122 6.31374L4.79297 12.3648C5.62333 14.2943 7.00521 15.8411 8.42736 17.7933L14.336 10.4418C13.7752 11.1358 12.9355 11.5768 11.9998 11.5768V11.5736Z" fill="#FBBC04"/>
<path fill-rule="evenodd" clip-rule="evenodd" d="M14.2215 19.8006C16.8892 15.4325 20.0031 13.4512 20.0031 8.37292C20.0031 6.98176 19.6778 5.66842 19.1046 4.51398L8.43066 17.7933C8.88303 18.4126 9.33849 19.0742 9.78465 19.8006C11.4082 22.424 10.9558 23.9968 12.0031 23.9968C13.0503 23.9968 12.598 22.4208 14.2215 19.7973V19.8006Z" fill="#34A853"/>
</svg>
