<svg width="32" height="33" viewBox="0 0 32 33" fill="none" xmlns="http://www.w3.org/2000/svg">
<g clip-path="url(#clip0_3305_4220)">
<path d="M9.03756 23.0202L7.33937 11.0278M24.6524 11.083L22.9621 23.0202M25.8971 11.5525C25.5709 11.5528 25.2535 11.4468 24.9929 11.2507L15.9998 4.50191L7.00675 11.2507C6.34275 11.749 5.39918 11.6165 4.89912 10.955C4.39906 10.2935 4.53187 9.35322 5.19587 8.85503L15.0944 1.42678C15.6304 1.02441 16.3692 1.02441 16.9052 1.42678L26.8037 8.85497C27.4677 9.35322 27.6006 10.2934 27.1005 10.9549C26.8047 11.3462 26.3537 11.5525 25.8971 11.5525Z" stroke="#8D310A" stroke-width="1.25" stroke-miterlimit="10" stroke-linecap="round" stroke-linejoin="round"/>
<path d="M16 20.0169C18.5124 20.0169 20.5491 17.9876 20.5491 15.4844C20.5491 12.9812 18.5124 10.9519 16 10.9519C13.4876 10.9519 11.4509 12.9812 11.4509 15.4844C11.4509 17.9876 13.4876 20.0169 16 20.0169Z" fill="#FFBA52"/>
<path d="M16 24.1664V28.4757" stroke="#8D310A" stroke-width="1.25" stroke-miterlimit="10" stroke-linecap="round" stroke-linejoin="round"/>
<path d="M15.9999 31.875C16.9053 31.875 17.6394 31.1437 17.6394 30.2415C17.6394 29.3393 16.9053 28.6079 15.9999 28.6079C15.0944 28.6079 14.3604 29.3393 14.3604 30.2415C14.3604 31.1437 15.0944 31.875 15.9999 31.875Z" stroke="#8D310A" stroke-width="1.25" stroke-miterlimit="10" stroke-linecap="round" stroke-linejoin="round"/>
<path d="M23.4387 24.9578H8.56099C7.79693 24.9578 7.17749 24.3384 7.17749 23.5743C7.17749 22.8102 7.79693 22.1908 8.56099 22.1908H23.4388C24.2029 22.1908 24.8223 22.8102 24.8223 23.5743C24.8222 24.3384 24.2029 24.9578 23.4387 24.9578Z" fill="#FFBA52"/>
<path d="M16 13.6768V15.4845L17.1129 16.2992" stroke="#8D310A" stroke-width="1.25" stroke-miterlimit="10" stroke-linecap="round" stroke-linejoin="round"/>
</g>
<defs>
<clipPath id="clip0_3305_4220">
<rect width="32" height="32" fill="white" transform="translate(0 0.5)"/>
</clipPath>
</defs>
</svg>
