<svg width="30" height="30" viewBox="0 0 30 30" fill="none" xmlns="http://www.w3.org/2000/svg">
<path fill-rule="evenodd" clip-rule="evenodd" d="M24.0342 11.89C22.8567 12.2116 21.6164 12.2265 20.4316 11.9331C19.2467 11.6397 18.1566 11.0478 17.2653 10.2139C16.3739 9.37996 15.7109 8.3317 15.3393 7.16895C14.9678 6.00621 14.9001 4.76771 15.1428 3.57141H14.9999C10.3871 3.57141 6.50564 7.12855 5.97135 11.8486L5.47849 16.1971C5.35832 17.2727 4.92069 18.2882 4.22135 19.1143C2.74564 20.8514 3.94421 23.5714 6.18564 23.5714H23.8142C26.0571 23.5714 27.2542 20.8514 25.7771 19.1143C25.0782 18.2881 24.6411 17.2726 24.5214 16.1971L24.0342 11.89Z" fill="#242271"/>
<path d="M14.9998 28.5729C16.937 28.5729 18.5927 27.43 19.2456 25.8157V25.8186C19.2802 25.7272 19.2922 25.6287 19.2804 25.5316C19.2687 25.4346 19.2336 25.3418 19.1781 25.2613C19.1226 25.1808 19.0484 25.115 18.9618 25.0695C18.8753 25.024 18.779 25.0001 18.6813 25H11.3184C11.2208 25.0002 11.1247 25.024 11.0383 25.0695C10.952 25.1149 10.8779 25.1806 10.8224 25.2609C10.767 25.3412 10.7318 25.4338 10.7199 25.5306C10.708 25.6275 10.7197 25.7258 10.7541 25.8171C11.407 27.43 13.0627 28.5729 14.9998 28.5729Z" fill="#B2AEDB"/>
<path d="M24.6161 7.47306C25.3193 6.7698 25.7144 5.81597 25.7144 4.82141C25.7144 3.82685 25.3193 2.87302 24.6161 2.16976C23.9128 1.4665 22.959 1.07141 21.9644 1.07141C20.9699 1.07141 20.016 1.4665 19.3128 2.16976C18.6095 2.87302 18.2144 3.82685 18.2144 4.82141C18.2144 5.81597 18.6095 6.7698 19.3128 7.47306C20.016 8.17632 20.9699 8.57141 21.9644 8.57141C22.959 8.57141 23.9128 8.17632 24.6161 7.47306Z" fill="#FF576B"/>
</svg>
