<svg width="32" height="33" viewBox="0 0 32 33" fill="none" xmlns="http://www.w3.org/2000/svg">
<g clip-path="url(#clip0_3305_4187)">
<path fill-rule="evenodd" clip-rule="evenodd" d="M9.21113 5.09619C6.17238 5.91057 4.42363 10.0249 4.948 15.1281C5.49363 14.5362 6.18051 14.1174 6.93988 13.9137C7.69863 13.7106 8.50301 13.7293 9.27176 13.9693C8.22301 9.00682 8.19801 5.36744 9.21113 5.09619Z" fill="#FFB2AF"/>
<path fill-rule="evenodd" clip-rule="evenodd" d="M9.21118 5.09621C10.2243 4.82496 12.0224 7.98871 13.5956 12.8106C14.1412 12.2187 14.8281 11.8 15.5874 11.5962C16.3462 11.3931 17.1506 11.4118 17.9193 11.6518C15.8218 6.97121 12.2506 4.28184 9.21118 5.09621Z" fill="#FFB2AF"/>
<path d="M27.3154 19.36C28.6942 19.36 29.8154 18.2387 29.8154 16.86C29.8154 15.4812 28.6942 14.36 27.3154 14.36C25.9367 14.36 24.8154 15.4812 24.8154 16.86C24.8154 18.2387 25.9367 19.36 27.3154 19.36ZM27.3154 15.61C28.0048 15.61 28.5654 16.1706 28.5654 16.86C28.5654 17.5494 28.0048 18.11 27.3154 18.11C26.6261 18.11 26.0654 17.5494 26.0654 16.86C26.0654 16.1706 26.6261 15.61 27.3154 15.61Z" fill="#C32033"/>
<path d="M27.3154 13.4225C27.6604 13.4225 27.9404 13.1425 27.9404 12.7975V12.1725C27.9404 11.8275 27.6604 11.5475 27.3154 11.5475C26.9704 11.5475 26.6904 11.8275 26.6904 12.1725V12.7975C26.6904 13.1425 26.9704 13.4225 27.3154 13.4225Z" fill="#C32033"/>
<path d="M22.7149 14.2037C22.5424 14.5025 22.6449 14.885 22.9436 15.0575L23.4849 15.37C23.583 15.4269 23.6905 15.4537 23.7967 15.4537C24.013 15.4537 24.223 15.3419 24.3386 15.1412C24.5111 14.8425 24.4086 14.46 24.1099 14.2875L23.5686 13.975C23.2699 13.8025 22.8874 13.905 22.7149 14.2037Z" fill="#C32033"/>
<path d="M23.4849 18.35L22.9436 18.6625C22.6449 18.835 22.5424 19.2175 22.7149 19.5162C22.8305 19.7169 23.0405 19.8287 23.2567 19.8287C23.363 19.8287 23.4705 19.8019 23.5686 19.745L24.1099 19.4325C24.4086 19.26 24.5111 18.8775 24.3386 18.5787C24.1661 18.28 23.7836 18.1775 23.4849 18.35Z" fill="#C32033"/>
<path d="M26.6904 20.9225V21.5475C26.6904 21.8925 26.9704 22.1725 27.3154 22.1725C27.6604 22.1725 27.9404 21.8925 27.9404 21.5475V20.9225C27.9404 20.5775 27.6604 20.2975 27.3154 20.2975C26.9704 20.2975 26.6904 20.5775 26.6904 20.9225Z" fill="#C32033"/>
<path d="M30.5213 19.4325L31.0625 19.745C31.1606 19.8019 31.2681 19.8287 31.3744 19.8287C31.5906 19.8287 31.8006 19.7169 31.9163 19.5162C32.0888 19.2175 31.9863 18.835 31.6875 18.6625L31.1463 18.35C30.8475 18.1775 30.465 18.28 30.2925 18.5787C30.12 18.8775 30.2225 19.26 30.5213 19.4325Z" fill="#C32033"/>
<path d="M30.8344 15.4537C30.9406 15.4537 31.0481 15.4269 31.1463 15.37L31.6875 15.0575C31.9863 14.885 32.0888 14.5025 31.9163 14.2037C31.7438 13.905 31.3613 13.8025 31.0625 13.975L30.5213 14.2875C30.2225 14.46 30.12 14.8425 30.2925 15.1412C30.4081 15.3419 30.6181 15.4537 30.8344 15.4537Z" fill="#C32033"/>
<path d="M31.3749 28.6725H28.6462C26.4824 26.5556 23.9687 24.8937 21.168 23.7337C18.9918 22.8319 16.723 22.2669 14.3993 22.0444L12.0437 13.2525C12.498 13.2162 12.9612 13.2675 13.4093 13.4075C13.6399 13.4794 13.8912 13.4119 14.0549 13.2344C14.5199 12.73 15.1055 12.3725 15.7487 12.2C16.3918 12.0275 17.078 12.0444 17.7324 12.2487C17.963 12.3206 18.2143 12.2531 18.378 12.0756C18.8424 11.5719 19.4287 11.2137 20.0718 11.0412C20.7149 10.8687 21.4012 10.8856 22.0555 11.09C22.3012 11.1669 22.5687 11.085 22.7299 10.8837C22.8905 10.6825 22.9118 10.4037 22.783 10.1806C20.1305 5.58561 14.8024 3.24686 9.65741 4.34686L9.43741 3.52623C9.34803 3.19248 9.00553 2.99498 8.67178 3.08436C8.33866 3.17373 8.14053 3.51623 8.22991 3.84998L8.44991 4.67123C3.44428 6.28998 -9.43372e-05 10.9794 -9.43372e-05 16.2862C-9.43372e-05 16.5437 0.157406 16.775 0.397406 16.8681C0.471156 16.8969 0.548656 16.9112 0.624906 16.9112C0.796156 16.9112 0.963656 16.8406 1.08428 16.71C1.54928 16.2056 2.13491 15.8481 2.77803 15.6756C3.42116 15.5031 4.10741 15.52 4.76178 15.7244C4.99241 15.7962 5.24366 15.7287 5.40741 15.5512C5.87241 15.0469 6.45803 14.6894 7.10116 14.5169C7.74428 14.3444 8.43053 14.3612 9.08491 14.5656C9.31553 14.6375 9.56678 14.57 9.73053 14.3925C10.0487 14.0475 10.4243 13.7706 10.8355 13.5756L13.0812 21.9556C12.7637 21.9431 12.4449 21.935 12.1255 21.935C7.98366 21.935 3.89866 23.0294 0.311781 25.1006C0.0130306 25.2731 -0.0894693 25.6556 0.0830307 25.9544C0.255531 26.2531 0.638031 26.3556 0.936781 26.1831C4.33366 24.2219 8.20303 23.185 12.1255 23.185C12.5593 23.185 12.9912 23.1987 13.4205 23.2231L13.9718 25.2806C14.0468 25.56 14.2993 25.7444 14.5749 25.7444C14.6287 25.7444 14.683 25.7375 14.7368 25.7231C15.0699 25.6337 15.268 25.2912 15.1787 24.9575L14.7443 23.3375C19.2174 23.8556 23.3912 25.6981 26.8043 28.6725H0.624906C0.279906 28.6725 -9.43372e-05 28.9525 -9.43372e-05 29.2975C-9.43372e-05 29.6425 0.279906 29.9225 0.624906 29.9225H31.3749C31.7199 29.9225 31.9999 29.6425 31.9999 29.2975C31.9999 28.9525 31.7199 28.6725 31.3749 28.6725ZM9.08491 13.2719C8.31803 13.0969 7.52803 13.1087 6.77803 13.31C6.02803 13.5112 5.33741 13.8956 4.76116 14.4306C3.99428 14.2556 3.20428 14.2675 2.45428 14.4687C2.06178 14.5737 1.68553 14.7294 1.33366 14.9306C1.87991 10.5562 5.03241 6.86311 9.37303 5.69998C10.3124 5.44811 11.2618 5.32686 12.2012 5.32686C15.6037 5.32686 18.8655 6.91936 20.9499 9.67373C20.5449 9.67561 20.1412 9.72936 19.7487 9.83436C18.9987 10.0356 18.308 10.42 17.7318 10.955C16.9649 10.78 16.1749 10.7919 15.4249 10.9931C14.6749 11.1937 13.9843 11.5787 13.408 12.1137C12.6418 11.9387 11.8518 11.9506 11.1018 12.1519H11.1012C10.3512 12.3531 9.66116 12.7375 9.08491 13.2725V13.2719Z" fill="#C32033"/>
</g>
<defs>
<clipPath id="clip0_3305_4187">
<rect width="32" height="32" fill="white" transform="translate(0 0.5)"/>
</clipPath>
</defs>
</svg>
