<svg width="12" height="15" viewBox="0 0 12 15" fill="none" xmlns="http://www.w3.org/2000/svg">
    <path
        d="M5.14741 12.7659L5.35211 13.2898L5.14741 12.7659ZM2.10511 13.3501L1.82386 13.8372L1.82386 13.8372L2.10511 13.3501ZM1.0899 10.4233L1.64598 10.3386L1.0899 10.4233ZM1.45762 8.47156L1.94476 8.75281L1.45762 8.47156ZM1.01951 9.39951L0.466734 9.29536H0.466734L1.01951 9.39951ZM6.65377 11.4716L6.16663 11.1903L6.65377 11.4716ZM6.0692 12.315L6.43579 12.7416L6.43579 12.7416L6.0692 12.315ZM9.5026 6.53725L9.98974 6.8185L9.5026 6.53725ZM4.30645 3.53725L3.81931 3.256L4.30645 3.53725ZM9.01546 6.256L6.16663 11.1903L7.14091 11.7528L9.98974 6.8185L9.01546 6.256ZM1.94476 8.75281L4.79359 3.8185L3.81931 3.256L0.970481 8.19031L1.94476 8.75281ZM4.94271 12.2419C4.12036 12.5632 3.56029 12.7806 3.12793 12.8816C2.71028 12.9791 2.52076 12.9405 2.38636 12.8629L1.82386 13.8372C2.31381 14.1201 2.83946 14.1043 3.38388 13.9771C3.91359 13.8533 4.56249 13.5983 5.35211 13.2898L4.94271 12.2419ZM0.53381 10.508C0.661451 11.346 0.76506 12.0355 0.922737 12.5561C1.08479 13.0912 1.33391 13.5543 1.82386 13.8372L2.38636 12.8629C2.25196 12.7853 2.12376 12.6405 1.99944 12.23C1.87074 11.8051 1.77892 11.2114 1.64598 10.3386L0.53381 10.508ZM0.970481 8.19031C0.729115 8.60837 0.535866 8.92844 0.466734 9.29536L1.57228 9.50366C1.59775 9.3685 1.66504 9.2373 1.94476 8.75281L0.970481 8.19031ZM1.64598 10.3386C1.56175 9.78551 1.54682 9.63882 1.57228 9.50366L0.466734 9.29536C0.397602 9.66228 0.461126 10.0307 0.53381 10.508L1.64598 10.3386ZM6.16663 11.1903C5.88692 11.6748 5.80694 11.7987 5.70262 11.8883L6.43579 12.7416C6.71898 12.4983 6.89955 12.1709 7.14091 11.7528L6.16663 11.1903ZM5.35211 13.2898C5.80174 13.1141 6.15259 12.9849 6.43579 12.7416L5.70262 11.8883C5.5983 11.9779 5.46379 12.0384 4.94271 12.2419L5.35211 13.2898ZM8.12328 2.92631C8.74942 3.28782 9.16943 3.53168 9.45881 3.755C9.73528 3.96835 9.82335 4.11206 9.85912 4.24557L10.9458 3.9544C10.8208 3.48776 10.5222 3.15461 10.1461 2.86437C9.78293 2.5841 9.28438 2.29763 8.68578 1.95203L8.12328 2.92631ZM9.98974 6.8185C10.3353 6.2199 10.6239 5.72254 10.7983 5.29822C10.9789 4.85881 11.0708 4.42103 10.9458 3.9544L9.85912 4.24557C9.89489 4.37908 9.89048 4.54757 9.75772 4.87056C9.61877 5.20865 9.37697 5.62985 9.01546 6.256L9.98974 6.8185ZM8.68578 1.95203C8.08717 1.60643 7.58982 1.3179 7.1655 1.14351C6.72608 0.962906 6.28831 0.870952 5.82167 0.995988L6.11284 2.08265C6.24636 2.04688 6.41484 2.0513 6.73784 2.18405C7.07593 2.32301 7.49713 2.56481 8.12328 2.92631L8.68578 1.95203ZM4.79359 3.8185C5.15509 3.19235 5.39896 2.77235 5.62228 2.48296C5.83563 2.2065 5.97933 2.11843 6.11284 2.08265L5.82167 0.995988C5.35504 1.12102 5.02189 1.41954 4.73164 1.79566C4.45137 2.15884 4.16491 2.6574 3.81931 3.256L4.79359 3.8185ZM9.78385 6.05011L4.5877 3.05011L4.0252 4.02439L9.22135 7.02439L9.78385 6.05011Z"
        fill="#2490EF" />
</svg>