<svg width="24" height="24" viewBox="0 0 24 24" fill="none" xmlns="http://www.w3.org/2000/svg">
<path d="M12.0003 14.1549C11.4788 14.1549 11.0562 13.7424 11.0562 13.2332C11.0562 12.724 11.4788 12.3115 12.0003 12.3115C12.5219 12.3115 12.9445 12.724 12.9445 13.2332C12.9445 13.7424 12.5219 14.1549 12.0003 14.1549ZM12.0003 6.79517C8.35985 6.79517 5.4082 9.67751 5.4082 13.2336C5.4082 16.7897 8.35941 19.672 12.0003 19.672C15.6413 19.672 18.5925 16.7897 18.5925 13.2336C18.5925 9.67751 15.6413 6.79517 12.0003 6.79517Z" fill="#FFBE1D"/>
<path d="M19.0712 6.32727C17.5237 4.81563 15.558 3.86129 13.4289 3.56523C13.6019 3.30527 13.7027 2.99547 13.7027 2.66289C13.7027 1.74594 12.9391 1 11.9998 1C11.0605 1 10.2968 1.74594 10.2968 2.66289C10.2968 2.99547 10.3976 3.30527 10.5706 3.56523C8.4416 3.86086 6.47633 4.81563 4.92876 6.32727C3.04008 8.17191 2 10.6246 2 13.2332C2 15.8418 3.04008 18.2945 4.92876 20.1391C6.81745 21.9838 9.32895 23 11.9998 23C14.6706 23 17.1821 21.9842 19.0708 20.1391C20.9595 18.2945 21.9996 15.8418 21.9996 13.2332C21.9996 10.6246 20.9595 8.17191 19.0708 6.32727H19.0712ZM20.6082 13.6629H21.1091C21.0048 15.7946 20.1302 17.7329 18.7508 19.2157L18.3982 18.8716C18.2261 18.704 17.9475 18.704 17.7759 18.8716C17.6038 19.0396 17.6038 19.3116 17.7759 19.4791L18.1289 19.8237C16.6099 21.1725 14.6244 22.028 12.4404 22.1299V21.6366C12.4404 21.3994 12.2432 21.2069 12.0002 21.2069C11.7573 21.2069 11.5601 21.3994 11.5601 21.6366V22.1299C9.37604 22.028 7.39052 21.1725 5.87156 19.8237L6.22456 19.4791C6.39666 19.3111 6.39622 19.0391 6.22456 18.8716C6.05247 18.704 5.77385 18.704 5.60219 18.8716L5.24963 19.2157C3.87064 17.7325 2.99562 15.7946 2.8913 13.6629H3.3922C3.63516 13.6629 3.83235 13.4704 3.83235 13.2332C3.83235 12.996 3.63516 12.8035 3.3922 12.8035H2.8913C2.99562 10.6718 3.8702 8.73352 5.24963 7.25066L5.60219 7.59484C5.68802 7.67863 5.8007 7.72074 5.91338 7.72074C6.02606 7.72074 6.13874 7.67863 6.22456 7.59484C6.39666 7.42684 6.39666 7.15484 6.22456 6.98727L5.87156 6.64266C7.39052 5.29387 9.37604 4.43836 11.5601 4.33652V4.8298C11.5601 5.06699 11.7573 5.25949 12.0002 5.25949C12.2432 5.25949 12.4404 5.06699 12.4404 4.8298V4.33652C14.6244 4.43836 16.6099 5.29387 18.1289 6.64266L17.7759 6.98727C17.6038 7.15527 17.6038 7.42727 17.7759 7.59484C17.8617 7.67863 17.9744 7.72074 18.0871 7.72074C18.1997 7.72074 18.3124 7.67863 18.3982 7.59484L18.7508 7.25066C20.1298 8.73395 21.0048 10.6718 21.1091 12.8035H20.6082C20.3653 12.8035 20.1681 12.996 20.1681 13.2332C20.1681 13.4704 20.3653 13.6629 20.6082 13.6629ZM12.0002 1.85938C12.4536 1.85938 12.8229 2.21988 12.8229 2.66289C12.8229 3.1059 12.454 3.46641 12.0002 3.46641C11.5464 3.46641 11.1776 3.1059 11.1776 2.66289C11.1776 2.21988 11.5464 1.85938 12.0002 1.85938Z" fill="#020288"/>
<path d="M15.0408 12.8035H13.3118C13.1741 12.4035 12.8497 12.0868 12.4399 11.9523V9.21432C12.4399 8.97714 12.2427 8.78464 11.9998 8.78464C11.7568 8.78464 11.5596 8.97714 11.5596 9.21432V11.9523C11.0116 12.1323 10.6155 12.6381 10.6155 13.2332C10.6155 13.9783 11.2365 14.5846 11.9998 14.5846C12.6089 14.5846 13.1274 14.1978 13.3118 13.6629H15.0408C15.2837 13.6629 15.4809 13.4704 15.4809 13.2332C15.4809 12.996 15.2837 12.8035 15.0408 12.8035ZM12.0002 13.7252C11.7225 13.7252 11.4962 13.5048 11.4962 13.2332C11.4962 12.9616 11.722 12.7412 12.0002 12.7412C12.2784 12.7412 12.5042 12.9616 12.5042 13.2332C12.5042 13.5048 12.2779 13.7252 12.0002 13.7252Z" fill="#020288"/>
</svg>
