<svg width="22" height="22" viewBox="0 0 22 22" fill="none" xmlns="http://www.w3.org/2000/svg">
<path fill-rule="evenodd" clip-rule="evenodd" d="M2.75 0.5C1.508 0.5 0.5 1.508 0.5 2.75V19.25C0.5 20.492 1.508 21.5 2.75 21.5H13.25C14.492 21.5 15.5 20.492 15.5 19.25V18.5C15.5 18.3011 15.421 18.1103 15.2803 17.9697C15.1397 17.829 14.9489 17.75 14.75 17.75C14.5511 17.75 14.3603 17.829 14.2197 17.9697C14.079 18.1103 14 18.3011 14 18.5V19.25C14 19.4489 13.921 19.6397 13.7803 19.7803C13.6397 19.921 13.4489 20 13.25 20H2.75C2.55109 20 2.36032 19.921 2.21967 19.7803C2.07902 19.6397 2 19.4489 2 19.25V2.75C2 2.55109 2.07902 2.36032 2.21967 2.21967C2.36032 2.07902 2.55109 2 2.75 2H13.25C13.4489 2 13.6397 2.07902 13.7803 2.21967C13.921 2.36032 14 2.55109 14 2.75V5C14 5.19891 14.079 5.38968 14.2197 5.53033C14.3603 5.67098 14.5511 5.75 14.75 5.75C14.9489 5.75 15.1397 5.67098 15.2803 5.53033C15.421 5.38968 15.5 5.19891 15.5 5V2.75C15.5 1.508 14.492 0.5 13.25 0.5H2.75ZM6.5 2.75C6.30109 2.75 6.11032 2.82902 5.96967 2.96967C5.82902 3.11032 5.75 3.30109 5.75 3.5C5.75 3.69891 5.82902 3.88968 5.96967 4.03033C6.11032 4.17098 6.30109 4.25 6.5 4.25H9.5C9.69891 4.25 9.88968 4.17098 10.0303 4.03033C10.171 3.88968 10.25 3.69891 10.25 3.5C10.25 3.30109 10.171 3.11032 10.0303 2.96967C9.88968 2.82902 9.69891 2.75 9.5 2.75H6.5ZM10.25 6.5C9.008 6.5 8 7.508 8 8.75V14.75C8 15.992 9.008 17 10.25 17H19.25C20.492 17 21.5 15.992 21.5 14.75V8.75C21.5 7.508 20.492 6.5 19.25 6.5H10.25ZM10.25 8H19.25C19.4489 8 19.6397 8.07902 19.7803 8.21967C19.921 8.36032 20 8.55109 20 8.75V9.5H9.5V8.75C9.5 8.55109 9.57902 8.36032 9.71967 8.21967C9.86032 8.07902 10.0511 8 10.25 8ZM9.5 11H20V14.75C20 14.9489 19.921 15.1397 19.7803 15.2803C19.6397 15.421 19.4489 15.5 19.25 15.5H10.25C10.0511 15.5 9.86032 15.421 9.71967 15.2803C9.57902 15.1397 9.5 14.9489 9.5 14.75V11ZM17 13.25C16.8011 13.25 16.6103 13.329 16.4697 13.4697C16.329 13.6103 16.25 13.8011 16.25 14C16.25 14.1989 16.329 14.3897 16.4697 14.5303C16.6103 14.671 16.8011 14.75 17 14.75H18.5C18.6989 14.75 18.8897 14.671 19.0303 14.5303C19.171 14.3897 19.25 14.1989 19.25 14C19.25 13.8011 19.171 13.6103 19.0303 13.4697C18.8897 13.329 18.6989 13.25 18.5 13.25H17Z" fill="#8CA9C2"/>
</svg>
