<svg width="24" height="24" viewBox="0 0 24 24" fill="none" xmlns="http://www.w3.org/2000/svg">
<path d="M16.8618 14.5373C16.6806 14.5373 16.5034 14.4835 16.3527 14.3828C16.202 14.282 16.0845 14.1389 16.0151 13.9714C15.9458 13.8039 15.9276 13.6197 15.963 13.4419C15.9983 13.2641 16.0856 13.1008 16.2137 12.9726L19.1297 10.0557C19.4717 9.71612 19.7432 9.31218 19.9284 8.86719C20.1137 8.4222 20.209 7.94495 20.209 7.46295C20.209 6.98094 20.1137 6.50369 19.9284 6.0587C19.7432 5.61372 19.4717 5.20978 19.1297 4.87015C18.4411 4.18427 17.5088 3.79917 16.5369 3.79917C15.565 3.79917 14.6327 4.18427 13.9441 4.87015L11.0282 7.78699C10.8563 7.95899 10.6231 8.05567 10.3799 8.05576C10.1368 8.05584 9.90354 7.95933 9.73154 7.78745C9.55953 7.61556 9.46286 7.38239 9.46277 7.13923C9.46268 6.89606 9.5592 6.66283 9.73108 6.49082L12.6479 3.57399C13.1571 3.05644 13.7637 2.64482 14.4328 2.36289C15.1019 2.08095 15.8201 1.93428 16.5461 1.93132C17.2722 1.92836 17.9916 2.06919 18.663 2.34566C19.3343 2.62214 19.9442 3.0288 20.4576 3.54219C20.971 4.05557 21.3777 4.66553 21.6542 5.33687C21.9306 6.0082 22.0715 6.72764 22.0685 7.45367C22.0655 8.1797 21.9189 8.89797 21.6369 9.56703C21.355 10.2361 20.9434 10.8427 20.4258 11.3519L17.5099 14.2687C17.425 14.3542 17.324 14.4219 17.2128 14.468C17.1015 14.5141 16.9823 14.5376 16.8618 14.5373ZM7.46233 22.0347C6.37508 22.0341 5.3124 21.7113 4.40854 21.107C3.50467 20.5028 2.80019 19.6442 2.38408 18.6397C1.96797 17.6352 1.8589 16.53 2.07066 15.4635C2.28242 14.3971 2.80551 13.4174 3.57383 12.6481L6.49066 9.73124C6.57522 9.64369 6.67637 9.57385 6.78821 9.52581C6.90005 9.47777 7.02033 9.45248 7.14205 9.45143C7.26376 9.45037 7.38447 9.47356 7.49712 9.51965C7.60978 9.56574 7.71212 9.63381 7.79819 9.71988C7.88426 9.80594 7.95233 9.90829 7.99842 10.0209C8.04451 10.1336 8.0677 10.2543 8.06664 10.376C8.06558 10.4977 8.0403 10.618 7.99226 10.7299C7.94421 10.8417 7.87438 10.9428 7.78683 11.0274L4.87 13.9442C4.18234 14.6319 3.79603 15.5645 3.79603 16.537C3.79603 17.5095 4.18234 18.4422 4.87 19.1298C5.55765 19.8175 6.4903 20.2038 7.46279 20.2038C8.43527 20.2038 9.36793 19.8175 10.0556 19.1298L12.9724 16.213C13.057 16.1254 13.1581 16.0556 13.27 16.0076C13.3818 15.9595 13.5021 15.9342 13.6238 15.9332C13.7455 15.9321 13.8662 15.9553 13.9789 16.0014C14.0915 16.0475 14.1939 16.1156 14.2799 16.2016C14.366 16.2877 14.4341 16.39 14.4802 16.5027C14.5263 16.6154 14.5495 16.7361 14.5484 16.8578C14.5473 16.9795 14.522 17.0998 14.474 17.2116C14.426 17.3234 14.3561 17.4246 14.2686 17.5092L11.3517 20.426C10.842 20.938 10.2358 21.3439 9.56821 21.62C8.90058 21.8962 8.18481 22.0371 7.46233 22.0347Z" fill="#8CA9C2"/>
<path d="M8.11032 16.806C7.92905 16.806 7.75186 16.7522 7.60115 16.6515C7.45044 16.5508 7.33298 16.4076 7.26361 16.2401C7.19425 16.0727 7.1761 15.8884 7.21145 15.7106C7.2468 15.5328 7.33408 15.3695 7.46224 15.2413L15.2402 7.46246C15.3247 7.37491 15.4259 7.30508 15.5377 7.25704C15.6495 7.209 15.7698 7.18371 15.8915 7.18265C16.0132 7.18159 16.134 7.20479 16.2466 7.25088C16.3593 7.29697 16.4616 7.36503 16.5477 7.4511C16.6337 7.53717 16.7018 7.63952 16.7479 7.75217C16.794 7.86483 16.8172 7.98553 16.8161 8.10725C16.8151 8.22896 16.7898 8.34925 16.7417 8.46109C16.6937 8.57292 16.6239 8.67407 16.5363 8.75863L8.7584 16.5375C8.67351 16.6229 8.57252 16.6906 8.46127 16.7367C8.35003 16.7828 8.23074 16.8064 8.11032 16.806Z" fill="#8CA9C2"/>
</svg>
