<svg width="28" height="28" viewBox="0 0 28 28" fill="none" xmlns="http://www.w3.org/2000/svg">
<path d="M13.9957 1.75C7.24477 1.75 1.75 7.24477 1.75 13.9957C1.75 20.7467 7.24477 26.2415 13.9957 26.2415C20.7467 26.2415 26.2415 20.7467 26.2415 13.9957C26.2415 7.24477 20.7552 1.75 13.9957 1.75ZM18.5505 14.8503H14.8503V18.5505C14.8503 19.0205 14.4657 19.405 13.9957 19.405C13.5257 19.405 13.1412 19.0205 13.1412 18.5505V14.8503H9.44097C8.97096 14.8503 8.58641 14.4657 8.58641 13.9957C8.58641 13.5257 8.97096 13.1412 9.44097 13.1412H13.1412V9.44097C13.1412 8.97096 13.5257 8.58641 13.9957 8.58641C14.4657 8.58641 14.8503 8.97096 14.8503 9.44097V13.1412H18.5505C19.0205 13.1412 19.405 13.5257 19.405 13.9957C19.405 14.4657 19.0205 14.8503 18.5505 14.8503Z" fill="#2475EF"/>
</svg>
