<svg width="28" height="28" viewBox="0 0 28 28" fill="none" xmlns="http://www.w3.org/2000/svg">
<path d="M23.3334 6.70837H16.3334C15.855 6.70837 15.4584 6.31171 15.4584 5.83337C15.4584 5.35504 15.855 4.95837 16.3334 4.95837H23.3334C23.8117 4.95837 24.2084 5.35504 24.2084 5.83337C24.2084 6.31171 23.8117 6.70837 23.3334 6.70837Z" fill="#4B6F8E"/>
<path d="M19.8334 10.2083H16.3334C15.855 10.2083 15.4584 9.81165 15.4584 9.33331C15.4584 8.85498 15.855 8.45831 16.3334 8.45831H19.8334C20.3117 8.45831 20.7084 8.85498 20.7084 9.33331C20.7084 9.81165 20.3117 10.2083 19.8334 10.2083Z" fill="#4B6F8E"/>
<path d="M13.4167 25.375C6.82504 25.375 1.45837 20.0084 1.45837 13.4167C1.45837 6.82504 6.82504 1.45837 13.4167 1.45837C13.895 1.45837 14.2917 1.85504 14.2917 2.33337C14.2917 2.81171 13.895 3.20837 13.4167 3.20837C7.78171 3.20837 3.20837 7.79337 3.20837 13.4167C3.20837 19.04 7.78171 23.625 13.4167 23.625C19.0517 23.625 23.625 19.04 23.625 13.4167C23.625 12.9384 24.0217 12.5417 24.5 12.5417C24.9784 12.5417 25.375 12.9384 25.375 13.4167C25.375 20.0084 20.0084 25.375 13.4167 25.375Z" fill="#4B6F8E"/>
<path d="M25.6667 26.5417C25.4451 26.5417 25.2234 26.46 25.0484 26.285L22.7151 23.9517C22.3767 23.6133 22.3767 23.0533 22.7151 22.715C23.0534 22.3767 23.6134 22.3767 23.9517 22.715L26.2851 25.0483C26.6234 25.3867 26.6234 25.9467 26.2851 26.285C26.1101 26.46 25.8884 26.5417 25.6667 26.5417Z" fill="#4B6F8E"/>
</svg>
