<svg width="20" height="20" viewBox="0 0 20 20" fill="none" xmlns="http://www.w3.org/2000/svg">
<path d="M19.7046 2.59145L19.668 2.73242L15.0229 18.3719C14.5618 19.9229 12.5395 20.2328 11.6263 18.9533L11.5388 18.8201L7.64301 12.366L1.16747 8.38014C-0.208999 7.53277 0.0164829 5.48602 1.48607 4.93295L1.63716 4.88272L17.2937 0.326986C18.709 -0.0826114 20.0162 1.18579 19.7046 2.59145ZM17.7846 1.75314L17.7117 1.76756L2.05577 6.32313C1.72987 6.41772 1.64982 6.83643 1.88765 7.05309L1.95377 7.10274L8.07801 10.872L13.3233 5.59254C13.5887 5.32538 14.0053 5.29979 14.2996 5.51667L14.384 5.589C14.6511 5.85438 14.6767 6.27096 14.4598 6.5653L14.3875 6.64966L9.13501 11.936L12.823 18.045C12.9986 18.3359 13.4093 18.3068 13.5545 18.0214L13.585 17.9447L18.2303 2.30464C18.3202 2.00303 18.0734 1.72213 17.7846 1.75314Z" fill="#200E32"/>
</svg>
