<svg width="16" height="14" viewBox="0 0 16 14" fill="none" xmlns="http://www.w3.org/2000/svg">
<path d="M15.8338 7.14598L10.0833 13.2602C10.0023 13.3464 9.8985 13.4055 9.78509 13.43C9.67167 13.4544 9.55383 13.4432 9.44659 13.3976C9.33936 13.352 9.2476 13.2742 9.18303 13.1741C9.11847 13.074 9.08402 12.9561 9.08409 12.8355V9.72985C3.42087 9.95429 1.09915 13.6726 1.07591 13.718C1.00657 13.832 0.902737 13.9186 0.780825 13.9642C0.658913 14.0099 0.525872 14.0119 0.402724 13.97C0.281032 13.9289 0.175731 13.8472 0.103073 13.7375C0.0304155 13.6279 -0.00556046 13.4964 0.000697781 13.3633C0.000697781 13.2725 0.600789 4.46515 9.08376 3.7736V0.607064C9.08368 0.486458 9.11814 0.368566 9.18273 0.268444C9.24732 0.168322 9.3391 0.0905131 9.44636 0.0449532C9.55363 -0.000606583 9.6715 -0.0118496 9.78493 0.0126601C9.89835 0.0371697 10.0022 0.0963197 10.0832 0.182556L15.8337 6.29679C15.9404 6.41019 16.0001 6.56263 16.0001 6.72139C16.0001 6.88015 15.9405 7.03258 15.8338 7.14598Z" fill="#2475EF"/>
</svg>
