<svg width="20" height="20" viewBox="0 0 20 20" fill="none" xmlns="http://www.w3.org/2000/svg">
<path d="M19.3266 9.08709C19.5142 8.89756 19.6469 8.6567 19.7095 8.39209C19.7721 8.12749 19.762 7.84984 19.6803 7.59095C19.6006 7.33131 19.4524 7.10038 19.2526 6.92464C19.0529 6.7489 18.8098 6.63546 18.5512 6.59732L13.8298 5.88124C13.7307 5.86622 13.6367 5.82628 13.5557 5.76486C13.4748 5.70345 13.4094 5.62239 13.3651 5.5287L11.2543 1.0635C11.1396 0.818623 10.9611 0.612436 10.7393 0.468561C10.5175 0.324687 10.2613 0.248944 10.0002 0.250011C9.73911 0.24902 9.48304 0.324799 9.26131 0.46867C9.03957 0.61254 8.86114 0.818685 8.74644 1.0635L6.63525 5.52911C6.54545 5.71944 6.3713 5.85108 6.17022 5.88165L1.44884 6.59773C1.19019 6.63587 0.947072 6.74931 0.747355 6.92505C0.547637 7.10079 0.399402 7.33172 0.319643 7.59135C0.238031 7.85024 0.227928 8.12789 0.290492 8.3925C0.353057 8.65711 0.485757 8.89797 0.673395 9.0875L4.08949 12.5632C4.23512 12.7115 4.30189 12.9251 4.26753 13.1337L3.46163 18.0415C3.42517 18.2501 3.43362 18.4645 3.48636 18.6692C3.53911 18.8739 3.63483 19.0638 3.76658 19.2251C4.1828 19.7415 4.90944 19.8988 5.49044 19.5801L9.71282 17.2627C9.8018 17.2153 9.90029 17.1906 10.0002 17.1906C10.1001 17.1906 10.1986 17.2153 10.2876 17.2627L14.5103 19.5801C14.7105 19.6915 14.9339 19.7499 15.1608 19.75C15.5735 19.75 15.9648 19.5585 16.2338 19.2251C16.3656 19.0638 16.4613 18.8739 16.5141 18.6692C16.5668 18.4645 16.5752 18.2501 16.5387 18.0415L15.7325 13.1337C15.7156 13.0307 15.723 12.9249 15.754 12.8255C15.785 12.7261 15.8387 12.6361 15.9105 12.5632L19.3266 9.08709Z" fill="#FFBE1D"/>
</svg>
