<svg width="22" height="23" viewBox="0 0 22 23" fill="none" xmlns="http://www.w3.org/2000/svg">
<g clip-path="url(#clip0_2095_728)">
<path d="M13.9049 8.32485H8.09486C8.06174 8.32446 8.02886 8.33065 7.99815 8.34306C7.96743 8.35547 7.93948 8.37385 7.91592 8.39714C7.89236 8.42043 7.87365 8.44816 7.86089 8.47873C7.84812 8.5093 7.84155 8.5421 7.84155 8.57523V14.4482C7.84155 14.5866 7.95503 14.7001 8.09486 14.7001H13.9049C14.044 14.7001 14.1568 14.5873 14.1568 14.4482V8.57523C14.1568 8.54222 14.1502 8.50955 14.1376 8.47907C14.1249 8.4486 14.1063 8.42093 14.0829 8.39766C14.0595 8.37439 14.0317 8.35598 14.0012 8.34348C13.9706 8.33099 13.9379 8.32465 13.9049 8.32485Z" fill="white"/>
<path d="M11.0007 0.5C4.92639 0.5 0.000732422 5.42419 0.000732422 11.5C0.000732422 17.5758 4.92639 22.5 11.0007 22.5C17.0758 22.5 21.9993 17.5758 21.9993 11.5C21.9993 5.42419 17.0758 0.5 11.0007 0.5ZM11.0007 20.6624C5.94037 20.6624 1.8376 16.5596 1.8376 11.5C1.8376 6.43817 5.94037 2.33614 11.0007 2.33614C16.0618 2.33614 20.1624 6.43817 20.1624 11.5C20.1624 16.5596 16.0618 20.6624 11.0007 20.6624Z" fill="white"/>
</g>
<defs>
<clipPath id="clip0_2095_728">
<rect width="22" height="22" fill="white" transform="translate(0 0.5)"/>
</clipPath>
</defs>
</svg>
