<svg width="16" height="20" viewBox="0 0 16 20" fill="none" xmlns="http://www.w3.org/2000/svg">
<path d="M13.5535 6.29073L14.6512 5.19302L13.571 4.1125L12.3968 5.28679C11.324 4.52656 10.0722 4.05802 8.7639 3.92706V2.36109H10.2917V0.833313H5.70834V2.36109H7.23612V3.92706C5.92784 4.05802 4.67601 4.52656 3.60325 5.28679L2.42897 4.1125L1.34883 5.19302L2.44654 6.29073C1.42189 7.3756 0.737441 8.73684 0.477713 10.2063C0.217984 11.6758 0.394351 13.1892 0.985033 14.5596C1.57572 15.93 2.55484 17.0973 3.8015 17.9175C5.04816 18.7377 6.50774 19.1748 8.00001 19.1748C9.49227 19.1748 10.9519 18.7377 12.1985 17.9175C13.4452 17.0973 14.4243 15.93 15.015 14.5596C15.6057 13.1892 15.782 11.6758 15.5223 10.2063C15.2626 8.73684 14.5781 7.3756 13.5535 6.29073ZM8.00001 17.6389C6.79134 17.6389 5.60982 17.2805 4.60486 16.609C3.59989 15.9375 2.81661 14.983 2.35408 13.8664C1.89154 12.7497 1.77052 11.521 2.00632 10.3355C2.24212 9.1501 2.82415 8.0612 3.6788 7.20655C4.53345 6.3519 5.62235 5.76987 6.80779 5.53407C7.99323 5.29827 9.22197 5.41929 10.3386 5.88183C11.4553 6.34436 12.4097 7.12764 13.0812 8.13261C13.7527 9.13757 14.1111 10.3191 14.1111 11.5278C14.1093 13.148 13.4649 14.7013 12.3192 15.847C11.1735 16.9926 9.62022 17.6371 8.00001 17.6389Z" fill="white"/>
<path d="M8.00001 6.94458V11.5279H3.41667C3.41667 12.4344 3.68548 13.3206 4.1891 14.0743C4.69273 14.828 5.40854 15.4155 6.24604 15.7624C7.08353 16.1093 8.00509 16.2 8.89417 16.0232C9.78325 15.8463 10.5999 15.4098 11.2409 14.7688C11.8819 14.1278 12.3184 13.3112 12.4953 12.4221C12.6721 11.533 12.5814 10.6114 12.2345 9.77395C11.8876 8.93645 11.3001 8.22063 10.5464 7.71701C9.79264 7.21339 8.9065 6.94458 8.00001 6.94458Z" fill="white"/>
</svg>
