<svg width="22" height="20" viewBox="0 0 22 20" fill="none" xmlns="http://www.w3.org/2000/svg">
<path d="M20.1667 3.58354H15.5833V2.66684C15.5833 1.65575 14.7611 0.833496 13.75 0.833496H8.25C7.2389 0.833496 6.41665 1.6557 6.41665 2.66684V3.5835H1.83335C0.822207 3.58354 0 4.40575 0 5.41684V8.16684C0 9.17798 0.822207 10.0002 1.83335 10.0002H9.1667V9.54184C9.1667 9.2885 9.3717 9.0835 9.62504 9.0835H12.375C12.6284 9.0835 12.8334 9.2885 12.8334 9.54184V10.0002H20.1667C21.1778 10.0002 22 9.17798 22 8.16684V5.41684C22 4.40575 21.1778 3.58354 20.1667 3.58354ZM13.75 3.58354H8.25V2.66684H13.75V3.58354Z" fill="white"/>
<path d="M21.7458 10.4948C21.5896 10.4173 21.4029 10.4352 21.265 10.54C20.9392 10.7866 20.5596 10.9168 20.1666 10.9168H12.8333V12.2918C12.8333 12.5452 12.6283 12.7502 12.375 12.7502H9.625C9.37166 12.7502 9.16665 12.5452 9.16665 12.2918V10.9168H1.83335C1.44036 10.9168 1.06081 10.7866 0.734937 10.54C0.596621 10.4343 0.410437 10.4164 0.254203 10.4948C0.0984844 10.5722 0 10.7311 0 10.9052V17.3335C0 18.3446 0.822207 19.1669 1.83335 19.1669H20.1667C21.1778 19.1669 22 18.3447 22 17.3335V10.9052C22 10.7311 21.9015 10.5722 21.7458 10.4948Z" fill="white" fill-opacity="0.7"/>
</svg>
