<svg width="32" height="32" viewBox="0 0 32 32" fill="none" xmlns="http://www.w3.org/2000/svg">
<g clip-path="url(#clip0_2838_1842)">
<path d="M16 4.75415C22.2109 4.75415 27.2459 9.78921 27.2459 16C27.2459 22.2108 22.2109 27.2459 16 27.2459C9.78915 27.2459 4.75415 22.2109 4.75415 16C4.75415 9.78915 9.78915 4.75415 16 4.75415Z" fill="#2490EF"/>
<path d="M29.7267 7.90559C29.4635 7.45997 28.8888 7.31222 28.4432 7.57522C27.9976 7.8384 27.8496 8.41303 28.1128 8.85872C31.372 14.3773 30.4787 21.4016 25.9405 25.9403C21.4273 30.4528 14.4077 31.3897 8.85884 28.1127C7.84315 27.5128 6.90146 26.782 6.0599 25.9405C5.46709 25.3475 4.45965 25.777 4.45996 26.6033V29.1202C4.45996 29.6378 4.87952 30.0574 5.39715 30.0574C5.91477 30.0574 6.33434 29.6378 6.33434 29.1202V28.665C6.83654 29.0499 7.36129 29.4044 7.90577 29.7267C14.1272 33.4008 22.0942 32.4367 27.2659 27.2657C32.4088 22.122 33.4208 14.1608 29.7267 7.90559Z" fill="#2490EF"/>
<path d="M6.05964 6.05976C11.5332 0.587011 20.4233 0.542762 25.9403 6.05957C26.5258 6.6452 27.5406 6.23482 27.5402 5.3967V2.87982C27.5402 2.36226 27.1206 1.94264 26.603 1.94264C26.0854 1.94264 25.6658 2.3622 25.6658 2.87982V3.33501C19.311 -1.52624 10.3676 -0.898114 4.73427 4.73432C-0.408731 9.87801 -1.42073 17.8391 2.27339 24.0944C2.53664 24.5401 3.11127 24.6879 3.55689 24.4248C4.00252 24.1616 4.15052 23.5869 3.88727 23.1413C0.628206 17.6226 1.52146 10.5984 6.05964 6.05976Z" fill="#2490EF"/>
<path d="M22.4114 20.8276C22.1471 20.8276 21.8844 20.7163 21.699 20.4998C20.2709 18.8312 18.1938 17.8743 16.0001 17.8743C13.8065 17.8743 11.7294 18.8312 10.3013 20.4998C9.96482 20.8931 9.37326 20.9391 8.97989 20.6024C8.58664 20.2658 8.54076 19.6743 8.87732 19.281C10.6619 17.1959 13.2581 16 16.0001 16C18.742 16 21.3382 17.1959 23.1228 19.281C23.4594 19.6743 23.4135 20.2658 23.0203 20.6024C22.8508 20.7479 22.6348 20.8278 22.4114 20.8276Z" fill="white" fill-opacity="0.7"/>
<path d="M16 17.8744C13.4163 17.8744 11.3142 15.7724 11.3142 13.1886C11.3142 10.6047 13.4163 8.50281 16 8.50281C18.5838 8.50281 20.6858 10.6048 20.6858 13.1886C20.6858 15.7724 18.5838 17.8744 16 17.8744Z" fill="white"/>
</g>
<defs>
<clipPath id="clip0_2838_1842">
<rect width="32" height="32" fill="white"/>
</clipPath>
</defs>
</svg>
