<svg width="24" height="24" viewBox="0 0 24 24" fill="none" xmlns="http://www.w3.org/2000/svg">
<path d="M6.00002 14.75H3.00002C2.87298 14.7494 2.74818 14.7166 2.63732 14.6545C2.52645 14.5925 2.43316 14.5033 2.36619 14.3954C2.29922 14.2874 2.26077 14.1642 2.25444 14.0374C2.24812 13.9105 2.27412 13.7841 2.33002 13.67L3.16002 12L2.33002 10.34C2.26875 10.2281 2.23663 10.1026 2.23663 9.97501C2.23663 9.84743 2.26875 9.7219 2.33002 9.61C2.39866 9.49498 2.49723 9.40074 2.61523 9.33734C2.73322 9.27394 2.86621 9.24375 3.00002 9.25H6.00002C6.19886 9.25018 6.3895 9.32931 6.53002 9.47001L8.31002 11.25H11.43C11.5692 10.951 11.7909 10.698 12.0691 10.5209C12.3472 10.3437 12.6702 10.2497 13 10.25C13.4641 10.25 13.9093 10.4344 14.2375 10.7626C14.5656 11.0908 14.75 11.5359 14.75 12C14.75 12.4641 14.5656 12.9093 14.2375 13.2374C13.9093 13.5656 13.4641 13.75 13 13.75C12.6702 13.7503 12.3472 13.6563 12.0691 13.4792C11.7909 13.302 11.5692 13.049 11.43 12.75H8.31002L6.53002 14.53C6.3895 14.6707 6.19886 14.7498 6.00002 14.75ZM13 16.25C12.3423 16.2462 11.6944 16.0908 11.1065 15.796C10.5185 15.5011 10.0065 15.0748 9.61002 14.55C9.55092 14.4712 9.47689 14.4048 9.39214 14.3546C9.30739 14.3045 9.21359 14.2715 9.11609 14.2575C9.01858 14.2436 8.91929 14.249 8.82388 14.2735C8.72847 14.2979 8.63881 14.3409 8.56002 14.4C8.48123 14.4591 8.41484 14.5331 8.36466 14.6179C8.31448 14.7026 8.28149 14.7964 8.26756 14.8939C8.23943 15.0909 8.29067 15.2909 8.41002 15.45C9.13411 16.4155 10.1436 17.1286 11.2956 17.4885C12.4475 17.8483 13.6834 17.8366 14.8283 17.4549C15.9732 17.0733 16.969 16.3411 17.6747 15.3621C18.3803 14.3831 18.76 13.2068 18.76 12C18.76 10.7932 18.3803 9.61695 17.6747 8.63792C16.969 7.65889 15.9732 6.92671 14.8283 6.54508C13.6834 6.16344 12.4475 6.15172 11.2956 6.51155C10.1436 6.87139 9.13411 7.58455 8.41002 8.55C8.29067 8.70914 8.23943 8.90916 8.26756 9.10607C8.29569 9.30298 8.40089 9.48066 8.56002 9.60001C8.71915 9.71935 8.91917 9.7706 9.11609 9.74247C9.313 9.71434 9.49067 9.60913 9.61002 9.45C10.0449 8.87012 10.6209 8.4111 11.2833 8.1166C11.9456 7.8221 12.6723 7.70189 13.3942 7.76742C14.1161 7.83294 14.8092 8.08201 15.4077 8.49095C16.0062 8.89989 16.4902 9.45512 16.8136 10.1038C17.137 10.7526 17.2891 11.4732 17.2554 12.1973C17.2218 12.9214 17.0035 13.6248 16.6213 14.2407C16.2392 14.8567 15.7058 15.3646 15.072 15.7163C14.4381 16.068 13.7249 16.2517 13 16.25ZM13 3.25C11.4549 3.25163 9.93774 3.66238 8.60284 4.44049C7.26793 5.2186 6.16287 6.33632 5.40002 7.68C5.34246 7.76564 5.30319 7.86223 5.28466 7.96374C5.26614 8.06524 5.26876 8.16948 5.29236 8.26993C5.31596 8.37038 5.36003 8.46487 5.42182 8.54751C5.4836 8.63015 5.56178 8.69915 5.65145 8.75019C5.74112 8.80124 5.84036 8.83323 5.94297 8.84417C6.04557 8.8551 6.14932 8.84475 6.24774 8.81376C6.34616 8.78277 6.43712 8.73181 6.51495 8.66405C6.59277 8.5963 6.65577 8.51322 6.70002 8.42C7.49029 7.02832 8.71884 5.93723 10.1941 5.31686C11.6694 4.69648 13.3085 4.58169 14.8559 4.99038C16.4032 5.39906 17.7718 6.30826 18.7484 7.57621C19.7249 8.84416 20.2545 10.3996 20.2545 12C20.2545 13.6004 19.7249 15.1559 18.7484 16.4238C17.7718 17.6918 16.4032 18.6009 14.8559 19.0096C13.3085 19.4183 11.6694 19.3035 10.1941 18.6832C8.71884 18.0628 7.49029 16.9717 6.70002 15.58C6.65577 15.4868 6.59277 15.4037 6.51495 15.336C6.43712 15.2682 6.34616 15.2172 6.24774 15.1862C6.14932 15.1553 6.04557 15.1449 5.94297 15.1558C5.84036 15.1668 5.74112 15.1988 5.65145 15.2498C5.56178 15.3009 5.4836 15.3699 5.42182 15.4525C5.36003 15.5351 5.31596 15.6296 5.29236 15.7301C5.26876 15.8305 5.26614 15.9348 5.28466 16.0363C5.30319 16.1378 5.34246 16.2344 5.40002 16.32C6.15986 17.6584 7.25926 18.7727 8.58729 19.5504C9.91532 20.3282 11.425 20.7419 12.964 20.7499C14.503 20.7578 16.0169 20.3597 17.3529 19.5957C18.6889 18.8317 19.7997 17.7289 20.5734 16.3984C21.347 15.068 21.756 13.557 21.7592 12.018C21.7624 10.479 21.3596 8.96636 20.5914 7.63274C19.8233 6.29912 18.717 5.1917 17.3841 4.42221C16.0513 3.65272 14.539 3.24839 13 3.25Z" fill="#2475EF"/>
</svg>
