<svg width="55" height="55" viewBox="0 0 55 55" fill="none" xmlns="http://www.w3.org/2000/svg">
<path d="M44.6875 30.6084H10.3125V46.5171C10.3124 46.8868 10.4315 47.2466 10.6521 47.5432C10.8727 47.8399 11.1831 48.0574 11.5371 48.1637L27.0059 52.8043C27.3283 52.9006 27.6717 52.9006 27.9941 52.8043L43.4629 48.1637C43.8169 48.0574 44.1273 47.8399 44.3479 47.5432C44.5685 47.2466 44.6876 46.8868 44.6875 46.5171V30.6084Z" fill="url(#paint0_linear_1508_2314)"/>
<path d="M44.6875 30.6084H27.5C27.5 30.6084 27.3333 52.8765 27.5 52.8765C27.6667 52.8765 27.8326 52.8525 27.9941 52.8043L43.4629 48.1637C43.8169 48.0574 44.1273 47.8399 44.3479 47.5432C44.5685 47.2466 44.6876 46.8868 44.6875 46.5171V30.6084Z" fill="url(#paint1_linear_1508_2314)"/>
<path d="M27.5 36.1849L10.3125 30.6084L5.95118 37.0743C5.87663 37.1847 5.82874 37.3108 5.8113 37.4429C5.79386 37.5749 5.80733 37.7092 5.85067 37.8351C5.894 37.961 5.96601 38.0751 6.061 38.1685C6.156 38.2618 6.27138 38.3318 6.39805 38.3729L21.8625 43.3968C22.0397 43.4544 22.2308 43.4528 22.407 43.3924C22.5833 43.3319 22.7351 43.2158 22.8396 43.0616L27.5 36.1849Z" fill="url(#paint2_linear_1508_2314)"/>
<path d="M44.6875 30.6084L27.5 36.1849L32.1604 43.0616C32.2649 43.2158 32.4167 43.3319 32.593 43.3924C32.7692 43.4528 32.9603 43.4544 33.1375 43.3968L48.602 38.3729C48.7286 38.3318 48.844 38.2618 48.939 38.1685C49.034 38.0751 49.106 37.961 49.1493 37.8351C49.1927 37.7092 49.2061 37.5749 49.1887 37.4429C49.1713 37.3108 49.1234 37.1847 49.0488 37.0743L44.6875 30.6084Z" fill="url(#paint3_linear_1508_2314)"/>
<path d="M23.3398 18.8942C23.235 18.7404 23.0833 18.6248 22.9072 18.5647C22.7312 18.5046 22.5404 18.5032 22.3635 18.5607L6.89819 23.5855C6.77144 23.6263 6.65593 23.6961 6.56082 23.7894C6.46572 23.8826 6.39363 23.9967 6.35027 24.1226C6.3069 24.2485 6.29346 24.3828 6.311 24.5148C6.32854 24.6468 6.37658 24.7729 6.45132 24.8832L10.3125 30.6083L27.5 25.0129L23.3398 18.8942Z" fill="url(#paint4_linear_1508_2314)"/>
<path d="M48.5487 24.8832C48.623 24.7728 48.6708 24.6468 48.6881 24.5148C48.7055 24.3829 48.692 24.2488 48.6486 24.123C48.6053 23.9972 48.5334 23.8831 48.4385 23.7899C48.3436 23.6966 48.2283 23.6266 48.1018 23.5855L32.6365 18.5607C32.4596 18.5032 32.2688 18.5046 32.0928 18.5647C31.9167 18.6248 31.7649 18.7404 31.6602 18.8942L27.5 25.0129L44.6875 30.6083L48.5487 24.8832Z" fill="url(#paint5_linear_1508_2314)"/>
<path d="M44.6875 30.6083L27.5 25.0129L10.3125 30.6083L27.5 36.1848L44.6875 30.6083Z" fill="url(#paint6_linear_1508_2314)"/>
<path d="M27.5 36.1848V25.0129L10.3125 30.6083L27.5 36.1848Z" fill="url(#paint7_linear_1508_2314)"/>
<path d="M24.047 27.4811C23.7054 27.2591 23.3824 27.0096 23.0811 26.7352C22.9122 26.5876 22.6923 26.5119 22.4683 26.5242C22.2444 26.5365 22.0341 26.6359 21.8824 26.8012C21.7308 26.9664 21.6497 27.1844 21.6566 27.4086C21.6635 27.6328 21.7577 27.8454 21.9192 28.0011C22.2707 28.3242 22.6669 28.6318 23.1069 28.9197C23.2976 29.0404 23.5282 29.0811 23.7487 29.0332C23.9693 28.9853 24.1621 28.8525 24.2856 28.6636C24.4091 28.4746 24.4533 28.2447 24.4086 28.0235C24.364 27.8022 24.2341 27.6074 24.047 27.4811ZM21.3692 24.8411C21.125 24.512 20.9083 24.1634 20.7213 23.7987C20.6179 23.5955 20.438 23.4417 20.2213 23.3711C20.0045 23.3005 19.7686 23.3189 19.5654 23.4223C19.3622 23.5257 19.2084 23.7055 19.1378 23.9223C19.0672 24.1391 19.0856 24.375 19.189 24.5782C19.4073 25.0061 19.672 25.435 19.9856 25.8604C20.1225 26.0393 20.3241 26.1573 20.5471 26.189C20.77 26.2208 20.9966 26.1638 21.1779 26.0302C21.3593 25.8966 21.4809 25.6971 21.5167 25.4748C21.5525 25.2524 21.4995 25.0249 21.3692 24.8411ZM20.1128 21.334C20.1214 20.9877 20.1721 20.6517 20.2649 20.3294C20.296 20.2209 20.3054 20.1073 20.2926 19.9952C20.2798 19.883 20.2451 19.7745 20.1903 19.6758C20.1356 19.5771 20.0619 19.4901 19.9736 19.4199C19.8852 19.3496 19.7839 19.2975 19.6754 19.2664C19.5669 19.2353 19.4533 19.2259 19.3412 19.2387C19.229 19.2515 19.1205 19.2862 19.0218 19.341C18.9231 19.3957 18.8361 19.4694 18.7658 19.5577C18.6956 19.6461 18.6434 19.7474 18.6124 19.8559C18.4794 20.3232 18.4061 20.8054 18.3941 21.2911C18.3884 21.519 18.4734 21.7398 18.6306 21.905C18.7877 22.0702 19.004 22.1662 19.232 22.1719C19.4599 22.1776 19.6807 22.0925 19.8459 21.9354C20.0111 21.7783 20.1071 21.562 20.1128 21.334ZM21.4345 18.4637C21.6554 18.2592 21.9029 18.0701 22.1736 17.8991C22.2691 17.8389 22.3518 17.7605 22.4169 17.6683C22.4821 17.5762 22.5285 17.4721 22.5534 17.362C22.5783 17.2519 22.5814 17.138 22.5623 17.0267C22.5432 16.9155 22.5024 16.8091 22.4422 16.7136C22.3819 16.6181 22.3035 16.5354 22.2114 16.4703C22.1192 16.4051 22.0151 16.3587 21.905 16.3338C21.7949 16.3089 21.681 16.3059 21.5698 16.3249C21.4585 16.344 21.3521 16.3848 21.2566 16.445C20.904 16.6666 20.5726 16.9204 20.2666 17.203C20.1037 17.3589 20.0085 17.5726 20.0017 17.7981C19.9949 18.0235 20.077 18.2426 20.2303 18.408C20.3835 18.5735 20.5957 18.672 20.821 18.6825C21.0463 18.6929 21.2666 18.6143 21.4345 18.4637ZM24.6306 16.9813C25.0842 16.8984 25.5431 16.8479 26.0038 16.83C26.2262 16.8129 26.4332 16.71 26.5812 16.5432C26.7291 16.3764 26.8066 16.1586 26.7971 15.9358C26.7876 15.713 26.692 15.5026 26.5304 15.3489C26.3688 15.1953 26.1538 15.1104 25.9308 15.1122C25.3636 15.1362 24.8256 15.1972 24.3177 15.2909C24.0936 15.3324 23.8951 15.4612 23.7659 15.6491C23.6367 15.8369 23.5875 16.0683 23.629 16.2925C23.6704 16.5167 23.7993 16.7152 23.9871 16.8443C24.1749 16.9735 24.4064 17.0228 24.6306 16.9813ZM29.1096 16.9306C29.8427 16.9392 30.525 16.9134 31.1584 16.8575C31.3833 16.8348 31.5902 16.7243 31.7342 16.55C31.8782 16.3757 31.9478 16.1517 31.9278 15.9265C31.9078 15.7013 31.7998 15.493 31.6273 15.3469C31.4548 15.2007 31.2317 15.1284 31.0063 15.1457C30.4262 15.1964 29.8014 15.2204 29.1294 15.2118C28.9015 15.2092 28.6818 15.2973 28.5188 15.4566C28.3558 15.6159 28.2627 15.8334 28.2601 16.0613C28.2575 16.2893 28.3455 16.5089 28.5048 16.6719C28.6642 16.8349 28.8817 16.928 29.1096 16.9306ZM33.9831 16.3308C34.8339 16.0704 35.5524 15.7369 36.1539 15.3545C36.2491 15.2938 36.3314 15.215 36.3962 15.1226C36.4609 15.0301 36.5068 14.9258 36.5312 14.8156C36.5556 14.7054 36.5581 14.5914 36.5385 14.4803C36.5189 14.3691 36.4775 14.2629 36.4169 14.1677C36.3562 14.0725 36.2774 13.9902 36.1849 13.9255C36.0925 13.8607 35.9881 13.8148 35.8779 13.7904C35.7677 13.766 35.6538 13.7635 35.5426 13.7831C35.4315 13.8028 35.3253 13.8441 35.2301 13.9047C34.6847 14.2429 34.0961 14.506 33.4804 14.6868C33.2624 14.7534 33.0798 14.904 32.9728 15.1053C32.8658 15.3066 32.8431 15.5421 32.9098 15.7601C32.9764 15.9781 33.127 16.1607 33.3283 16.2677C33.5296 16.3748 33.7651 16.3974 33.9831 16.3308ZM38.3573 12.9491C38.744 12.1459 38.9234 11.2587 38.879 10.3684C38.8737 10.2557 38.8463 10.1451 38.7983 10.0429C38.7504 9.94076 38.6827 9.84906 38.5993 9.77305C38.5159 9.69704 38.4183 9.63821 38.3121 9.59991C38.2059 9.56161 38.0933 9.5446 37.9805 9.54985C37.8678 9.5551 37.7572 9.5825 37.655 9.63049C37.5529 9.67849 37.4612 9.74613 37.3852 9.82956C37.3091 9.91299 37.2503 10.0106 37.212 10.1167C37.1737 10.2229 37.1567 10.3356 37.162 10.4483C37.1929 11.053 37.0717 11.6557 36.8096 12.2015C36.7219 12.4051 36.7162 12.6347 36.7937 12.8424C36.8712 13.0501 37.0259 13.2199 37.2255 13.3164C37.4251 13.4128 37.6543 13.4284 37.8652 13.36C38.076 13.2916 38.2524 13.1444 38.3573 12.9491ZM37.8099 7.32966C37.1834 6.48317 36.3335 5.89364 35.4071 5.70372C35.1873 5.6665 34.9615 5.71612 34.7775 5.8421C34.5935 5.96809 34.4657 6.1606 34.4209 6.37905C34.376 6.5975 34.4178 6.82481 34.5374 7.01305C34.6569 7.20129 34.8449 7.33576 35.0616 7.38809C35.5962 7.49723 36.0671 7.86419 36.4289 8.35317C36.4961 8.44385 36.5805 8.52041 36.6773 8.57846C36.7741 8.63652 36.8814 8.67495 36.993 8.69154C37.1047 8.70814 37.2185 8.70259 37.328 8.6752C37.4375 8.64781 37.5405 8.59913 37.6312 8.53192C37.7219 8.46472 37.7984 8.38031 37.8565 8.28352C37.9145 8.18673 37.953 8.07945 37.9696 7.96781C37.9862 7.85617 37.9806 7.74235 37.9532 7.63286C37.9258 7.52336 37.8771 7.42034 37.8099 7.32966Z" fill="white"/>
<path d="M26.583 5.87034C27.5129 0.604952 35.5712 0.945264 30.8799 5.87034H26.583Z" fill="url(#paint8_linear_1508_2314)"/>
<path d="M26.583 7.2041C27.5129 12.4686 35.5712 12.1292 30.8799 7.2041H26.583Z" fill="url(#paint9_linear_1508_2314)"/>
<path d="M26.5057 7.40527H32.2601C32.488 7.40527 32.7066 7.31473 32.8677 7.15357C33.0289 6.9924 33.1194 6.77382 33.1194 6.5459C33.1194 6.31798 33.0289 6.09939 32.8677 5.93823C32.7066 5.77706 32.488 5.68652 32.2601 5.68652H26.5057C26.2844 5.69642 26.0755 5.79129 25.9224 5.95137C25.7693 6.11145 25.6839 6.32441 25.6839 6.5459C25.6839 6.76739 25.7693 6.98035 25.9224 7.14043C26.0755 7.30051 26.2844 7.39538 26.5057 7.40527Z" fill="url(#paint10_linear_1508_2314)"/>
<defs>
<linearGradient id="paint0_linear_1508_2314" x1="10.3125" y1="41.7425" x2="44.6875" y2="41.7425" gradientUnits="userSpaceOnUse">
<stop stop-color="#CADCF0"/>
<stop offset="1" stop-color="#A4BBDB"/>
</linearGradient>
<linearGradient id="paint1_linear_1508_2314" x1="27.4261" y1="41.7425" x2="44.6875" y2="41.7425" gradientUnits="userSpaceOnUse">
<stop stop-color="#A4BBDB"/>
<stop offset="1" stop-color="#8DA3BE"/>
</linearGradient>
<linearGradient id="paint2_linear_1508_2314" x1="10.4268" y1="30.6015" x2="12.829" y2="46.4943" gradientUnits="userSpaceOnUse">
<stop stop-color="#E9F3FC"/>
<stop offset="1" stop-color="#CADCF0"/>
</linearGradient>
<linearGradient id="paint3_linear_1508_2314" x1="27.5696" y1="36.1264" x2="45.6884" y2="46.5471" gradientUnits="userSpaceOnUse">
<stop stop-color="#E9F3FC"/>
<stop offset="1" stop-color="#CADCF0"/>
</linearGradient>
<linearGradient id="paint4_linear_1508_2314" x1="8.06265" y1="27.2731" x2="10.6554" y2="15.0508" gradientUnits="userSpaceOnUse">
<stop stop-color="#E9F3FC"/>
<stop offset="1" stop-color="#CADCF0"/>
</linearGradient>
<linearGradient id="paint5_linear_1508_2314" x1="32.1011" y1="18.3536" x2="33.0282" y2="33.4397" gradientUnits="userSpaceOnUse">
<stop stop-color="#E9F3FC"/>
<stop offset="1" stop-color="#CADCF0"/>
</linearGradient>
<linearGradient id="paint6_linear_1508_2314" x1="10.3125" y1="30.5989" x2="44.6875" y2="30.5989" gradientUnits="userSpaceOnUse">
<stop stop-color="#CADCF0"/>
<stop offset="1" stop-color="#A4BBDB"/>
</linearGradient>
<linearGradient id="paint7_linear_1508_2314" x1="29.2677" y1="24.7656" x2="29.638" y2="38.6473" gradientUnits="userSpaceOnUse">
<stop stop-color="#A4BBDB"/>
<stop offset="1" stop-color="#8DA3BE"/>
</linearGradient>
<linearGradient id="paint8_linear_1508_2314" x1="26.583" y1="3.95909" x2="32.3366" y2="3.95909" gradientUnits="userSpaceOnUse">
<stop stop-color="#E9F3FC"/>
<stop offset="1" stop-color="#CADCF0"/>
</linearGradient>
<linearGradient id="paint9_linear_1508_2314" x1="26.583" y1="9.11535" x2="32.3366" y2="9.11535" gradientUnits="userSpaceOnUse">
<stop stop-color="#E9F3FC"/>
<stop offset="1" stop-color="#CADCF0"/>
</linearGradient>
<linearGradient id="paint10_linear_1508_2314" x1="18.0392" y1="5.87029" x2="34.9894" y2="25.8707" gradientUnits="userSpaceOnUse">
<stop stop-color="#559AFF"/>
<stop offset="1" stop-color="#2E69EF"/>
</linearGradient>
</defs>
</svg>
