<svg width="16" height="16" viewBox="0 0 16 16" fill="none" xmlns="http://www.w3.org/2000/svg">
<path fill-rule="evenodd" clip-rule="evenodd" d="M4.7525 0.499924H11.255C13.7975 0.499924 15.5 2.28492 15.5 4.93992V11.0682C15.5 13.7149 13.7975 15.4999 11.255 15.4999H4.7525C2.21 15.4999 0.5 13.7149 0.5 11.0682V4.93992C0.5 2.28492 2.21 0.499924 4.7525 0.499924ZM7.5725 10.2424L11.135 6.67992C11.39 6.42492 11.39 6.01242 11.135 5.74992C10.88 5.49492 10.46 5.49492 10.205 5.74992L7.1075 8.84742L5.795 7.53492C5.54 7.27992 5.12 7.27992 4.865 7.53492C4.61 7.78992 4.61 8.20242 4.865 8.46492L6.65 10.2424C6.7775 10.3699 6.9425 10.4299 7.1075 10.4299C7.28 10.4299 7.445 10.3699 7.5725 10.2424Z" fill="#00A438"/>
</svg>
