<svg width="28" height="28" viewBox="0 0 28 28" fill="none" xmlns="http://www.w3.org/2000/svg">
<path d="M22.6567 13.7083H18.6667C18.1884 13.7083 17.7917 13.3117 17.7917 12.8333V4.67834C17.7917 3.81501 18.13 3.01001 18.7367 2.40335C19.3434 1.79668 20.1484 1.45834 21.0117 1.45834H21.0234C22.4817 1.47001 23.8584 2.04168 24.9084 3.08001C25.9584 4.14168 26.53 5.54168 26.53 7.00001V9.82334C26.5417 12.145 24.9784 13.7083 22.6567 13.7083ZM19.5417 11.9583H22.6567C24.01 11.9583 24.7917 11.1767 24.7917 9.82334V7.00001C24.7917 5.99668 24.395 5.04001 23.6834 4.31668C22.9717 3.61668 22.015 3.22001 21.0234 3.20834C21.0234 3.20834 21.0234 3.20834 21.0117 3.20834C20.6267 3.20834 20.2534 3.36001 19.9734 3.64001C19.6934 3.92001 19.5417 4.28167 19.5417 4.67834V11.9583Z" fill="#8CA9C2"/>
<path d="M10.5 27.2183C9.95165 27.2183 9.43831 27.0083 9.05331 26.6117L7.11665 24.6633C7.01165 24.5583 6.84831 24.5467 6.73165 24.64L4.72498 26.1333C4.10665 26.6 3.28998 26.6817 2.58998 26.3317C1.88998 25.9817 1.45831 25.2817 1.45831 24.5V7.00001C1.45831 3.47668 3.47665 1.45834 6.99998 1.45834H21C21.4783 1.45834 21.875 1.85501 21.875 2.33334C21.875 2.81168 21.4783 3.20834 21 3.20834C20.195 3.20834 19.5416 3.86168 19.5416 4.66668V24.5C19.5416 25.2817 19.11 25.9817 18.41 26.3317C17.71 26.6817 16.8933 26.6117 16.275 26.145L14.28 24.6517C14.1633 24.5583 14 24.5817 13.9066 24.675L11.9466 26.635C11.5616 27.0083 11.0483 27.2183 10.5 27.2183ZM6.89498 22.8317C7.43165 22.8317 7.95665 23.03 8.35331 23.4383L10.29 25.3867C10.36 25.4567 10.4533 25.4683 10.5 25.4683C10.5466 25.4683 10.64 25.4567 10.71 25.3867L12.67 23.4267C13.3933 22.7033 14.5366 22.6333 15.3416 23.2517L17.325 24.7333C17.4533 24.8267 17.57 24.7917 17.6283 24.7567C17.6866 24.7217 17.7916 24.6517 17.7916 24.5V4.66668C17.7916 4.14168 17.92 3.64001 18.1416 3.20834H6.99998C4.40998 3.20834 3.20831 4.41001 3.20831 7.00001V24.5C3.20831 24.6633 3.31331 24.7333 3.37165 24.7683C3.44165 24.8033 3.55831 24.8267 3.67498 24.7333L5.66998 23.24C6.03165 22.9717 6.46331 22.8317 6.89498 22.8317Z" fill="#8CA9C2"/>
<path d="M14 16.0533H10.5C10.0217 16.0533 9.625 15.6567 9.625 15.1783C9.625 14.7 10.0217 14.3033 10.5 14.3033H14C14.4783 14.3033 14.875 14.7 14.875 15.1783C14.875 15.6567 14.4783 16.0533 14 16.0533Z" fill="#8CA9C2"/>
<path d="M14 11.3867H10.5C10.0217 11.3867 9.625 10.99 9.625 10.5117C9.625 10.0334 10.0217 9.63669 10.5 9.63669H14C14.4783 9.63669 14.875 10.0334 14.875 10.5117C14.875 10.99 14.4783 11.3867 14 11.3867Z" fill="#8CA9C2"/>
<path d="M6.96525 11.6783C6.32358 11.6783 5.79858 11.1533 5.79858 10.5117C5.79858 9.87 6.32358 9.345 6.96525 9.345C7.60692 9.345 8.13192 9.87 8.13192 10.5117C8.13192 11.1533 7.60692 11.6783 6.96525 11.6783Z" fill="#8CA9C2"/>
<path d="M6.96525 16.345C6.32358 16.345 5.79858 15.82 5.79858 15.1784C5.79858 14.5367 6.32358 14.0117 6.96525 14.0117C7.60692 14.0117 8.13192 14.5367 8.13192 15.1784C8.13192 15.82 7.60692 16.345 6.96525 16.345Z" fill="#8CA9C2"/>
</svg>
