<svg width="23" height="26" viewBox="0 0 23 26" fill="none" xmlns="http://www.w3.org/2000/svg">
<path d="M11.4519 12.5305C13.1504 12.5305 14.621 11.9213 15.823 10.7194C17.0245 9.5176 17.6339 8.04718 17.6339 6.34843C17.6339 4.65027 17.0247 3.17965 15.8228 1.97751C14.6208 0.775948 13.1502 0.166748 11.4519 0.166748C9.75312 0.166748 8.28269 0.775948 7.08094 1.9777C5.87919 3.17946 5.26979 4.65007 5.26979 6.34843C5.26979 8.04718 5.87919 9.51779 7.08094 10.7195C8.28309 11.9211 9.7537 12.5305 11.4519 12.5305ZM8.14464 3.04121C9.06676 2.11908 10.1485 1.67085 11.4519 1.67085C12.7551 1.67085 13.837 2.11908 14.7593 3.04121C15.6814 3.96352 16.1298 5.04544 16.1298 6.34843C16.1298 7.65181 15.6814 8.73353 14.7593 9.65585C13.837 10.5782 12.7551 11.0264 11.4519 11.0264C10.1489 11.0264 9.06715 10.578 8.14464 9.65585C7.22232 8.73373 6.77389 7.65181 6.77389 6.34843C6.77389 5.04544 7.22232 3.96352 8.14464 3.04121Z" fill="#8CA9C2"/>
<path d="M22.2688 19.9031C22.2342 19.403 22.1641 18.8574 22.0609 18.2813C21.9567 17.7009 21.8226 17.1522 21.662 16.6507C21.4959 16.1324 21.2705 15.6205 20.9915 15.13C20.7023 14.6208 20.3623 14.1775 19.9809 13.8127C19.582 13.431 19.0936 13.1242 18.5289 12.9003C17.9661 12.6777 17.3424 12.5649 16.6752 12.5649C16.4132 12.5649 16.1598 12.6724 15.6704 12.991C15.3693 13.1874 15.017 13.4146 14.6238 13.6658C14.2876 13.88 13.8321 14.0807 13.2695 14.2625C12.7206 14.4401 12.1633 14.5302 11.613 14.5302C11.0632 14.5302 10.5059 14.4401 9.95658 14.2625C9.39458 14.0809 8.9389 13.8802 8.60326 13.666C8.21378 13.4171 7.8613 13.19 7.55562 12.9908C7.06666 12.6722 6.81326 12.5647 6.55125 12.5647C5.8839 12.5647 5.2604 12.6777 4.69781 12.9005C4.13345 13.124 3.64488 13.4308 3.2456 13.8129C2.86414 14.1779 2.52419 14.621 2.23516 15.13C1.95651 15.6205 1.73092 16.1322 1.56487 16.6509C1.40449 17.1524 1.27035 17.7009 1.16617 18.2813C1.06278 18.8566 0.992872 19.4024 0.958211 19.9037C0.924138 20.3938 0.906906 20.9039 0.906906 21.4193C0.906906 22.7591 1.33282 23.8438 2.17269 24.6437C3.00219 25.4331 4.09957 25.8333 5.43449 25.8333H17.7931C19.1277 25.8333 20.2251 25.4331 21.0547 24.6437C21.8948 23.8444 22.3207 22.7593 22.3207 21.4191C22.3205 20.902 22.3031 20.3919 22.2688 19.9031ZM20.0177 23.554C19.4696 24.0757 18.7419 24.3292 17.793 24.3292H5.43449C4.48534 24.3292 3.75767 24.0757 3.20976 23.5542C2.67223 23.0425 2.41101 22.344 2.41101 21.4193C2.41101 20.9384 2.42687 20.4635 2.45859 20.0077C2.48953 19.5604 2.55278 19.0691 2.64658 18.547C2.7392 18.0314 2.85709 17.5476 2.9973 17.1095C3.13183 16.6895 3.31531 16.2735 3.54285 15.8729C3.76002 15.491 4.00989 15.1634 4.2856 14.8995C4.5435 14.6525 4.86856 14.4505 5.25159 14.2989C5.60583 14.1587 6.00393 14.0819 6.43611 14.0704C6.48879 14.0984 6.58259 14.1518 6.73454 14.2509C7.04374 14.4524 7.40014 14.6823 7.79413 14.9339C8.23825 15.2171 8.81044 15.4728 9.49405 15.6935C10.1929 15.9195 10.9057 16.0343 11.6132 16.0343C12.3207 16.0343 13.0337 15.9195 13.7322 15.6937C14.4164 15.4726 14.9884 15.2171 15.4331 14.9335C15.8363 14.6758 16.1827 14.4526 16.4919 14.2509C16.6439 14.152 16.7377 14.0984 16.7903 14.0704C17.2227 14.0819 17.6208 14.1587 17.9753 14.2989C18.3581 14.4505 18.6832 14.6527 18.9411 14.8995C19.2168 15.1632 19.4666 15.4909 19.6838 15.8731C19.9115 16.2735 20.0952 16.6897 20.2296 17.1093C20.37 17.548 20.488 18.0316 20.5805 18.5468C20.6741 19.0699 20.7375 19.5614 20.7685 20.0079V20.0082C20.8004 20.4624 20.8164 20.937 20.8166 21.4193C20.8164 22.3442 20.5552 23.0425 20.0177 23.554Z" fill="#8CA9C2"/>
</svg>
