<svg width="24" height="24" viewBox="0 0 24 24" fill="none" xmlns="http://www.w3.org/2000/svg">
<path d="M22.539 20.9835L22.0323 15.2942C21.9461 14.3267 21.3211 13.5139 20.2724 13.0054L16.1245 10.9943C16.0131 10.9403 15.8892 10.9174 15.7659 10.9279C15.6426 10.9385 15.5244 10.9821 15.4238 11.0543C14.4095 11.7817 13.2256 12.1662 12.0001 12.1662C10.7745 12.1662 9.59058 11.7817 8.57631 11.0543C8.47573 10.9822 8.35755 10.9385 8.23423 10.928C8.11091 10.9174 7.98703 10.9403 7.87566 10.9943L3.72771 13.0055C2.67902 13.514 2.05399 14.3268 1.96784 15.2942L1.46107 20.9834C1.41367 21.5151 1.57906 22.0042 1.93935 22.398C2.2996 22.7918 2.77213 23 3.30593 23H20.6941C21.2279 23 21.7005 22.7918 22.0608 22.398C22.421 22.0042 22.5864 21.515 22.539 20.9835ZM12.1548 13.5385L13.2459 18.3199L12.0001 19.7244L10.7541 18.3199L11.8453 13.5385C11.8969 13.5396 11.9484 13.5412 12.0001 13.5412C12.0517 13.5412 12.1032 13.5396 12.1548 13.5385ZM21.0462 21.47C20.9481 21.5772 20.8395 21.625 20.6941 21.625H3.30593C3.16057 21.625 3.05199 21.5772 2.95389 21.4699C2.85579 21.3627 2.81776 21.2503 2.83065 21.1055L3.33743 15.4162C3.39363 14.7857 3.98196 14.4104 4.32764 14.2428L8.11912 12.4044C8.84937 12.8695 9.64322 13.1969 10.4718 13.3773L9.33496 18.3587C9.31062 18.4654 9.31208 18.5763 9.33921 18.6822C9.36633 18.7882 9.41835 18.8861 9.49094 18.9679L11.4858 21.2167C11.5503 21.2894 11.6295 21.3476 11.7182 21.3875C11.8068 21.4274 11.9029 21.448 12.0001 21.448C12.0973 21.448 12.1934 21.4274 12.2821 21.3875C12.3707 21.3476 12.4499 21.2894 12.5144 21.2167L14.5093 18.9679C14.5818 18.8861 14.6338 18.7882 14.661 18.6822C14.6881 18.5763 14.6895 18.4654 14.6652 18.3587L13.5284 13.3773C14.3569 13.1969 15.1508 12.8695 15.8811 12.4044L19.6726 14.2427C20.0182 14.4103 20.6066 14.7857 20.6628 15.4162L21.1695 21.1055C21.1824 21.2502 21.1444 21.3627 21.0462 21.47ZM12.0001 10.5285C14.4913 10.5285 16.518 8.39127 16.518 5.76425C16.518 3.13722 14.4913 1 12.0001 1C9.50877 1 7.48202 3.13722 7.48202 5.76425C7.48202 8.39127 9.50877 10.5285 12.0001 10.5285ZM12.0001 2.375C13.7331 2.375 15.143 3.89541 15.143 5.76425C15.143 7.63309 13.7331 9.15349 12.0001 9.15349C10.267 9.15349 8.85702 7.63309 8.85702 5.76425C8.85702 3.89541 10.267 2.375 12.0001 2.375Z" fill="#8CA9C2"/>
</svg>
