<svg width="24" height="24" viewBox="0 0 24 24" fill="none" xmlns="http://www.w3.org/2000/svg">
<path d="M20.4844 12.5696H18.1351C17.8154 12.5696 17.5058 12.6133 17.2112 12.6936C16.63 11.5512 15.4435 10.7662 14.0763 10.7662H9.92367C8.55647 10.7662 7.36997 11.5512 6.78881 12.6936C6.48774 12.6114 6.17702 12.5696 5.86491 12.5696H3.51562C1.57711 12.5696 0 14.1467 0 16.0852V19.8408C0 21.0039 0.946266 21.9501 2.10938 21.9501H21.8906C23.0537 21.9501 24 21.0039 24 19.8408V16.0852C24 14.1467 22.4229 12.5696 20.4844 12.5696ZM6.40805 14.282V20.5439H2.10938C1.72167 20.5439 1.40625 20.2285 1.40625 19.8408V16.0853C1.40625 14.9222 2.35252 13.9759 3.51562 13.9759H5.86491C6.05578 13.9759 6.24061 14.0018 6.41658 14.0496C6.41119 14.1269 6.40834 14.2044 6.40805 14.282ZM16.1857 20.5439H7.8143V14.2819C7.8143 13.1188 8.76056 12.1725 9.92367 12.1725H14.0763C15.2394 12.1725 16.1857 13.1188 16.1857 14.2819V20.5439ZM22.5938 19.8408C22.5938 20.2285 22.2783 20.5439 21.8906 20.5439H17.592V14.2819C17.5917 14.2044 17.5888 14.1269 17.5834 14.0495C17.7632 14.0007 17.9488 13.9759 18.1351 13.9759H20.4844C21.6475 13.9759 22.5938 14.9221 22.5938 16.0852V19.8408Z" fill="#8CA9C2"/>
<path d="M4.69044 5.92988C2.96783 5.92988 1.56641 7.3313 1.56641 9.05391C1.56636 10.7765 2.96783 12.1779 4.69044 12.1779C6.413 12.1779 7.81447 10.7765 7.81447 9.05391C7.81447 7.3313 6.41305 5.92988 4.69044 5.92988ZM4.69039 10.7717C3.74319 10.7717 2.97261 10.0011 2.97261 9.05391C2.97261 8.10671 3.74319 7.33613 4.69039 7.33613C5.63759 7.33613 6.40817 8.10671 6.40817 9.05391C6.40817 10.0011 5.63759 10.7717 4.69039 10.7717ZM12.0001 2.0498C9.69875 2.0498 7.82647 3.92209 7.82647 6.22346C7.82647 8.52484 9.69875 10.3971 12.0001 10.3971C14.3015 10.3971 16.1738 8.52484 16.1738 6.22346C16.1738 3.92213 14.3015 2.0498 12.0001 2.0498ZM12.0001 8.99087C10.4742 8.99087 9.23272 7.74943 9.23272 6.22346C9.23272 4.69754 10.4742 3.45605 12.0001 3.45605C13.5261 3.45605 14.7675 4.69749 14.7675 6.22346C14.7675 7.74943 13.5261 8.99087 12.0001 8.99087ZM19.3098 5.92988C17.5872 5.92988 16.1858 7.3313 16.1858 9.05391C16.1858 10.7765 17.5872 12.1779 19.3098 12.1779C21.0324 12.1779 22.4338 10.7765 22.4338 9.05391C22.4338 7.3313 21.0324 5.92988 19.3098 5.92988ZM19.3098 10.7717C18.3627 10.7717 17.592 10.0011 17.592 9.05391C17.5921 8.10671 18.3627 7.33613 19.3098 7.33613C20.257 7.33613 21.0276 8.10671 21.0276 9.05391C21.0276 10.0011 20.257 10.7717 19.3098 10.7717Z" fill="#8CA9C2"/>
</svg>
