<svg width="20" height="16" viewBox="0 0 20 16" fill="none" xmlns="http://www.w3.org/2000/svg">
<path d="M10.4851 0.499817C12.6977 0.499817 14.2381 2.03379 14.4022 4.28415L16.8203 3.2019C17.8665 2.73455 19.0081 3.52863 19.0912 4.7353L19.0961 4.87632V11.5153C19.0961 12.7526 17.9932 13.6087 16.941 13.237L16.8199 13.1886L14.4021 12.1062C14.2377 14.3551 12.6942 15.8908 10.4851 15.8908H4.75865C2.41552 15.8908 0.82711 14.1717 0.82711 11.7028V4.68782C0.82711 2.21891 2.41552 0.499817 4.75865 0.499817H10.4851ZM10.4851 1.99982H4.75865C3.16877 1.99982 2.1973 3.0512 2.1973 4.68782V11.7028C2.1973 13.3394 3.16877 14.3908 4.75865 14.3908H10.4851C12.0711 14.3908 13.0465 13.3367 13.0465 11.7028L13.0463 11.0173C13.046 11.0066 13.046 10.9959 13.0461 10.9852L13.0465 4.68782C13.0465 3.0516 12.0745 1.99982 10.4851 1.99982ZM17.4003 4.57141L17.3383 4.59056L14.4167 5.89682V10.4928L17.338 11.7999C17.5029 11.8736 17.6811 11.7642 17.7187 11.5854L17.7259 11.5153V4.87632C17.7259 4.68152 17.5657 4.54203 17.4003 4.57141Z" fill="#8CA9C2"/>
</svg>
