<svg width="24" height="24" viewBox="0 0 24 24" fill="none" xmlns="http://www.w3.org/2000/svg">
<path d="M12 2C6.47297 2 2 6.47254 2 12C2 17.527 6.47254 22 12 22C17.527 22 22 17.5275 22 12C22 6.47297 17.5275 2 12 2ZM8.1307 4.06066C7.82882 4.88253 7.57451 5.72109 7.36902 6.57219C6.76742 6.38929 6.17727 6.17064 5.60172 5.91742C6.3343 5.14777 7.18797 4.52109 8.1307 4.06066ZM4.8257 6.85313C5.56939 7.1979 6.33704 7.48841 7.12266 7.72238C6.89586 8.93305 6.76617 10.1653 6.73539 11.4141H3.19148C3.29941 9.75621 3.86437 8.18711 4.8257 6.85313ZM4.8257 17.1469C3.86437 15.8129 3.29941 14.2438 3.19148 12.5859H6.73539C6.76617 13.8347 6.89586 15.067 7.12266 16.2776C6.33704 16.5116 5.56939 16.8021 4.8257 17.1469ZM5.60172 18.0826C6.17725 17.8294 6.76741 17.6107 7.36902 17.4279C7.57452 18.2789 7.82884 19.1175 8.1307 19.9394C7.18844 19.4792 6.33469 18.8526 5.60172 18.0826ZM11.4141 20.8085C10.7987 20.7685 10.1954 20.6657 9.61191 20.5029C9.15065 19.4105 8.77964 18.2822 8.50262 17.1293C9.45254 16.9169 10.4245 16.7927 11.4141 16.7576V20.8085ZM11.4141 15.585C10.3419 15.6205 9.28887 15.7533 8.25973 15.9825C8.05527 14.8681 7.93746 13.7345 7.90766 12.5859H11.4141V15.585ZM11.4141 11.4141H7.90766C7.93746 10.2655 8.05527 9.13191 8.25973 8.0175C9.28887 8.24672 10.3419 8.37953 11.4141 8.41496V11.4141ZM11.4141 7.24238C10.4245 7.20727 9.45254 7.08309 8.50262 6.8707C8.77964 5.71778 9.15065 4.58949 9.61191 3.49715C10.1954 3.33426 10.7987 3.23152 11.4141 3.19148V7.24238ZM19.1743 6.85313C20.1356 8.18711 20.7006 9.75621 20.8085 11.4141H17.2646C17.2338 10.1653 17.1041 8.93305 16.8773 7.72238C17.663 7.48841 18.4306 7.1979 19.1743 6.85313ZM18.3983 5.91738C17.8227 6.17065 17.2326 6.38929 16.631 6.57215C16.4255 5.72105 16.1712 4.88249 15.8693 4.06063C16.8116 4.52082 17.6653 5.14738 18.3983 5.91738ZM12.5859 3.19148C13.2013 3.23152 13.8046 3.33426 14.3881 3.49715C14.8494 4.58949 15.2204 5.71778 15.4974 6.8707C14.5475 7.08309 13.5755 7.20727 12.5859 7.24238V3.19148ZM12.5859 8.41496C13.6581 8.37953 14.7111 8.24672 15.7403 8.0175C15.9447 9.13191 16.0625 10.2655 16.0923 11.4141H12.5859V8.41496ZM14.388 20.5028C13.8046 20.6657 13.2013 20.7685 12.5859 20.8085V16.7576C13.5755 16.7927 14.5475 16.9169 15.4974 17.1293C15.2204 18.2822 14.8493 19.4105 14.388 20.5028ZM12.5859 15.585V12.5859H16.0923C16.0625 13.7345 15.9447 14.8681 15.7403 15.9825C14.7111 15.7533 13.6581 15.6205 12.5859 15.585ZM15.8693 19.9393C16.1712 19.1175 16.4255 18.2789 16.631 17.4278C17.2326 17.6107 17.8227 17.8294 18.3983 18.0826C17.6657 18.8522 16.812 19.4789 15.8693 19.9393ZM19.1743 17.1469C18.4306 16.8021 17.663 16.5116 16.8773 16.2776C17.1041 15.067 17.2338 13.8347 17.2646 12.5859H20.8085C20.7006 14.2438 20.1356 15.8129 19.1743 17.1469Z" fill="#8CA9C2"/>
</svg>
