<svg width="22" height="22" viewBox="0 0 22 22" fill="none" xmlns="http://www.w3.org/2000/svg">
<path d="M11.2206 21.0833C8.47092 21.0833 5.88509 20.036 3.93932 18.1347C1.99356 16.2334 0.916687 13.6961 0.916687 11C0.916687 8.30385 1.99001 5.77002 3.93932 3.86521C5.88864 1.96041 8.47092 0.916626 11.2206 0.916626H11.2316C11.3606 0.91655 11.4862 0.958714 11.589 1.03668C11.6918 1.11464 11.7662 1.22412 11.801 1.34838C11.8357 1.47264 11.8288 1.60486 11.7813 1.72484C11.7339 1.84481 11.6484 1.94595 11.5381 2.01279C10.7651 2.47951 10.087 3.08762 9.53912 3.80534C9.44354 3.92855 9.30314 4.00897 9.14851 4.02909C8.99388 4.0492 8.83757 4.00738 8.71366 3.91272C8.58974 3.81807 8.50827 3.67827 8.487 3.5238C8.46573 3.36933 8.50638 3.21271 8.60011 3.08809C8.81114 2.81165 9.03911 2.54856 9.2827 2.30033C5.18044 3.16962 2.09833 6.74014 2.09833 11C2.09833 15.9085 6.19074 19.9017 11.2206 19.9017C11.8974 19.9019 12.5722 19.829 13.2333 19.6842C13.3859 19.6517 13.5452 19.6809 13.6764 19.7654C13.8076 19.8499 13.9 19.9828 13.9335 20.1352C13.967 20.2876 13.9389 20.4471 13.8552 20.5788C13.7715 20.7106 13.6392 20.8038 13.487 20.8383C12.7426 21.0015 11.9827 21.0836 11.2206 21.0833Z" fill="#8CA9C2"/>
<path d="M15.2933 20.2117C15.158 20.212 15.0267 20.1659 14.9213 20.0811C14.816 19.9962 14.7429 19.8778 14.7143 19.7455C14.6858 19.6133 14.7035 19.4752 14.7645 19.3545C14.8255 19.2337 14.9261 19.1375 15.0495 19.082C16.7592 18.313 18.1889 17.0333 19.1419 15.4189C17.9656 15.9944 16.6734 16.2934 15.3638 16.293C13.112 16.293 10.9941 15.4351 9.40049 13.8777C7.80685 12.3203 6.92377 10.2402 6.92377 8.03093C6.92288 7.14536 7.06753 6.26566 7.35192 5.42699C7.37685 5.35351 7.41601 5.28567 7.46716 5.22733C7.51831 5.16899 7.58046 5.12129 7.65004 5.08696C7.71962 5.05264 7.79529 5.03235 7.87271 5.02727C7.95013 5.02219 8.0278 5.0324 8.10128 5.05733C8.17475 5.08226 8.2426 5.12142 8.30094 5.17258C8.35928 5.22373 8.40698 5.28587 8.4413 5.35545C8.47563 5.42504 8.49591 5.5007 8.501 5.57813C8.50608 5.65555 8.49586 5.73322 8.47093 5.80669C8.2281 6.52308 8.10461 7.2745 8.10541 8.03093C8.10541 11.9351 11.3612 15.1113 15.3638 15.1113C17.1003 15.1142 18.7818 14.5031 20.1113 13.3861C20.2091 13.303 20.3313 13.254 20.4595 13.2465C20.5877 13.2391 20.7148 13.2736 20.8216 13.3448C20.9284 13.416 21.0091 13.52 21.0515 13.6412C21.0939 13.7624 21.0957 13.8941 21.0566 14.0163C20.1901 16.7266 18.1773 18.9654 15.5375 20.1585C15.4609 20.1935 15.3776 20.2117 15.2933 20.2117Z" fill="#8CA9C2"/>
<path d="M14.3086 6.6814H11C10.9224 6.6814 10.8456 6.66611 10.7739 6.63642C10.7022 6.60673 10.6371 6.56321 10.5822 6.50835C10.5274 6.45349 10.4838 6.38835 10.4542 6.31667C10.4245 6.24499 10.4092 6.16816 10.4092 6.09058C10.4092 6.01299 10.4245 5.93616 10.4542 5.86448C10.4838 5.7928 10.5274 5.72767 10.5822 5.6728C10.6371 5.61794 10.7022 5.57442 10.7739 5.54473C10.8456 5.51504 10.9224 5.49976 11 5.49976H14.3086C14.4653 5.49976 14.6156 5.562 14.7264 5.6728C14.8372 5.7836 14.8994 5.93388 14.8994 6.09058C14.8994 6.24727 14.8372 6.39755 14.7264 6.50835C14.6156 6.61915 14.4653 6.6814 14.3086 6.6814Z" fill="#8CA9C2"/>
<path d="M11 9.43864C10.8786 9.43866 10.7601 9.40128 10.6607 9.33158C10.5613 9.26188 10.4858 9.16325 10.4444 9.0491C10.403 8.93495 10.3978 8.81083 10.4295 8.69363C10.4612 8.57642 10.5282 8.47182 10.6215 8.39407L13.9301 5.6369C14.0512 5.54592 14.2026 5.50492 14.353 5.52237C14.5035 5.53981 14.6415 5.61436 14.7385 5.73063C14.8356 5.8469 14.8843 5.99601 14.8746 6.14715C14.8649 6.2983 14.7975 6.43994 14.6863 6.54283L11.3777 9.29999C11.2719 9.38898 11.1383 9.43804 11 9.43864Z" fill="#8CA9C2"/>
<path d="M14.3086 9.4386H11C10.8433 9.4386 10.693 9.37635 10.5822 9.26555C10.4714 9.15475 10.4092 9.00447 10.4092 8.84778C10.4092 8.69108 10.4714 8.54081 10.5822 8.43001C10.693 8.31921 10.8433 8.25696 11 8.25696H14.3086C14.4653 8.25696 14.6156 8.31921 14.7264 8.43001C14.8372 8.54081 14.8994 8.69108 14.8994 8.84778C14.8994 9.00447 14.8372 9.15475 14.7264 9.26555C14.6156 9.37635 14.4653 9.4386 14.3086 9.4386Z" fill="#8CA9C2"/>
<path d="M19.9651 9.75488H17.4537C17.297 9.75488 17.1468 9.69264 17.036 9.58184C16.9252 9.47104 16.8629 9.32076 16.8629 9.16406C16.8629 9.00737 16.9252 8.85709 17.036 8.74629C17.1468 8.63549 17.297 8.57324 17.4537 8.57324H19.9651C20.1218 8.57324 20.2721 8.63549 20.3829 8.74629C20.4937 8.85709 20.5559 9.00737 20.5559 9.16406C20.5559 9.32076 20.4937 9.47104 20.3829 9.58184C20.2721 9.69264 20.1218 9.75488 19.9651 9.75488Z" fill="#8CA9C2"/>
<path d="M17.4542 11.8475C17.3328 11.8476 17.2143 11.8102 17.1149 11.7405C17.0155 11.6708 16.9399 11.5722 16.8986 11.458C16.8572 11.3439 16.852 11.2197 16.8837 11.1025C16.9154 10.9853 16.9824 10.8807 17.0756 10.803L19.5866 8.71029C19.6455 8.65624 19.7147 8.6147 19.7901 8.58818C19.8655 8.56165 19.9455 8.5507 20.0252 8.55598C20.105 8.56126 20.1828 8.58266 20.2541 8.61889C20.3253 8.65512 20.3884 8.70543 20.4397 8.76677C20.4909 8.82811 20.5291 8.8992 20.5521 8.97575C20.5751 9.0523 20.5823 9.13271 20.5733 9.21212C20.5642 9.29153 20.5392 9.36828 20.4997 9.43774C20.4602 9.5072 20.407 9.56792 20.3433 9.61622L17.8323 11.7089C17.7265 11.7982 17.5926 11.8472 17.4542 11.8475Z" fill="#8CA9C2"/>
<path d="M19.9651 11.8475H17.4537C17.297 11.8475 17.1468 11.7853 17.036 11.6745C16.9252 11.5637 16.8629 11.4134 16.8629 11.2567C16.8629 11.1 16.9252 10.9497 17.036 10.8389C17.1468 10.7281 17.297 10.6659 17.4537 10.6659H19.9651C20.1218 10.6659 20.2721 10.7281 20.3829 10.8389C20.4937 10.9497 20.5559 11.1 20.5559 11.2567C20.5559 11.4134 20.4937 11.5637 20.3829 11.6745C20.2721 11.7853 20.1218 11.8475 19.9651 11.8475Z" fill="#8CA9C2"/>
<path d="M20.504 2.10413H16.872C16.7153 2.10413 16.565 2.04188 16.4542 1.93108C16.3434 1.82028 16.2812 1.67 16.2812 1.51331C16.2812 1.35661 16.3434 1.20633 16.4542 1.09553C16.565 0.984732 16.7153 0.922485 16.872 0.922485H20.504C20.6607 0.922485 20.811 0.984732 20.9218 1.09553C21.0326 1.20633 21.0948 1.35661 21.0948 1.51331C21.0948 1.67 21.0326 1.82028 20.9218 1.93108C20.811 2.04188 20.6607 2.10413 20.504 2.10413Z" fill="#8CA9C2"/>
<path d="M16.8724 5.13113C16.7509 5.13125 16.6323 5.09391 16.5328 5.02419C16.4332 4.95447 16.3576 4.85577 16.3163 4.74153C16.2749 4.62729 16.2697 4.50306 16.3015 4.38579C16.3333 4.26851 16.4005 4.16389 16.4938 4.08616L20.1258 1.05959C20.2462 0.959252 20.4015 0.910851 20.5576 0.925034C20.7137 0.939216 20.8577 1.01482 20.9581 1.13521C21.0584 1.25561 21.1068 1.41093 21.0926 1.56701C21.0785 1.72309 21.0029 1.86715 20.8825 1.96748L17.2505 4.99406C17.1444 5.08256 17.0106 5.13107 16.8724 5.13113Z" fill="#8CA9C2"/>
<path d="M20.504 5.1311H16.872C16.7153 5.1311 16.565 5.06886 16.4542 4.95806C16.3434 4.84726 16.2812 4.69698 16.2812 4.54028C16.2812 4.38359 16.3434 4.23331 16.4542 4.12251C16.565 4.01171 16.7153 3.94946 16.872 3.94946H20.504C20.6607 3.94946 20.811 4.01171 20.9218 4.12251C21.0326 4.23331 21.0948 4.38359 21.0948 4.54028C21.0948 4.69698 21.0326 4.84726 20.9218 4.95806C20.811 5.06886 20.6607 5.1311 20.504 5.1311Z" fill="#8CA9C2"/>
</svg>
